<?xml version="1.0" standalone="no"?>
<!DOCTYPE svg PUBLIC "-//W3C//DTD SVG 1.1//EN" "http://www.w3.org/Graphics/SVG/1.1/DTD/svg11.dtd" >
<svg xmlns="http://www.w3.org/2000/svg" xmlns:xlink="http://www.w3.org/1999/xlink" version="1.1">
<metadata>
Created by FontForge 20161013 at Fri Jun  8 23:04:49 2012
 By ,,,
Copyright (c) 2012 by Ale Paul. All rights reserved.
</metadata>
<defs>
<font id="HipsterScriptPro" horiz-adv-x="569" >
  <font-face 
    font-family="Hipster Script Pro"
    font-weight="400"
    font-stretch="normal"
    units-per-em="1000"
    panose-1="2 0 0 0 0 0 0 0 0 0"
    ascent="800"
    descent="-200"
    x-height="379"
    cap-height="820"
    bbox="-1459 -871 2401 1172"
    underline-thickness="50"
    underline-position="-200"
    unicode-range="U+0020-FB03"
  />
<missing-glyph horiz-adv-x="180" 
 />
    <glyph glyph-name="ts" unicode="ts" horiz-adv-x="422" 
d="M109 -36q-81 0 -81 197q0 102 20 247q-19 -2 -55 -2q-41 0 -59.5 16t-18.5 55q0 24 9 24q3 0 6 -4q43 -18 126 -18h3q5 31 12 71t10 59.5t3 24.5v2q6 6 11 6q3 0 4 -1q8 -6 26.5 -10.5t30.5 -9.5t12 -15q-4 -25 -25 -123q46 3 100.5 10.5t89.5 13t42 5.5q3 0 11 1t12 1
q9 0 9 -5t-9 -8.5t-23 -9t-22 -12.5q-88 -42 -224 -62q-38 -194 -38 -359q0 -22 9 -34.5t22 -12.5q29 0 86 145q28 68 46 141.5t22 114.5q1 15 24 28t37 13q8 0 8 -5l-1 -4q-1 -4 -2 -11.5t-2.5 -17t-3.5 -22t-3 -26.5t-2 -30t-1 -32q0 -35 31 -150.5t31 -157.5
q0 -44 -24.5 -66.5t-59.5 -22.5q-40 0 -70.5 26.5t-30.5 69.5q0 21 5 37.5t10 16.5q3 0 3 -2q4 -37 25 -64.5t41 -27.5q34 0 34 74q0 40 -22.5 130t-22.5 97q-5 -9 -11.5 -27.5t-16.5 -47.5t-18 -49q-70 -177 -125 -177z" />
    <glyph glyph-name="el.001" unicode="el" horiz-adv-x="473" 
d="M-3 163l15 -3q5 97 49.5 172t110.5 75q32 0 50.5 -25.5t18.5 -64.5q0 -57 -38.5 -113t-111.5 -84q11 -131 85 -131q32 0 68 24.5t64 62.5q-21 95 -21 226t21.5 259.5t56.5 210.5t71 82q65 0 65 -152q0 -103 -37 -274.5t-101 -296.5q39 -234 162 -234q54 0 76 52
q5 12 8 12t3 -7v-3l6 -4q-5 -48 -36.5 -75t-73.5 -27q-140 0 -194 206q-71 -91 -154 -91q-50 0 -89 41t-59 126q-8 0 -12 1q-2 0 -3 3l-3 9t-7 11q-2 2 -2 3q0 3 4 6t8 3zM455 671q0 84 -23 84q-29 0 -55.5 -136.5t-26.5 -296.5q0 -90 8 -155q48 112 72.5 260t24.5 244z
M169 349q-32 0 -54.5 -58t-24.5 -129q50 18 76 61t26 84q0 42 -23 42z" />
    <glyph glyph-name="er" unicode="er" horiz-adv-x="584" 
d="M371 237q-8 0 -12 1q-6 -46 -18.5 -89t-34.5 -88.5t-60 -73t-86 -27.5q-50 0 -89 41t-59 126q-8 0 -12 1q-2 0 -3 3l-3 9t-7 11q-2 2 -2 3q0 3 4 6t8 3l15 -3q5 97 49.5 172t110.5 75q32 0 50.5 -25.5t18.5 -64.5q0 -57 -38.5 -113t-111.5 -84q11 -131 85 -131
q122 0 155 261q-40 30 -40 97q0 33 12.5 55.5t34.5 22.5q37 0 37 -46q0 -11 -2.5 -33.5t-2.5 -31.5q0 -24 9 -24q5 0 22 10q15 10 37.5 30t39 34.5t19.5 14.5q10 0 21.5 -14.5t11.5 -25.5l-3 -13q-18 -47 -25 -64q-32 -77 -32 -155q0 -60 14 -97t34 -37q29 0 52 74
q4 13 14 20q4 3 6 3q3 0 3 -4l-1 -5q-3 -60 -34.5 -97.5t-69.5 -37.5q-35 0 -59 35t-24 104q0 92 25 184q-24 -12 -59 -12zM169 349q-32 0 -54.5 -58t-24.5 -129q50 18 76 61t26 84q0 42 -23 42z" />
    <glyph glyph-name="es" unicode="es" horiz-adv-x="496" 
d="M157 4q70 0 130 152q28 68 46 141.5t22 114.5q1 15 24 28t37 13q8 0 8 -5l-1 -4q-1 -4 -2 -11.5t-3 -17t-3.5 -22t-2.5 -26.5t-2 -30t-1 -32q0 -35 31 -150.5t31 -157.5q0 -43 -27.5 -68.5t-62.5 -25.5q-31 0 -52.5 20.5t-21.5 58.5q0 13 4.5 26.5t10 20.5t8.5 7
q2 0 2 -3v-4q0 -59 39 -59q33 0 33 58q0 46 -22.5 139t-22.5 98q-5 -9 -11.5 -27.5t-16.5 -47.5t-18 -49q-69 -179 -165 -179q-73 0 -109.5 54.5t-36.5 136.5q0 97 45.5 175.5t114.5 78.5q33 0 51.5 -22t18.5 -57q0 -51 -38.5 -107.5t-112.5 -98.5q9 -118 76 -118zM174 330
q0 19 -15 19q-32 0 -54.5 -57.5t-24.5 -127.5q31 21 62.5 75.5t31.5 90.5z" />
    <glyph glyph-name="ff" unicode="ff" horiz-adv-x="520" 
d="M303 312l1 2v2q9 71 37 528q0 10 2 10q8 0 11 -3q33 -50 47 -65q9 -10 9 -23q0 -7 -1 -11q-33 -230 -56 -438l85 5q35 0 74 -58q2 -3 12 -5.5t10 -7.5q0 -7 -6 -9q-11 -6 -175 -8q38 -75 60.5 -194t22.5 -234q0 -118 -24 -193t-71 -75q-99 0 -99 185q0 80 23 262.5
t27 248.5h-21q-102 0 -132 2q-4 0 -6 -2.5t-3 -4.5v-2q39 -65 61 -180t22 -237q0 -140 -28 -235t-80 -95q-98 0 -98 189q0 86 25.5 286.5t27.5 277.5q0 13 -15 13q-12 0 -43.5 15.5t-31.5 24.5q0 5 10 8q35 7 79 7q9 0 9 8q9 23 37 480q0 10 2 10q8 0 11 -3q33 -50 47 -65
q9 -10 9 -23q0 -7 -1 -11q-25 -177 -51 -391q51 1 181 9zM63 -347q0 -121 16 -121q10 0 23.5 62t24 161t10.5 189q0 150 -31 219q-43 -400 -43 -510zM299 -289q0 -121 16 -121q10 0 22 56t21 147t9 176q0 147 -28 221q-40 -363 -40 -479z" />
    <glyph glyph-name="fi" unicode="fi" horiz-adv-x="432" 
d="M357 369q17 0 17 -8q-4 -22 -12 -64.5t-10.5 -57.5t-7 -45t-6 -47t-3 -40.5t-1.5 -48.5q0 -46 22 -46q16 0 36 20.5t29 41.5q4 6 9 6t5 -6v-2q-9 -44 -37.5 -76.5t-63.5 -32.5q-74 0 -74 163q0 66 13 150q0 9 -13 9q-82 -23 -143 -25q-2 -22 -4 -33q41 -72 65 -200
t24 -256t-24.5 -211t-72.5 -83q-99 0 -99 198q0 89 25 292.5t27 279.5q0 13 -15 13t-44 7t-29 16q0 5 10 8q35 7 79 7q9 0 9 8q9 23 37 480q0 10 2 10q8 0 11 -3q33 -50 47 -65q9 -10 9 -23q0 -7 -1 -11q-27 -190 -51 -389q77 9 125.5 25t70 27.5t39.5 11.5zM63 -347
q0 -121 16 -121q10 0 23.5 60.5t23.5 157.5t10 185q0 149 -31 219q-42 -383 -42 -501zM381 632q44 0 44 -46q0 -30 -19.5 -58t-44.5 -28q-23 0 -34.5 14.5t-11.5 36.5q0 30 19 55.5t47 25.5z" />
    <glyph glyph-name="fl" unicode="fl" horiz-adv-x="497" 
d="M217 308q29 0 66 -47q1 126 26.5 266t61 232t66.5 92q72 0 72 -137q0 -117 -51.5 -259.5t-123.5 -204.5v-11q0 -223 99 -223q43 0 68 62q5 12 8 12t3 -7v-3l6 -4q0 -39 -29 -85t-67 -46q-132 0 -139 277q-50 -8 -121 -8q-5 0 -13.5 0.5t-11.5 0.5q-4 0 -6 -2.5t-3 -4.5
v-2q40 -64 62 -178.5t22 -234.5q0 -134 -28 -225t-79 -91q-99 0 -99 185q0 82 25 277.5t27 272.5q0 13 -15 13q-11 0 -42 24.5t-31 33.5q0 5 10 8q35 7 79 7q9 0 9 8q9 23 37 480q0 10 2 10q8 0 11 -3q33 -50 47 -65q9 -10 9 -23q0 -7 -1 -11q-25 -177 -51 -391zM63 -347
q0 -121 16 -121q10 0 23.5 56.5t23.5 147t10 174.5q0 151 -34 215q-39 -362 -39 -472zM458 683q0 42 -12 42q-29 0 -66.5 -146t-44.5 -292q52 64 87.5 190.5t35.5 205.5z" />
    <glyph glyph-name="ffi" unicode="ffi" horiz-adv-x="668" 
d="M305 322q23 309 36 522q0 10 2 10q8 0 11 -3q33 -50 47 -65q9 -10 9 -23q0 -7 -1 -11q-30 -207 -54 -422q62 10 119 22.5t87.5 21t30.5 11.5q0 1 -1 1q15 -2 15 -8q-4 -22 -12 -64.5t-10.5 -57.5t-7 -45t-6 -47t-3 -40.5t-1.5 -48.5q0 -46 22 -46q16 0 36 20.5t29 41.5
q4 6 9 6t5 -6v-2q-9 -44 -37.5 -76.5t-63.5 -32.5q-74 0 -74 163q0 66 13 150q0 9 -13 9q-15 -7 -144 -34l-3 -22q42 -73 66.5 -197t24.5 -246q0 -118 -24 -193t-71 -75q-99 0 -99 185q0 82 24 272.5t27 264.5q-122 -24 -154 -24q-4 0 -6 -2.5t-3 -4.5v-2q39 -65 61 -180
t22 -237q0 -140 -28 -235t-80 -95q-98 0 -98 189q0 86 25.5 286.5t27.5 277.5q0 13 -15 13q-12 0 -43.5 15.5t-31.5 24.5q0 5 10 8q35 7 79 7q9 0 9 8q9 23 37 480q0 10 2 10q8 0 11 -3q33 -50 47 -65q9 -10 9 -23q0 -7 -1 -11q-25 -180 -51 -392q91 6 183 20zM63 -347
q0 -121 16 -121q10 0 23.5 62t24 161t10.5 189q0 150 -31 219q-43 -400 -43 -510zM299 -289q0 -121 16 -121q10 0 22 56t21 147t9 176q0 147 -28 221q-40 -363 -40 -479zM599 649q44 0 44 -46q0 -30 -19.5 -58t-44.5 -28q-23 0 -34.5 14.5t-11.5 36.5q0 30 19 55.5t47 25.5z
" />
    <glyph glyph-name="A_m" unicode="Am" horiz-adv-x="1800" 
d="M1337 249q0 49 -52 49q-17 0 -57.5 -6t-56.5 -8v-12q-1 -33 -1 -95q0 -314 77 -314q3 0 6.5 1.5t5.5 3.5l2 2q2 0 2 -3q0 -25 -47 -25q-85 0 -120.5 67t-35.5 187q0 74 11 167q-31 -3 -219 -27q-272 -395 -592 -395q-113 0 -186 59t-73 134q0 32 17 68l1 -2l1 -1
q-6 -21 -6 -41q0 -67 62 -105t161 -38q110 0 244 86t264 221q-133 -17 -198 -17q-98 0 -177.5 19.5t-134.5 67.5t-55 120q0 68 49.5 119t113.5 72.5t127 21.5q68 0 115 -23l-1 -5q-39 11 -89 11q-122 0 -197 -54t-75 -122q0 -61 66 -103.5t192 -42.5q125 0 335 15
q97 112 155 211q12 20 44.5 74.5t43.5 74.5t33 62t38.5 81.5t33.5 89.5q1 4 4 6t6 2h2l39 -4q4 0 6.5 -2t2.5 -4v-1l-2 -12l-3 -26q-35 -293 -46 -517q14 1 72 9t82 8q39 0 58.5 -16t19.5 -57q0 -53 -16 -141q58 239 108 239q31 0 43 -15.5t12 -48.5q0 -163 -8 -204
q9 20 34.5 90.5t51 126.5t51.5 80q4 3 8 3q9 0 27.5 -13.5t18.5 -21.5q0 -3 -1 -5q-35 -78 -35 -205q0 -47 13.5 -83.5t34.5 -36.5q20 0 45 26q2 1 4 1q3 0 3 -3q0 -31 -26 -56t-56 -25q-90 0 -90 193q0 19 1 44.5t1 30.5q-13 -21 -28.5 -72t-32.5 -113t-24 -84
q0 -10 -15 -10q-54 0 -54 14v1q10 90 10 220q0 90 -9 90q-20 0 -46 -86.5t-41 -212.5q0 -31 -31 -31q-18 0 -33.5 12t-16.5 30q0 3 6.5 46.5t13 97t9.5 91.5zM899 307q160 14 179 16q4 31 26.5 180.5t27.5 217.5q-22 -32 -98.5 -176.5t-134.5 -237.5z" />
    <glyph glyph-name="A_m_n" unicode="Amn" horiz-adv-x="2140" 
d="M1544 110q9 20 34.5 90.5t51 126.5t51.5 80q4 3 8 3q9 0 27.5 -13.5t18.5 -21.5q0 -3 -1 -5q-35 -78 -35 -205q0 -132 27 -132q10 0 20 11.5t20 35.5t17.5 47t16.5 60.5t14.5 60.5t14 62.5t11.5 52.5q3 12 22 16q8 1 19.5 3.5t19.5 4.5t11 2q9 0 9 -86q0 -45 -0.5 -94
t-0.5 -64q7 16 24.5 58t30 70t32.5 61.5t40 52.5q5 3 8 3q9 0 27.5 -13.5t18.5 -21.5q0 -3 -1 -5q-35 -78 -35 -205q0 -42 9.5 -73.5t24.5 -31.5q21 0 43 61q2 1 4 1q3 0 3 -3q0 -34 -19.5 -68t-47.5 -34q-30 0 -50.5 26t-29 67.5t-11 70.5t-2.5 57q-22 -23 -38.5 -61.5
t-35 -103.5t-20.5 -71q-1 -10 -15 -10q-10 0 -21 1.5t-18.5 3.5t-7.5 3q20 118 20 282q0 44 -1 66q-8 -44 -13.5 -71.5t-16.5 -78.5t-22 -84t-25 -68t-31 -53t-35 -18q-85 0 -85 195q0 49 5 106q-13 -21 -28.5 -72t-32.5 -113t-24 -84q0 -10 -15 -10q-54 0 -54 14v1
q10 90 10 220q0 90 -9 90q-20 0 -46 -86.5t-41 -212.5q0 -31 -31 -31q-18 0 -33.5 12t-16.5 30q0 3 6.5 46.5t13 97t9.5 91.5q0 49 -52 49q-17 0 -57.5 -6t-56.5 -8q-1 -45 -1 -107q0 -314 77 -314q3 0 6.5 1.5t5.5 3.5l2 2q2 0 2 -3q0 -25 -47 -25q-85 0 -120.5 67
t-35.5 187q0 74 11 167q-31 -3 -219 -27q-272 -395 -592 -395q-113 0 -186 59t-73 134q0 32 17 68l1 -2l1 -1q-6 -21 -6 -41q0 -67 62 -105t161 -38q110 0 244 86t264 221q-133 -17 -198 -17q-98 0 -177.5 19.5t-134.5 67.5t-55 120q0 68 49.5 119t113.5 72.5t127 21.5
q68 0 115 -23l-1 -5q-39 11 -89 11q-122 0 -197 -54t-75 -122q0 -61 66 -103.5t192 -42.5q125 0 335 15q97 112 155 211q12 20 44.5 74.5t43.5 74.5t33 62t38.5 81.5t33.5 89.5q1 4 4 6t6 2h2l39 -4q4 0 6.5 -2t2.5 -4v-1l-2 -12l-3 -26q-35 -293 -46 -517q39 1 94.5 7.5
t73.5 6.5q33 0 48.5 -15t15.5 -55q0 -53 -16 -141q58 239 108 239q31 0 43 -15.5t12 -48.5q0 -163 -8 -204zM899 307q160 14 179 16q4 31 26.5 180.5t27.5 217.5q-22 -32 -98.5 -176.5t-134.5 -237.5z" />
    <glyph glyph-name="A_m_s" unicode="Ams" horiz-adv-x="2012" 
d="M1681 407q4 3 8 3q9 0 27.5 -13.5t18.5 -21.5q0 -3 -1 -5q-35 -78 -35 -205q0 -132 27 -132q31 0 83 152t62 227q2 15 24.5 28t36.5 13q8 0 8 -5l-1 -4q-1 -4 -2 -11.5t-3 -17t-3.5 -22t-2.5 -26.5t-2 -30t-1 -32q0 -35 31 -150.5t31 -157.5t-29 -65.5t-67 -23.5
q-37 0 -63.5 22t-26.5 62q0 21 5.5 43.5t10.5 22.5q3 0 3 -2v-3q0 -39 19 -64.5t41 -25.5q16 0 26.5 14.5t10.5 42.5q0 48 -21 144t-21 101q-6 -12 -37.5 -102t-64 -149t-64.5 -59q-85 0 -85 195q0 49 5 106q-13 -21 -28.5 -72t-32.5 -113t-24 -84q0 -10 -15 -10
q-54 0 -54 14v1q10 90 10 220q0 90 -9 90q-20 0 -46 -86.5t-41 -212.5q0 -31 -31 -31q-18 0 -33.5 12t-16.5 30q0 3 6.5 46.5t13 97t9.5 91.5q0 49 -52 49q-17 0 -57.5 -6t-56.5 -8v-12q-1 -33 -1 -95q0 -314 77 -314q3 0 6.5 1.5t5.5 3.5l2 2q2 0 2 -3q0 -25 -47 -25
q-85 0 -120.5 67t-35.5 187q0 74 11 167q-31 -3 -219 -27q-272 -395 -592 -395q-113 0 -186 59t-73 134q0 32 17 68l1 -2l1 -1q-6 -21 -6 -41q0 -67 62 -105t161 -38q110 0 244 86t264 221q-133 -17 -198 -17q-98 0 -177.5 19.5t-134.5 67.5t-55 120q0 68 49.5 119
t113.5 72.5t127 21.5q68 0 115 -23l-1 -5q-39 11 -89 11q-122 0 -197 -54t-75 -122q0 -61 66 -103.5t192 -42.5q125 0 335 15q97 112 155 211q12 20 44.5 74.5t43.5 74.5t33 62t38.5 81.5t33.5 89.5q1 4 4 6t6 2h2l39 -4q4 0 6.5 -2t2.5 -4v-1l-2 -12l-3 -26
q-35 -293 -46 -517q39 1 94.5 7.5t73.5 6.5q33 0 48.5 -15t15.5 -55q0 -53 -16 -141q58 239 108 239q31 0 43 -15.5t12 -48.5q0 -163 -8 -204q9 20 34.5 90.5t51 126.5t51.5 80zM899 307q160 14 179 16q4 31 26.5 180.5t27.5 217.5q-22 -32 -98.5 -176.5t-134.5 -237.5z" />
    <glyph glyph-name="A_n" unicode="An" horiz-adv-x="1635" 
d="M1171 284v-12q-1 -33 -1 -95q0 -314 77 -314q3 0 6.5 1.5t5.5 3.5l2 2q2 0 2 -3q0 -25 -47 -25q-85 0 -120.5 67t-35.5 187q0 74 11 167q-45 -5 -85.5 -10t-78 -10t-55.5 -7q-272 -395 -592 -395q-113 0 -186 59t-73 134q0 32 17 68l1 -2l1 -1q-6 -21 -6 -41
q0 -67 62 -105t161 -38q110 0 244 86t264 221q-133 -17 -198 -17q-98 0 -177.5 19.5t-134.5 67.5t-55 120q0 68 49.5 119t113.5 72.5t127 21.5q68 0 115 -23l-1 -5q-39 11 -89 11q-122 0 -197 -54t-75 -122q0 -61 66 -103.5t192 -42.5q125 0 335 15q97 112 155 211
q12 20 44.5 74.5t43.5 74.5t33 62t38.5 81.5t33.5 89.5q1 4 4 6t6 2h2l39 -4q4 0 6.5 -2t2.5 -4v-1l-2 -12l-3 -26q-35 -293 -46 -517l30 5q92 16 125 16q41 0 60 -18t19 -64q0 -26 -4 -72t-4 -58q7 16 24.5 58t30 70t32.5 61.5t40 52.5q4 3 8 3q9 0 27.5 -13.5t18.5 -21.5
q0 -3 -1 -5q-35 -78 -35 -205q0 -44 13 -72t35 -28q20 0 45 26q2 1 4 1q3 0 3 -3q0 -31 -26 -56t-56 -25t-51 27.5t-29 70.5t-11 73.5t-3 58.5q-21 -23 -38.5 -68.5t-34 -108.5t-21.5 -78q0 -10 -15 -10q-8 0 -17.5 4t-10.5 8q-2 5 -10.5 7t-8.5 8t1 9q2 9 12 139
q8 104 8 113q0 30 -15.5 42t-44.5 12zM899 307q160 14 179 16q4 31 26.5 180.5t27.5 217.5q-22 -32 -98.5 -176.5t-134.5 -237.5z" />
    <glyph glyph-name="A_n_n" unicode="Ann" horiz-adv-x="1989" 
d="M1526 387q4 3 8 3q9 0 27.5 -13.5t18.5 -21.5q0 -3 -1 -5q-34 -87 -34 -246q0 -92 18 -92q25 0 49 62t50 167.5t33 125.5l1.5 6t2.5 3l3 1.5t4 1t5 0.5q8 1 19.5 3.5t19.5 4.5t11 2q9 0 9 -86q0 -45 -0.5 -94t-0.5 -64q7 16 24.5 58t30 70t32.5 61.5t40 52.5q4 3 8 3
q9 0 27.5 -13.5t18.5 -21.5q0 -3 -1 -5q-35 -78 -35 -205q0 -42 9.5 -73.5t24.5 -31.5q21 0 43 61q2 1 4 1q3 0 3 -3q0 -34 -19.5 -68t-47.5 -34q-30 0 -50.5 26t-29 67.5t-11 70.5t-2.5 57q-22 -23 -38.5 -61.5t-35 -103.5t-20.5 -71q-1 -10 -15 -10q-10 0 -21 1.5
t-18.5 3.5t-7.5 3q20 118 20 282q0 44 -1 66l-5 -25q-11 -51 -16.5 -76t-17.5 -73.5t-23 -75t-25.5 -57t-32 -44.5t-36.5 -14q-70 0 -77 255q-21 -23 -38.5 -68.5t-34 -108.5t-21.5 -78q0 -10 -15 -10q-8 0 -17.5 4t-10.5 8q-2 5 -10.5 7t-8.5 8t1 9q2 9 12 139q8 104 8 113
q0 30 -15.5 42t-44.5 12l-102 -11v-12q-1 -33 -1 -95q0 -314 77 -314q3 0 6.5 1.5t5.5 3.5l2 2q2 0 2 -3q0 -25 -47 -25q-85 0 -120.5 67t-35.5 187q0 74 11 167q-45 -5 -85.5 -10t-78 -10t-55.5 -7q-272 -395 -592 -395q-113 0 -186 59t-73 134q0 32 17 68l1 -2l1 -1
q-6 -21 -6 -41q0 -67 62 -105t161 -38q110 0 244 86t264 221q-133 -17 -198 -17q-98 0 -177.5 19.5t-134.5 67.5t-55 120q0 68 49.5 119t113.5 72.5t127 21.5q68 0 115 -23l-1 -5q-39 11 -89 11q-122 0 -197 -54t-75 -122q0 -61 66 -103.5t192 -42.5q125 0 335 15
q97 112 155 211q12 20 44.5 74.5t43.5 74.5t33 62t38.5 81.5t33.5 89.5q1 4 4 6t6 2h2l39 -4q4 0 6.5 -2t2.5 -4v-1l-2 -12l-3 -26q-35 -293 -46 -517l30 5q92 16 125 16q41 0 60 -18t19 -64q0 -26 -4 -72t-4 -58q7 16 24.5 58t30 70t32.5 61.5t40 52.5zM899 307
q160 14 179 16q4 31 26.5 180.5t27.5 217.5q-22 -32 -98.5 -176.5t-134.5 -237.5z" />
    <glyph glyph-name="A_n_s" unicode="Ans" horiz-adv-x="1868" 
d="M1577 1q4 0 8.5 3.5t9.5 10.5t9.5 14.5t10 19t9.5 21t9.5 23t9 22t9 22.5t7.5 19q28 68 46 141.5t22 114.5q1 15 24 28t37 13q8 0 8 -5l-1 -4q-1 -4 -2 -11.5t-3 -17t-3.5 -22t-2.5 -26.5t-2 -30t-1 -32q0 -35 31 -150.5t31 -157.5t-29 -65.5t-67 -23.5q-37 0 -63.5 22
t-26.5 62q0 21 5.5 43.5t10.5 22.5q3 0 3 -2v-3q0 -39 19 -64.5t41 -25.5q16 0 26.5 14.5t10.5 42.5q0 48 -21 144t-21 101q-5 -9 -11.5 -27.5t-16.5 -47.5t-18 -49q-17 -43 -27 -66.5t-27 -56t-33 -48t-33 -15.5q-90 0 -97 263q-21 -23 -38.5 -68.5t-34 -108.5t-21.5 -78
q0 -10 -15 -10q-8 0 -17.5 4t-10.5 8q-2 5 -10.5 7t-8.5 8t1 9q2 9 12 139q8 104 8 113q0 30 -15.5 42t-44.5 12l-102 -11v-12q-1 -33 -1 -95q0 -314 77 -314q3 0 6.5 1.5t5.5 3.5l2 2q2 0 2 -3q0 -25 -47 -25q-85 0 -120.5 67t-35.5 187q0 74 11 167q-46 -5 -86.5 -10
t-77.5 -10t-55 -7q-272 -395 -592 -395q-113 0 -186 59t-73 134q0 32 17 68l1 -2l1 -1q-6 -21 -6 -41q0 -67 62 -105t161 -38q110 0 244 86t264 221q-133 -17 -198 -17q-98 0 -177.5 19.5t-134.5 67.5t-55 120q0 68 49.5 119t113.5 72.5t127 21.5q68 0 115 -23l-1 -5
q-39 11 -89 11q-122 0 -197 -54t-75 -122q0 -61 66 -103.5t192 -42.5q125 0 335 15q97 112 155 211q12 20 44.5 74.5t43.5 74.5t33 62t38.5 81.5t33.5 89.5q1 4 4 6t6 2h2l39 -4q4 0 6.5 -2t2.5 -4v-1l-2 -12l-3 -26q-35 -293 -46 -517l30 5q92 16 125 16q41 0 60 -18
t19 -64q0 -26 -4 -72t-4 -58q7 16 24.5 58t30 70t32.5 61.5t40 52.5q4 3 8 3q9 0 27.5 -13.5t18.5 -21.5q0 -3 -1 -5q-13 -24 -25.5 -100.5t-12.5 -141.5q0 -107 36 -107zM1002 315v1q52 4 76 7q4 31 26.5 180.5t27.5 217.5q-22 -32 -98.5 -176.5t-134.5 -237.5z" />
    <glyph glyph-name="A_v" unicode="Av" horiz-adv-x="1549" 
d="M1171 274v-2q-1 -33 -1 -95q0 -314 77 -314q3 0 6.5 1.5t5.5 3.5l2 2q2 0 2 -3q0 -25 -47 -25q-85 0 -120.5 67t-35.5 187q0 74 11 167q-78 -8 -219 -27q-272 -395 -592 -395q-113 0 -186 59t-73 134q0 32 17 68l1 -2l1 -1q-6 -21 -6 -41q0 -67 62 -105t161 -38
q110 0 244 86t264 221q-133 -17 -198 -17q-98 0 -177.5 19.5t-134.5 67.5t-55 120q0 68 49.5 119t113.5 72.5t127 21.5q68 0 115 -23l-1 -5q-39 11 -89 11q-122 0 -197 -54t-75 -122q0 -61 66 -103.5t192 -42.5q125 0 335 15q97 112 155 211q12 20 44.5 74.5t43.5 74.5
t33 62t38.5 81.5t33.5 89.5q1 4 4 6t6 2h2l39 -4q4 0 6.5 -2t2.5 -4v-1l-2 -12l-3 -26q-35 -295 -46 -523q72 6 114 6q58 0 78 -17.5t29 -70.5q5 -28 9 -80t5 -61q1 -1 4 -2q81 344 200 344q19 0 19 -22q0 -24 -21 -56q-65 -1 -121 -107t-63 -231q-3 -37 -10 -40t-13.5 -14
t-13.5 -11q-28 2 -39 17.5t-12 55.5q-2 86 -20 207q-5 34 -65 34q-13 0 -82 -8zM1132 721q-22 -32 -98.5 -176.5t-134.5 -237.5q31 2 80 6.5t62 5.5l37 2q4 33 26.5 182.5t27.5 217.5z" />
    <glyph glyph-name="A_w" unicode="Aw" horiz-adv-x="1750" 
d="M1171 273v-1q-1 -33 -1 -95q0 -314 77 -314q3 0 6.5 1.5t5.5 3.5l2 2q2 0 2 -3q0 -25 -47 -25q-85 0 -120.5 67t-35.5 187q0 74 11 167q-78 -8 -219 -27q-272 -395 -592 -395q-113 0 -186 59t-73 134q0 32 17 68l1 -2l1 -1q-6 -21 -6 -41q0 -67 62 -105t161 -38
q110 0 244 86t264 221q-133 -17 -198 -17q-98 0 -177.5 19.5t-134.5 67.5t-55 120q0 68 49.5 119t113.5 72.5t127 21.5q68 0 115 -23l-1 -5q-39 11 -89 11q-122 0 -197 -54t-75 -122q0 -61 66 -103.5t192 -42.5q125 0 335 15q97 112 155 211q12 20 44.5 74.5t43.5 74.5
t33 62t38.5 81.5t33.5 89.5q1 4 4 6t6 2h2l39 -4q4 0 6.5 -2t2.5 -4v-1l-2 -12l-3 -26q-35 -299 -46 -525q51 3 88 3q75 0 103.5 -26t28.5 -75q0 -22 -7.5 -74t-7.5 -78q0 -14 5 -14q10 0 37.5 69.5t55.5 149t32 87.5q8 15 21 15q12 0 28 -11.5t16 -22.5q0 -2 -5.5 -49
t-11.5 -110t-6 -105q0 -78 21 -78q23 0 52.5 76.5t34.5 157.5q-7 21 -7 58q0 48 11.5 87.5t30.5 39.5q32 0 32 -42q0 -24 -11 -66t-11 -45l40 -3q-1 -28 -7.5 -39t-20.5 -11q-12 0 -25 4q-23 -123 -58.5 -189.5t-71.5 -66.5q-32 0 -56 50t-24 128q0 45 9 102
q-2 -5 -14 -48.5t-24 -78.5t-28 -77t-34 -66.5t-34 -24.5q-46 0 -46 107q0 31 4.5 82t4.5 60q0 35 -17.5 54t-64.5 19q-23 0 -65 -4zM1132 721q-22 -32 -98.5 -176.5t-134.5 -237.5q31 2 80 6.5t62 5.5l37 3q4 30 26.5 180.5t27.5 218.5z" />
    <glyph glyph-name="A_w_e" unicode="Awe" horiz-adv-x="2073" 
d="M1171 273v-1q-1 -33 -1 -95q0 -314 77 -314q3 0 6.5 1.5t5.5 3.5l2 2q2 0 2 -3q0 -25 -47 -25q-85 0 -120.5 67t-35.5 187q0 74 11 167q-78 -8 -219 -27q-272 -395 -592 -395q-113 0 -186 59t-73 134q0 32 17 68l1 -2l1 -1q-6 -21 -6 -41q0 -67 62 -105t161 -38
q110 0 244 86t264 221q-133 -17 -198 -17q-98 0 -177.5 19.5t-134.5 67.5t-55 120q0 68 49.5 119t113.5 72.5t127 21.5q68 0 115 -23l-1 -5q-39 11 -89 11q-122 0 -197 -54t-75 -122q0 -61 66 -103.5t192 -42.5q125 0 335 15q97 112 155 211q12 20 44.5 74.5t43.5 74.5
t33 62t38.5 81.5t33.5 89.5q1 4 4 6t6 2h2l39 -4q4 0 6.5 -2t2.5 -4v-1l-2 -12l-3 -26q-35 -299 -46 -525q51 3 88 3q75 0 103.5 -26t28.5 -75q0 -22 -7.5 -74t-7.5 -78q0 -14 5 -14q10 0 37.5 69.5t55.5 149t32 87.5q8 15 21 15q12 0 28 -11.5t16 -22.5q0 -2 -5.5 -49
t-11.5 -110t-6 -105q0 -78 21 -78q19 0 49 74t35 152q-7 18 -7 53q0 50 13 95t33 45q32 0 32 -42q0 -24 -11 -66t-11 -45q14 -82 79 -104q5 93 49.5 164.5t110.5 71.5q33 0 51.5 -22t18.5 -57q0 -59 -45.5 -119.5t-106.5 -79.5q4 -62 23.5 -92t46.5 -30q30 0 54.5 32.5
t24.5 79.5q0 25 -9 54q0 6 12 6q45 0 45 -76q0 -55 -37.5 -98t-91.5 -43q-67 0 -103.5 46.5t-42.5 119.5q-54 17 -93 75q-5 -24 -16 -59.5t-28.5 -80.5t-41.5 -76t-48 -31q-31 0 -53.5 56t-22.5 136q0 45 9 102q-2 -5 -14 -48.5t-24 -78.5t-28 -77t-34 -66.5t-34 -24.5
q-46 0 -46 107q0 31 4.5 82t4.5 60q0 35 -17.5 54t-64.5 19q-23 0 -65 -4zM1132 721q-22 -32 -98.5 -176.5t-134.5 -237.5q31 2 80 6.5t62 5.5l37 3q4 30 26.5 180.5t27.5 218.5zM1955 330q0 19 -15 19q-31 0 -53 -53t-26 -122q41 15 67.5 56t26.5 100z" />
    <glyph glyph-name="A_w_e_s" unicode="Awes" horiz-adv-x="2277" 
d="M1171 273v-1q-1 -33 -1 -95q0 -314 77 -314q3 0 6.5 1.5t5.5 3.5l2 2q2 0 2 -3q0 -25 -47 -25q-85 0 -120.5 67t-35.5 187q0 74 11 167q-78 -8 -219 -27q-272 -395 -592 -395q-113 0 -186 59t-73 134q0 32 17 68l1 -2l1 -1q-6 -21 -6 -41q0 -67 62 -105t161 -38
q110 0 244 86t264 221q-133 -17 -198 -17q-98 0 -177.5 19.5t-134.5 67.5t-55 120q0 68 49.5 119t113.5 72.5t127 21.5q68 0 115 -23l-1 -5q-39 11 -89 11q-122 0 -197 -54t-75 -122q0 -61 66 -103.5t192 -42.5q125 0 335 15q97 112 155 211q12 20 44.5 74.5t43.5 74.5
t33 62t38.5 81.5t33.5 89.5q1 4 4 6t6 2h2l39 -4q4 0 6.5 -2t2.5 -4v-1l-2 -12l-3 -26q-35 -299 -46 -525q51 3 88 3q75 0 103.5 -26t28.5 -75q0 -22 -7.5 -74t-7.5 -78q0 -14 5 -14q10 0 37.5 69.5t55.5 149t32 87.5q8 15 21 15q12 0 28 -11.5t16 -22.5q0 -2 -5.5 -49
t-11.5 -110t-6 -105q0 -78 21 -78q19 0 49 74t35 152q-7 18 -7 53q0 50 13 95t33 45q32 0 32 -42q0 -24 -11 -66t-11 -45q14 -82 79 -104q5 93 49.5 164.5t110.5 71.5q33 0 51.5 -22t18.5 -57q0 -59 -45.5 -119.5t-106.5 -79.5q3 -41 11 -63q8 -24 25 -43t41 -19q30 0 64 35
q32 32 66 117q28 68 46 141.5t22 114.5q1 15 24 28t37 13q8 0 8 -5l-1 -4q-1 -4 -2 -11.5t-2.5 -17t-3.5 -22t-3 -26.5t-2 -30t-1 -32q0 -35 31 -150.5t31 -157.5q0 -43 -27.5 -68.5t-62.5 -25.5q-31 0 -52.5 20.5t-21.5 58.5q0 13 4.5 26.5t10 20.5t8.5 7q2 0 2 -3v-4
q0 -59 39 -59q33 0 33 58q0 46 -22.5 139t-22.5 98q-5 -9 -11.5 -27.5t-16.5 -47.5t-18 -49q-69 -179 -165 -179q-67 0 -103.5 46.5t-42.5 119.5q-54 17 -93 75q-5 -24 -16 -59.5t-28.5 -80.5t-41.5 -76t-48 -31q-31 0 -53.5 56t-22.5 136q0 45 9 102q-2 -5 -14 -48.5
t-24 -78.5t-28 -77t-34 -66.5t-34 -24.5q-46 0 -46 107q0 31 4.5 82t4.5 60q0 35 -17.5 54t-64.5 19q-23 0 -65 -4zM1132 721q-22 -32 -98.5 -176.5t-134.5 -237.5q31 2 80 6.5t62 5.5l37 3q4 30 26.5 180.5t27.5 218.5zM1955 330q0 19 -15 19q-31 0 -53 -53t-26 -122
q41 15 67.5 56t26.5 100z" />
    <glyph glyph-name="A_y" unicode="Ay" horiz-adv-x="1622" 
d="M1266 332q71 0 91 -16.5t20 -65.5q0 -33 -5 -100t-5 -90q0 -58 24 -58q22 0 51.5 42.5t45.5 95.5q14 48 14 226q0 3 3.5 8t8.5 5q15 0 43.5 -3.5t28.5 -7.5q-17 -76 -21 -236q-1 -50 -4 -95t-11 -103.5t-20 -107.5t-33.5 -98t-49.5 -82.5t-69 -54.5t-91 -21
q-66 0 -119.5 34t-68.5 97v1l8 16q1 2 1.5 4t0.5 3.5t1 1.5q4 0 7 -10q21 -49 63.5 -76.5t91.5 -27.5q43 0 77.5 18.5t55.5 52.5t36 71.5t23.5 87t12.5 87t7.5 82.5t6.5 64q-18 -38 -51 -76.5t-70 -38.5q-72 0 -72 130q0 34 5.5 91t5.5 69q0 33 -53 33q-15 0 -85 -10
q-1 -33 -1 -97q0 -314 77 -314q3 0 6.5 1.5t5.5 3.5l2 2q2 0 2 -3q0 -25 -47 -25q-85 0 -120.5 67t-35.5 187q0 74 11 167q-78 -8 -219 -27q-272 -395 -592 -395q-113 0 -186 59t-73 134q0 32 17 68l1 -2l1 -1q-6 -21 -6 -41q0 -67 62 -105t161 -38q110 0 244 86t264 221
q-133 -17 -198 -17q-98 0 -177.5 19.5t-134.5 67.5t-55 120q0 68 49.5 119t113.5 72.5t127 21.5q68 0 115 -23l-1 -5q-39 11 -89 11q-122 0 -197 -54t-75 -122q0 -61 66 -103.5t192 -42.5q125 0 335 15q97 112 155 211q12 20 44.5 74.5t43.5 74.5t33 62t38.5 81.5t33.5 89.5
q1 4 4 6t6 2h2l39 -4q4 0 6.5 -2t2.5 -4v-1l-2 -12l-3 -26q-35 -299 -46 -525q74 4 93 4zM1132 721q-22 -32 -98.5 -176.5t-134.5 -237.5q30 2 87.5 7t91.5 8q4 30 26.5 180.5t27.5 218.5z" />
    <glyph glyph-name="Awf" unicode="Awf" horiz-adv-x="2006" 
d="M1171 273v-1q-1 -33 -1 -95q0 -314 77 -314q3 0 6.5 1.5t5.5 3.5l2 2q2 0 2 -3q0 -25 -47 -25q-85 0 -120.5 67t-35.5 187q0 74 11 167q-78 -8 -219 -27q-272 -395 -592 -395q-113 0 -186 59t-73 134q0 32 17 68l1 -2l1 -1q-6 -21 -6 -41q0 -67 62 -105t161 -38
q110 0 244 86t264 221q-133 -17 -198 -17q-98 0 -177.5 19.5t-134.5 67.5t-55 120q0 68 49.5 119t113.5 72.5t127 21.5q68 0 115 -23l-1 -5q-39 11 -89 11q-122 0 -197 -54t-75 -122q0 -61 66 -103.5t192 -42.5q125 0 335 15q97 112 155 211q12 20 44.5 74.5t43.5 74.5
t33 62t38.5 81.5t33.5 89.5q1 4 4 6t6 2h2l39 -4q4 0 6.5 -2t2.5 -4v-1l-2 -12l-3 -26q-35 -299 -46 -525q51 3 88 3q75 0 103.5 -26t28.5 -75q0 -22 -7.5 -74t-7.5 -78q0 -14 5 -14q10 0 37.5 69.5t55.5 149t32 87.5q8 15 21 15q12 0 28 -11.5t16 -22.5q0 -2 -5.5 -49
t-11.5 -110t-6 -105q0 -78 21 -78q23 0 52.5 76.5t34.5 157.5q-16 47 -16 86q0 32 11 48.5t26 16.5q14 0 25 -16t11 -43q0 -29 -12 -60h4q29 0 72 5q22 210 40 506q0 10 2 10q8 0 11 -3q33 -50 47 -65q9 -10 9 -23q0 -7 -1 -11q-21 -142 -54 -406l98 20q35 0 74 -58
q2 -3 12 -5.5t10 -7.5q0 -7 -6 -9q-28 -14 -145 -14q-5 0 -13.5 0.5t-11.5 0.5q-4 0 -6 -2.5t-3 -4.5v-2q40 -64 62 -178.5t22 -234.5q0 -134 -28 -225t-79 -91q-99 0 -99 185q0 37 8.5 126t23 222t21.5 207q-75 6 -83 9q-23 -123 -58.5 -189.5t-71.5 -66.5q-32 0 -56 50
t-24 128q0 45 9 102q-2 -5 -14 -48.5t-24 -78.5t-28 -77t-34 -66.5t-34 -24.5q-46 0 -46 107q0 31 4.5 82t4.5 60q0 35 -17.5 54t-64.5 19q-23 0 -65 -4zM1132 721q-22 -32 -98.5 -176.5t-134.5 -237.5q30 2 87.5 7t91.5 8q4 30 26.5 180.5t27.5 218.5zM1777 -347
q0 -121 16 -121q10 0 23.5 56.5t23.5 147t10 174.5q0 151 -34 215q-39 -362 -39 -472z" />
    <glyph glyph-name="C_l" unicode="Cl" horiz-adv-x="1034" 
d="M855 210v-17q10 -177 98 -177q43 0 68 62q5 12 8 12t3 -7v-3l6 -4q0 -39 -29 -85t-67 -46q-112 0 -134 203q-180 -216 -433 -216q-91 0 -164 33.5t-118 90.5t-68.5 128.5t-23.5 151.5q0 50 18.5 105.5t52 110t84.5 104t111 87.5t136.5 60.5t156.5 22.5q79 0 153 -43
t74 -91q0 -27 -8 -44t-28 -42l-75 -93q-8 -8 -17 -8q-17 0 -36 41t-19 61q0 14 9 30.5t18 25.5l9 9q31 30 36 40q0 11 -81 11q-63 0 -136.5 -21.5t-143.5 -61.5t-127 -91t-92 -117t-35 -134q0 -71 37.5 -124t97.5 -81t121.5 -41.5t121.5 -13.5q215 0 364 177v33
q0 127 25 270t61.5 238t67.5 95t47 -38t16 -103q0 -107 -43 -245t-122 -255zM982 674q0 51 -16 51q-29 0 -67 -146t-45 -294q63 98 95.5 207.5t32.5 181.5z" />
    <glyph glyph-name="C_y" unicode="Cy" horiz-adv-x="1086" 
d="M881 367q-48 -154 -48 -241q0 -33 5 -58t12.5 -36.5t14.5 -11.5q22 0 46.5 33.5t40.5 86.5q14 48 14 226q0 3 3.5 8t8.5 5q15 0 43.5 -3.5t28.5 -7.5q-17 -76 -21 -236q-8 -410 -158 -525q-49 -37 -120 -37q-66 0 -119.5 34t-68.5 97v1l8 16q1 2 1.5 4t0.5 3.5t1 1.5
q4 0 7 -10q21 -49 63.5 -76.5t91.5 -27.5q54 0 98 34q31 25 53 66.5t33.5 94.5t17 95.5t10 98t7.5 74.5q-18 -38 -51 -76.5t-70 -38.5q-29 0 -48 45.5t-25 114.5q-75 -92 -176 -140.5t-205 -48.5q-76 0 -143.5 26t-120.5 75.5t-84 127.5t-31 175q0 50 18.5 105.5t52 110
t84.5 104t111 87.5t136.5 60.5t156.5 22.5q79 0 153 -43t74 -91q0 -27 -8 -44t-28 -42l-75 -93q-8 -8 -17 -8q-17 0 -36 41t-19 61q0 14 9 30.5t18 25.5l9 9q31 30 36 40q0 11 -81 11q-63 0 -136.5 -21.5t-143.5 -61.5t-127 -91t-92 -117t-35 -134q0 -138 77.5 -205
t201.5 -67q107 0 222 47t197 125q2 80 22 134t56 54q21 0 44 -19z" />
    <glyph glyph-name="Ce.002" unicode="Ce" horiz-adv-x="923" 
d="M840 324q0 39 -24 39q-29 0 -45.5 -47t-16.5 -113q0 -29 2 -43q41 41 62.5 85.5t21.5 78.5zM708 49h-1q-150 -117 -332 -117q-91 0 -164 33.5t-118 90.5t-68.5 128.5t-23.5 151.5q0 50 18.5 105.5t52 110t84.5 104t111 87.5t136.5 60.5t156.5 22.5q79 0 153 -43t74 -91
q0 -27 -8 -44t-28 -42l-75 -93q-8 -8 -17 -8q-17 0 -36 41t-19 61q0 14 9 30.5t18 25.5l9 9q31 30 36 40q0 11 -81 11q-63 0 -136.5 -21.5t-143.5 -61.5t-127 -91t-92 -117t-35 -134q0 -71 37.5 -124t97.5 -81t121.5 -41.5t121.5 -13.5q136 0 247 72q-7 32 -7 73
q0 91 40 158.5t107 67.5q56 0 56 -69q0 -48 -31 -113.5t-86 -124.5q25 -95 82 -95q17 0 40.5 16t30.5 34q5 1 8 5t5 7.5t3 3.5q4 0 4 -9q0 -43 -24.5 -72.5t-68.5 -29.5q-91 0 -137 87z" />
    <glyph glyph-name="Cee.002" unicode="Cee" horiz-adv-x="1187" 
d="M816 363q-31 0 -51 -49t-20 -115q0 -31 2 -46q46 42 69.5 89t23.5 82q0 39 -24 39zM1099 320q0 45 -19 45q-29 0 -45.5 -47t-16.5 -113q0 -54 10 -97q33 50 52 109.5t19 102.5zM702 44l-1 1q-148 -113 -326 -113q-91 0 -164 33.5t-118 90.5t-68.5 128.5t-23.5 151.5
q0 50 18.5 105.5t52 110t84.5 104t111 87.5t136.5 60.5t156.5 22.5q79 0 153 -43t74 -91q0 -27 -8 -44t-28 -42l-75 -93q-8 -8 -17 -8q-17 0 -36 41t-19 61q0 14 9 30.5t18 25.5l9 9q31 30 36 40q0 11 -81 11q-63 0 -136.5 -21.5t-143.5 -61.5t-127 -91t-92 -117t-35 -134
q0 -71 37.5 -124t97.5 -81t121.5 -41.5t121.5 -13.5q134 0 239 67q-6 30 -6 65q0 93 43.5 166t110.5 73q56 0 56 -69q0 -50 -32.5 -116.5t-89.5 -127.5q29 -90 103 -90q60 0 111 41q-31 59 -31 138q0 91 40 158.5t107 67.5q62 0 62 -77q0 -54 -31.5 -126.5t-81.5 -131.5
q25 -67 72 -67q17 0 40.5 16t30.5 34q5 1 8 5t5 7.5t3 3.5q4 0 4 -9q0 -43 -24.5 -72.5t-68.5 -29.5q-76 0 -121 61q-73 -61 -144 -61q-96 0 -142 80z" />
    <glyph glyph-name="Ceel.002" unicode="Ceel" horiz-adv-x="1412" 
d="M816 363q-31 0 -51 -49t-20 -115q0 -31 2 -46q46 42 69.5 89t23.5 82q0 39 -24 39zM1099 320q0 45 -19 45q-29 0 -46 -48t-17 -115q0 -53 10 -96q34 49 53 110t19 104zM1389 671q0 84 -23 84q-29 0 -55.5 -136.5t-26.5 -296.5q0 -86 8 -150q50 113 73.5 264.5t23.5 234.5
zM702 44l-1 1q-148 -113 -326 -113q-91 0 -164 33.5t-118 90.5t-68.5 128.5t-23.5 151.5q0 50 18.5 105.5t52 110t84.5 104t111 87.5t136.5 60.5t156.5 22.5q79 0 153 -43t74 -91q0 -27 -8 -44t-28 -42l-75 -93q-8 -8 -17 -8q-17 0 -36 41t-19 61q0 14 9 30.5t18 25.5l9 9
q31 30 36 40q0 11 -81 11q-63 0 -136.5 -21.5t-143.5 -61.5t-127 -91t-92 -117t-35 -134q0 -71 37.5 -124t97.5 -81t121.5 -41.5t121.5 -13.5q134 0 239 67q-6 30 -6 65q0 93 43.5 166t110.5 73q56 0 56 -69q0 -50 -32.5 -116.5t-89.5 -127.5q29 -90 103 -90q59 0 109 40
q-31 58 -31 137q0 91 40 158.5t107 67.5q63 0 63 -77q0 -54 -31.5 -126.5t-82.5 -131.5q25 -67 72 -67q74 0 132 76q-20 96 -20 219q0 131 21.5 259.5t56.5 210.5t71 82q65 0 65 -152q0 -85 -36 -267.5t-101 -310.5q39 -227 161 -227q54 0 76 52q5 12 8 12t3 -7v-3l6 -4
q-5 -48 -36.5 -75t-73.5 -27q-138 0 -193 201q-66 -84 -142 -84t-121 61q-70 -59 -142 -59q-96 0 -142 80z" />
    <glyph glyph-name="Cel.002" unicode="Cel" horiz-adv-x="1160" 
d="M826 363q-28 0 -44.5 -47.5t-16.5 -113.5q0 -13 2 -41q41 41 62 85.5t21 77.5q0 39 -24 39zM1137 671q0 84 -23 84q-29 0 -55.5 -136.5t-26.5 -296.5q0 -86 8 -150q50 113 73.5 264.5t23.5 234.5zM718 49h-1q-150 -117 -332 -117q-91 0 -164 33.5t-118 90.5t-68.5 128.5
t-23.5 151.5q0 50 18.5 105.5t52 110t84.5 104t111 87.5t136.5 60.5t156.5 22.5q79 0 153 -43t74 -91q0 -27 -8 -44t-28 -42l-75 -93q-8 -8 -17 -8q-17 0 -36 41t-19 61q0 14 9 30.5t18 25.5l9 9q31 30 36 40q0 11 -81 11q-63 0 -136.5 -21.5t-143.5 -61.5t-127 -91
t-92 -117t-35 -134q0 -71 37.5 -124t97.5 -81t121.5 -41.5t121.5 -13.5q136 0 247 72q-7 32 -7 73q0 91 40 158.5t107 67.5q56 0 56 -69q0 -48 -30.5 -112.5t-85.5 -124.5q23 -96 81 -96q74 0 132 76q-20 96 -20 219q0 131 21.5 259.5t56.5 210.5t71 82q65 0 65 -152
q0 -85 -36 -267.5t-101 -310.5q39 -227 161 -227q54 0 76 52q5 12 8 12t3 -7v-3l6 -4q-5 -48 -36.5 -75t-73.5 -27q-138 0 -193 201q-66 -84 -142 -84q-91 0 -137 87z" />
    <glyph glyph-name="Cell.002" unicode="Cell" horiz-adv-x="1364" 
d="M816 363q-28 0 -44.5 -47.5t-16.5 -113.5q0 -13 2 -41q41 41 62 85.5t21 77.5q0 39 -24 39zM1335 714q0 80 -14 80q-17 0 -37 -76t-34 -198.5t-14 -239.5q0 -70 4 -121q42 104 68 249t27 306zM1127 671q0 84 -23 84q-29 0 -55.5 -136.5t-26.5 -296.5q0 -78 7 -152
q50 113 74 265t24 236zM708 49h-1q-150 -117 -332 -117q-91 0 -164 33.5t-118 90.5t-68.5 128.5t-23.5 151.5q0 50 18.5 105.5t52 110t84.5 104t111 87.5t136.5 60.5t156.5 22.5q79 0 153 -43t74 -91q0 -27 -8 -44t-28 -42l-75 -93q-8 -8 -17 -8q-17 0 -36 41t-19 61
q0 14 9 30.5t18 25.5l9 9q31 30 36 40q0 11 -81 11q-63 0 -136.5 -21.5t-143.5 -61.5t-127 -91t-92 -117t-35 -134q0 -71 37.5 -124t97.5 -81t121.5 -41.5t121.5 -13.5q136 0 247 72q-7 32 -7 73q0 91 40 158.5t107 67.5q56 0 56 -69q0 -48 -30.5 -112.5t-85.5 -124.5
q23 -96 81 -96q77 0 137 83q-18 81 -18 214q0 134 20 262t53 208t69 80q65 0 65 -152q0 -85 -36 -268t-101 -311q22 -127 76 -127q42 0 91 85q-12 91 -12 200q0 147 20.5 293.5t54 241t68.5 94.5q70 0 70 -167q0 -192 -43.5 -365t-111.5 -290q31 -201 130 -201q43 0 68 62
q5 12 8 12t3 -7v-3l6 -4q0 -39 -29 -85t-67 -46q-114 0 -157 215q-65 -86 -122 -86q-64 0 -96 108q-68 -91 -148 -91q-91 0 -137 87z" />
    <glyph glyph-name="Cer.002" unicode="Cer" horiz-adv-x="1264" 
d="M840 324q0 39 -24 39q-31 0 -50.5 -52t-19.5 -121q0 -25 1 -38q46 42 69.5 89t23.5 83zM698 41h-1q-145 -109 -322 -109q-91 0 -164 33.5t-118 90.5t-68.5 128.5t-23.5 151.5q0 50 18.5 105.5t52 110t84.5 104t111 87.5t136.5 60.5t156.5 22.5q79 0 153 -43t74 -91
q0 -27 -8 -44t-28 -42l-75 -93q-8 -8 -17 -8q-17 0 -36 41t-19 61q0 14 9 30.5t18 25.5l9 9q31 30 36 40q0 11 -81 11q-63 0 -136.5 -21.5t-143.5 -61.5t-127 -91t-92 -117t-35 -134q0 -71 37.5 -124t97.5 -81t121.5 -41.5t121.5 -13.5q131 0 236 65q-5 32 -5 62
q0 94 44.5 169t111.5 75q56 0 56 -69q0 -50 -33 -117.5t-92 -128.5q28 -102 99 -102q46 0 80.5 41.5t50 95t24.5 121.5q-40 30 -40 97q0 33 12.5 55.5t34.5 22.5q37 0 37 -46q0 -11 -2.5 -33.5t-2.5 -31.5q0 -24 9 -24q5 0 22 10q15 10 37.5 30t39 34.5t19.5 14.5
q10 0 21.5 -14.5t11.5 -25.5l-3 -13q-18 -47 -25 -64q-32 -77 -32 -155q0 -60 14 -97t34 -37q29 0 52 74q4 13 14 20q4 3 6 3q3 0 3 -4l-1 -5q-3 -60 -34.5 -97.5t-69.5 -37.5q-35 0 -59 35t-24 104q0 92 25 184q-24 -12 -59 -12q-8 0 -12 1q-6 -46 -18.5 -89t-34.5 -88.5
t-60 -73t-86 -27.5q-96 0 -142 81z" />
    <glyph glyph-name="Cerr.002" unicode="Cerr" horiz-adv-x="1544" 
d="M840 324q0 39 -24 39q-31 0 -50.5 -52t-19.5 -121q0 -25 1 -38q46 42 69.5 89t23.5 83zM698 41h-1q-145 -109 -322 -109q-91 0 -164 33.5t-118 90.5t-68.5 128.5t-23.5 151.5q0 50 18.5 105.5t52 110t84.5 104t111 87.5t136.5 60.5t156.5 22.5q79 0 153 -43t74 -91
q0 -27 -8 -44t-28 -42l-75 -93q-8 -8 -17 -8q-17 0 -36 41t-19 61q0 14 9 30.5t18 25.5l9 9q31 30 36 40q0 11 -81 11q-63 0 -136.5 -21.5t-143.5 -61.5t-127 -91t-92 -117t-35 -134q0 -71 37.5 -124t97.5 -81t121.5 -41.5t121.5 -13.5q131 0 236 65q-5 32 -5 62
q0 94 44.5 169t111.5 75q56 0 56 -69q0 -50 -33 -117.5t-92 -128.5q28 -102 99 -102q46 0 80.5 41.5t50 95t24.5 121.5q-40 30 -40 97q0 33 12.5 55.5t34.5 22.5q37 0 37 -46q0 -11 -2.5 -33.5t-2.5 -31.5q0 -24 9 -24q5 0 22 10q15 10 37.5 30t39 34.5t19.5 14.5
q10 0 21.5 -14.5t11.5 -25.5l-3 -13q-19 -46 -28 -70.5t-18.5 -64t-9.5 -74.5q0 -43 11.5 -69.5t29.5 -26.5q29 0 56.5 81.5t43.5 188.5q-40 30 -40 97q0 33 12.5 55.5t34.5 22.5q37 0 37 -46q0 -11 -2.5 -33.5t-2.5 -31.5q0 -24 9 -24q5 0 22 10q15 10 37.5 30t39 34.5
t19.5 14.5q10 0 21.5 -14.5t11.5 -25.5l-3 -13q-20 -50 -30.5 -78.5t-20 -72.5t-9.5 -83q0 -44 10 -72t26 -28q35 0 66 83q6 15 14 20q4 3 6 3q3 0 3 -4l-1 -5q-7 -58 -39 -114t-83 -56q-67 0 -67 129q0 92 28 201q-24 -12 -59 -12q-10 0 -15 1q-3 -11 -9.5 -42t-11 -52
t-13.5 -54t-17 -55.5t-20 -48.5t-24.5 -42t-29 -26.5t-34.5 -10.5q-72 0 -72 130q0 86 24 171q-24 -12 -59 -12q-8 0 -12 1q-6 -46 -18.5 -89t-34.5 -88.5t-60 -73t-86 -27.5q-96 0 -142 81z" />
    <glyph glyph-name="Ces.002" unicode="Ces" horiz-adv-x="1166" 
d="M817 363q-29 0 -46 -47t-17 -113q0 -29 2 -43q41 41 62.5 85.5t21.5 78.5q0 37 -23 39zM703 45q-148 -113 -328 -113q-91 0 -164 33.5t-118 90.5t-68.5 128.5t-23.5 151.5q0 50 18.5 105.5t52 110t84.5 104t111 87.5t136.5 60.5t156.5 22.5q79 0 153 -43t74 -91
q0 -27 -8 -44t-28 -42l-75 -93q-8 -8 -17 -8q-17 0 -36 41t-19 61q0 14 9 30.5t18 25.5l9 9q31 30 36 40q0 11 -81 11q-63 0 -136.5 -21.5t-143.5 -61.5t-127 -91t-92 -117t-35 -134q0 -71 37.5 -124t97.5 -81t121.5 -41.5t121.5 -13.5q135 0 245 71q-5 37 -5 74
q0 91 40 158.5t107 67.5q56 0 56 -69q0 -49 -30.5 -114t-85.5 -124q23 -92 71 -92q26 0 54 29q32 32 66 117q28 68 46 141.5t22 114.5q1 15 24 28t37 13q8 0 8 -5l-1 -4q-1 -4 -2 -11.5t-3 -17t-3.5 -22t-2.5 -26.5t-2 -30t-1 -32q0 -35 31 -150.5t31 -157.5
q0 -43 -27.5 -68.5t-62.5 -25.5q-31 0 -52.5 20.5t-21.5 58.5q0 13 4.5 26.5t10 20.5t8.5 7q2 0 2 -3v-4q0 -59 39 -59q33 0 33 58q0 46 -22.5 139t-22.5 98q-5 -9 -11.5 -27.5t-16.5 -47.5t-18 -49q-34 -89 -80.5 -135t-93.5 -46q-69 0 -106 85z" />
    <glyph glyph-name="Cesw.002" unicode="Cesw" horiz-adv-x="1675" 
d="M1008 35q0 -25 30 -25q44 0 44 53q0 31 -16 84q-58 -75 -58 -112zM817 363q-29 0 -46 -47t-17 -113q0 -29 2 -43q41 41 62.5 85.5t21.5 78.5q0 37 -23 39zM703 45q-148 -113 -328 -113q-91 0 -164 33.5t-118 90.5t-68.5 128.5t-23.5 151.5q0 50 18.5 105.5t52 110
t84.5 104t111 87.5t136.5 60.5t156.5 22.5q79 0 153 -43t74 -91q0 -27 -8 -44t-28 -42l-75 -93q-8 -8 -17 -8q-17 0 -36 41t-19 61q0 14 9 30.5t18 25.5l9 9q31 30 36 40q0 11 -81 11q-63 0 -136.5 -21.5t-143.5 -61.5t-127 -91t-92 -117t-35 -134q0 -71 37.5 -124t97.5 -81
t121.5 -41.5t121.5 -13.5q135 0 245 71q-5 37 -5 74q0 91 40 158.5t107 67.5q56 0 56 -69q0 -49 -30.5 -114t-85.5 -124q23 -92 71 -92q26 0 54 29q32 32 66 117q28 68 46 141.5t22 114.5q1 15 24 28t37 13q8 0 8 -5l-1 -4q-1 -4 -2 -11.5t-3 -17t-3.5 -22t-2.5 -26.5
t-2 -30t-1 -32q0 -32 21 -83q78 94 135 126q3 20 8 38q4 13 12 13q11 0 26 -3t31 -14t16 -27q0 -13 -14 -23q-3 -40 -3 -112q0 -205 40 -205q7 0 15 18.5t17 56t14.5 65t14 76.5t10.5 59v80q8 15 21 15q62 -8 62 -35q0 -3 -3 -73t-3 -118q0 -139 24 -139q11 0 27.5 32.5
t30.5 94.5t14 129q0 82 -23 164q52 21 68 21t23 -15t7 -53q0 -81 -28 -183t-66.5 -173t-67.5 -71q-69 0 -83 266q-4 -20 -11 -64t-13 -76.5t-15.5 -67.5t-23.5 -54t-32 -19q-27 0 -47.5 27t-31.5 71t-16.5 93t-5.5 101q0 45 2 65q-46 -24 -121 -109q2 -5 8 -19t8.5 -20
t7.5 -18.5t7 -20t5 -18.5t4 -20.5t1 -18.5q0 -52 -29 -81.5t-67 -29.5q-31 0 -52.5 20.5t-21.5 57.5q0 32 78 138q-30 88 -30 96q-5 -9 -11.5 -27.5t-16.5 -47.5t-18 -49q-34 -89 -80.5 -135t-93.5 -46q-69 0 -106 85z" />
    <glyph glyph-name="Cex.002" unicode="Cex" horiz-adv-x="1281" 
d="M840 324q0 39 -24 39q-32 0 -52.5 -54t-20.5 -125q0 -23 1 -34q47 42 71.5 90t24.5 84zM690 34l-1 1q-141 -103 -314 -103q-91 0 -164 33.5t-118 90.5t-68.5 128.5t-23.5 151.5q0 50 18.5 105.5t52 110t84.5 104t111 87.5t136.5 60.5t156.5 22.5q79 0 153 -43t74 -91
q0 -27 -8 -44t-28 -42l-75 -93q-8 -8 -17 -8q-17 0 -36 41t-19 61q0 14 9 30.5t18 25.5l9 9q31 30 36 40q0 11 -81 11q-63 0 -136.5 -21.5t-143.5 -61.5t-127 -91t-92 -117t-35 -134q0 -71 37.5 -124t97.5 -81t121.5 -41.5t121.5 -13.5q125 0 231 62q-3 24 -3 51
q0 98 45.5 178t113.5 80q56 0 56 -69q0 -51 -34 -120t-94 -130q28 -103 104 -103q36 0 69 52t52.5 131t19.5 158v23q35 39 63 39q26 0 29 -28q13 -111 22 -160q83 135 167 247q3 3 7 3q9 0 9 -12q0 -4 -1.5 -12t-1.5 -10l-9 -13q-8 -13 -24.5 -38t-36 -56.5t-46 -77
t-51.5 -92.5q33 -134 84 -134q8 0 20 5l16 -5q-35 -51 -72 -51q-54 0 -93 98q-49 -100 -83 -186q-7 -21 -19 -21q-10 0 -10 16q0 5 1 15t1 13l-18 21q2 3 16 30.5t39 75.5t53 97q-9 35 -22.5 97t-15.5 72q-5 -78 -25.5 -153t-63.5 -132.5t-98 -57.5q-103 0 -146 93z" />
    <glyph glyph-name="Cey.002" unicode="Cey" horiz-adv-x="1341" 
d="M816 363q-31 0 -52.5 -65t-21.5 -142v-8q48 43 73 91t25 85q0 39 -24 39zM815 4q34 0 61 38t44.5 92.5t34.5 109t41 92.5t54 38q54 0 54 -104q0 -33 -9 -110t-9 -100q0 -58 24 -58q22 0 51.5 42.5t45.5 95.5q14 48 14 226q0 3 3.5 8t8.5 5q15 0 43.5 -3.5t28.5 -7.5
q-17 -76 -21 -236q-12 -562 -278 -562q-66 0 -119.5 34t-68.5 97v1l8 16q1 2 1.5 4t0.5 3.5t1 1.5q4 0 7 -10q21 -49 63.5 -76.5t91.5 -27.5q42 0 75.5 17t55 50.5t36.5 67.5t23.5 85.5t13 85.5t9 86.5t6.5 70.5q-18 -38 -51 -76.5t-70 -38.5q-74 0 -74 143q0 45 8 116t8 81
q0 19 -7 19q-11 0 -25 -37.5t-31 -90.5t-38 -106t-54 -90.5t-71 -37.5q-76 0 -112 79q-143 -105 -318 -105q-91 0 -164 33.5t-118 90.5t-68.5 128.5t-23.5 151.5q0 50 18.5 105.5t52 110t84.5 104t111 87.5t136.5 60.5t156.5 22.5q79 0 153 -43t74 -91q0 -27 -8 -44t-28 -42
l-75 -93q-8 -8 -17 -8q-17 0 -36 41t-19 61q0 14 9 30.5t18 25.5l9 9q31 30 36 40q0 11 -81 11q-63 0 -136.5 -21.5t-143.5 -61.5t-127 -91t-92 -117t-35 -134q0 -71 37.5 -124t97.5 -81t121.5 -41.5t121.5 -13.5q129 0 235 64q-3 26 -3 55q0 62 18 119t54 95t83 38
q56 0 56 -69q0 -53 -35.5 -123.5t-98.5 -132.5q17 -80 67 -80z" />
    <glyph glyph-name="E_l" unicode="El" horiz-adv-x="1028" 
d="M947 16q43 0 68 62q5 12 8 12t3 -7v-3l6 -4q0 -39 -29 -85t-67 -46q-117 0 -136 218q-218 -250 -561 -250q-108 0 -173 49.5t-65 146.5q0 82 65.5 155.5t205.5 117.5q-53 16 -91.5 53t-38.5 81q0 55 70.5 105.5t168 82t191.5 50t150 18.5q10 0 12 -9q3 -13 11.5 -41.5
t15 -51.5t6.5 -28q0 -9 -39 -25t-74 -16q-55 0 -60 44q0 1 13.5 2.5t13.5 3.5q0 7 -17 10.5t-29 3.5q-60 0 -149 -28.5t-155.5 -69t-66.5 -69.5q0 -36 201 -36q91 0 140 6q16 0 21 -8q5 -9 15 -28.5t17 -32.5t8 -13q-1 -3 -32 -2.5t-95 -6t-128 -25.5q-122 -37 -202 -92
t-80 -125q0 -63 51 -93.5t138 -30.5q168 0 305 59.5t234 164.5v13q0 127 25 270t61.5 238t67.5 95t48 -39.5t17 -105.5q0 -105 -42.5 -236t-125.5 -245q8 -209 99 -209zM972 688q0 37 -12 37q-28 0 -65 -139.5t-46 -285.5q123 174 123 388z" />
    <glyph glyph-name="E_l_l" unicode="Ell" horiz-adv-x="1192" 
d="M1163 714q0 80 -14 80q-17 0 -37 -76t-34 -198.5t-14 -239.5q0 -70 4 -121q42 104 68 249t27 306zM917 -55q-89 0 -117 218q-218 -250 -561 -250q-108 0 -173 49.5t-65 146.5q0 82 65.5 155.5t205.5 117.5q-53 16 -91.5 53t-38.5 81q0 55 70.5 105.5t168 82t191.5 50
t150 18.5q10 0 12 -9q3 -13 11.5 -41.5t15 -51.5t6.5 -28q0 -9 -39 -25t-74 -16q-55 0 -60 44q0 1 13.5 2.5t13.5 3.5q0 7 -17 10.5t-29 3.5q-60 0 -149 -28.5t-155.5 -69t-66.5 -69.5q0 -36 201 -36q91 0 140 6q16 0 21 -8q5 -9 15 -28.5t17 -32.5t8 -13q-1 -3 -32 -2.5
t-95 -6t-128 -25.5q-122 -37 -202 -92t-80 -125q0 -63 51 -93.5t138 -30.5q168 0 305 59.5t234 164.5v13q0 127 25 270t61.5 238t67.5 95t48 -39.5t17 -105.5q0 -105 -42.5 -236t-125.5 -245v-13q0 -77 24 -146.5t68 -69.5q42 0 91 85q-12 91 -12 200q0 147 20.5 293.5
t54 241t68.5 94.5q70 0 70 -167q0 -192 -43.5 -365t-111.5 -290q31 -201 130 -201q43 0 68 62q5 12 8 12t3 -7v-3l6 -4q0 -39 -29 -85t-67 -46q-114 0 -157 215q-65 -86 -122 -86zM972 688q0 37 -12 37q-28 0 -65 -139.5t-46 -285.5q123 174 123 388z" />
    <glyph glyph-name="E_l_s" unicode="Els" horiz-adv-x="1273" 
d="M947 16q32 0 63.5 54.5t52.5 128t34 132t15 81.5q1 15 24 28t37 13q8 0 8 -5l-1 -4q-1 -4 -2 -11.5t-2.5 -17t-3.5 -22t-3 -26.5t-2 -30t-1 -32q0 -35 41 -150.5t41 -157.5q0 -54 -32 -82.5t-76 -28.5q-40 0 -69 22t-29 59q0 49 29 49q7 0 12 -2q-3 -12 -3 -23
q0 -24 14.5 -38t34.5 -14q21 0 36 15.5t15 42.5q0 48 -32 155.5t-32 112.5q-10 -57 -37 -129.5t-67.5 -131.5t-75.5 -59q-117 0 -136 218q-218 -250 -561 -250q-108 0 -173 49.5t-65 146.5q0 82 65.5 155.5t205.5 117.5q-53 16 -91.5 53t-38.5 81q0 55 70.5 105.5t168 82
t191.5 50t150 18.5q10 0 12 -9q3 -13 11.5 -41.5t15 -51.5t6.5 -28q0 -9 -39 -25t-74 -16q-55 0 -60 44q0 1 13.5 2.5t13.5 3.5q0 7 -17 10.5t-29 3.5q-60 0 -149 -28.5t-155.5 -69t-66.5 -69.5q0 -36 201 -36q91 0 140 6q16 0 21 -8q5 -9 15 -28.5t17 -32.5t8 -13
q-1 -3 -32 -2.5t-95 -6t-128 -25.5q-122 -37 -202 -92t-80 -125q0 -63 51 -93.5t138 -30.5q168 0 305 59.5t234 164.5v13q0 127 25 270t61.5 238t67.5 95t48 -39.5t17 -105.5q0 -105 -42.5 -236t-125.5 -245q8 -209 99 -209zM972 688q0 37 -12 37q-29 0 -67.5 -141
t-44.5 -285q124 175 124 389z" />
    <glyph glyph-name="E_s" unicode="Es" horiz-adv-x="982" 
d="M892 453q8 0 8 -5l-1 -4q-1 -4 -2 -11.5t-3 -17t-3.5 -22t-2.5 -26.5t-2 -30t-1 -32q0 -35 36 -117t36 -124q0 -52 -29 -81.5t-67 -29.5q-31 0 -52.5 20.5t-21.5 57.5q0 21 5 37.5t10 16.5q2 0 3 -2q5 -11 11 -32.5t11.5 -31t16.5 -9.5q44 0 44 53q0 16 -7.5 47t-15 54.5
t-20 61.5t-14.5 44q-78 -141 -268.5 -251t-350.5 -110q-97 0 -154 49t-57 151q0 82 65.5 155.5t205.5 117.5q-53 16 -91.5 53t-38.5 81q0 55 70.5 105.5t168 82t191.5 50t150 18.5q10 0 12 -9q3 -13 11.5 -41.5t15 -51.5t6.5 -28q0 -9 -39 -25t-74 -16q-55 0 -60 44
q0 1 13.5 2.5t13.5 3.5q0 7 -17 10.5t-29 3.5q-60 0 -149 -28.5t-155.5 -69t-66.5 -69.5q0 -36 201 -36q91 0 140 6q16 0 21 -8q5 -9 15 -28.5t17 -32.5t8 -13q-1 -3 -32 -2.5t-95 -6t-128 -25.5q-122 -37 -202 -92t-80 -125q0 -61 53 -92.5t140 -31.5q98 0 208.5 36
t210 108.5t143.5 164.5v21q0 60 12 86t56 26z" />
    <glyph glyph-name="Esr" unicode="Esr" horiz-adv-x="1284" 
d="M1124 249q-26 -13 -50 -13q-18 0 -33 6q-34 -37 -103 -90q21 -51 21 -88q0 -52 -29 -81.5t-67 -29.5q-31 0 -52.5 20.5t-21.5 57.5q0 41 87 110q-9 29 -45 129q-78 -141 -268.5 -251t-350.5 -110q-97 0 -154 49t-57 151q0 82 65.5 155.5t205.5 117.5q-53 16 -91.5 53
t-38.5 81q0 55 70.5 105.5t168 82t191.5 50t150 18.5q10 0 12 -9q3 -13 11.5 -41.5t15 -51.5t6.5 -28q0 -9 -39 -25t-74 -16q-55 0 -60 44q0 1 13.5 2.5t13.5 3.5q0 7 -17 10.5t-29 3.5q-60 0 -149 -28.5t-155.5 -69t-66.5 -69.5q0 -36 201 -36q91 0 140 6q16 0 21 -8
q5 -9 15 -28.5t17 -32.5t8 -13q-1 -3 -32 -2.5t-95 -6t-128 -25.5q-122 -37 -202 -92t-80 -125q0 -61 53 -92.5t140 -31.5q98 0 208.5 36t210 108.5t143.5 164.5v21q0 60 12 86t56 26q8 0 8 -5v-4q-1 -3 -2.5 -9.5t-2.5 -15t-2.5 -20t-3 -24t-2 -27.5t-0.5 -29
q0 -52 39 -140q66 49 94 77q-35 32 -35 91q0 33 12.5 55.5t34.5 22.5t32.5 -28.5t10.5 -69.5q0 -15 -2 -37q20 0 66 44.5t52 44.5q10 0 21.5 -14.5t11.5 -25.5l-3 -13q-3 -7 -13 -32.5t-13.5 -35.5t-11 -32.5t-10.5 -36.5t-6 -33t-3 -37q0 -39 11 -62.5t29 -23.5q35 0 66 83
q6 15 14 20q4 3 6 3q3 0 3 -4l-1 -5q-7 -58 -39 -114t-83 -56q-71 0 -71 121q0 76 25 168zM822 37q0 -12 7 -19.5t17 -7.5q44 0 44 53q0 18 -7 48q-61 -46 -61 -74z" />
    <glyph glyph-name="Ess" unicode="Ess" horiz-adv-x="1206" 
d="M831 270q-78 -141 -268.5 -251t-350.5 -110q-97 0 -154 49t-57 151q0 82 65.5 155.5t205.5 117.5q-53 16 -91.5 53t-38.5 81q0 55 70.5 105.5t168 82t191.5 50t150 18.5q10 0 12 -9q3 -13 11.5 -41.5t15 -51.5t6.5 -28q0 -9 -39 -25t-74 -16q-55 0 -60 44q0 1 13.5 2.5
t13.5 3.5q0 7 -17 10.5t-29 3.5q-60 0 -149 -28.5t-155.5 -69t-66.5 -69.5q0 -36 201 -36q91 0 140 6q16 0 21 -8q5 -9 15 -28.5t17 -32.5t8 -13q-1 -3 -32 -2.5t-95 -6t-128 -25.5q-122 -37 -202 -92t-80 -125q0 -61 53 -92.5t140 -31.5q98 0 208.5 36t210 108.5
t143.5 164.5v21q0 60 12 86t56 26q8 0 8 -5l-1 -4q-1 -4 -2 -11.5t-3 -17t-3.5 -22t-2.5 -26.5t-2 -30t-1 -32q0 -12 2 -24t8 -29t8.5 -24t13 -30.5t11.5 -26.5q112 75 124 119q-8 31 -8 68q0 29 7 54q4 14 29.5 28t48.5 14q1 0 4 -0.5t4 -0.5q8 0 8 -5l-7 -18
q-7 -18 -18.5 -46.5t-18.5 -49.5q-1 -10 -1 -31q0 -33 40.5 -148t40.5 -158q0 -54 -32 -82.5t-76 -28.5q-40 0 -69 22t-29 59q0 49 29 49q7 0 12 -2q-3 -12 -3 -23q0 -24 14.5 -38t34.5 -14t35.5 15.5t15.5 42.5q0 31 -10 74.5t-29 106t-20 64.5q-42 -50 -115 -98
q18 -49 18 -80q0 -52 -29 -81.5t-67 -29.5q-31 0 -52.5 20.5t-21.5 57.5q0 40 88 104q-7 26 -23 73.5t-21 61.5zM820 37q0 -12 7 -19.5t17 -7.5q44 0 44 53q0 21 -6 43q-62 -43 -62 -69z" />
    <glyph glyph-name="Esw" unicode="Esw" horiz-adv-x="1480" 
d="M1377 440q53 21 68 21q16 0 23 -15t7 -53q0 -81 -28 -183t-66.5 -173t-67.5 -71q-69 0 -83 266q-4 -20 -11 -64t-13 -76.5t-15.5 -67.5t-23.5 -54t-32 -19q-27 0 -47.5 27t-31.5 71t-16.5 93t-5.5 101q0 45 2 65q-48 -25 -121 -108q1 -3 8 -18.5t9 -20.5t7 -18.5t7 -21
t5 -18.5t4 -20.5t1 -18.5q0 -52 -29 -81.5t-67 -29.5q-31 0 -52.5 20.5t-21.5 57.5q0 32 78 138q-32 93 -33 101q-78 -141 -269 -251t-350 -110q-97 0 -154 49t-57 151q0 82 65.5 155.5t205.5 117.5q-53 16 -91.5 53t-38.5 81q0 55 70.5 105.5t168 82t191.5 50t150 18.5
q10 0 12 -9q3 -13 11.5 -41.5t15 -51.5t6.5 -28q0 -9 -39 -25t-74 -16q-55 0 -60 44q0 1 13.5 2.5t13.5 3.5q0 7 -17 10.5t-29 3.5q-60 0 -149 -28.5t-155.5 -69t-66.5 -69.5q0 -36 201 -36q91 0 140 6q16 0 21 -8q5 -9 15 -28.5t17 -32.5t8 -13q-1 -3 -32 -2.5t-95 -6
t-128 -25.5q-122 -37 -202 -92t-80 -125q0 -61 53 -92.5t140 -31.5q98 0 208.5 36t210 108.5t143.5 164.5v21q0 60 12 86t56 26q8 0 8 -5l-1 -4q-1 -4 -2 -11.5t-3 -17t-3.5 -22t-2.5 -26.5t-2 -30t-1 -32q0 -32 21 -83q80 96 134 125q3 21 8 39q4 13 12 13q11 0 26 -3
t31 -14t16 -27q0 -13 -14 -23q-3 -40 -3 -112q0 -205 40 -205q7 0 15 18.5t17 56t14.5 65t14 76.5t10.5 59v80q8 15 21 15q62 -8 62 -35q0 -3 -3 -73t-3 -118q0 -139 24 -139q11 0 27.5 32.5t30.5 94.5t14 129q0 82 -23 164zM813 35q0 -25 30 -25q44 0 44 53q0 31 -16 84
q-58 -75 -58 -112z" />
    <glyph glyph-name="G_n" unicode="Gn" horiz-adv-x="1298" 
d="M1070 280q0 -26 -4 -75t-4 -60q7 16 24.5 58t30 70t32.5 61.5t40 52.5q5 3 8 3q9 0 27.5 -13.5t18.5 -21.5q0 -3 -1 -5q-35 -78 -35 -205q0 -44 13 -72t35 -28q20 0 45 26q2 1 4 1q3 0 3 -3q0 -31 -26 -56t-56 -25t-51 27.5t-29 70.5t-11 73.5t-3 58.5
q-21 -23 -38.5 -68.5t-34 -108.5t-21.5 -78q0 -10 -15 -10q-8 0 -17.5 4t-10.5 8q-2 5 -10.5 7t-8.5 8t1 9q2 9 12 139q1 9 3 31.5t3.5 44t1.5 39.5q0 55 -89 55q-31 0 -77 -6q-1 0 -3.5 -0.5t-3.5 -0.5l-15 -2q7 -38 7 -75q0 -96 -53 -164.5t-134 -100t-179 -31.5
q-83 0 -162 24t-143.5 68t-104 114t-39.5 156q0 103 42.5 190t113.5 146.5t165 101t196 61t208 19.5q65 0 116.5 -30.5t51.5 -85.5q0 -10 -43 -35.5t-83 -38.5q-12 -5 -30 -5q-52 0 -61 81q-28 9 -60 9q-92 0 -190 -33t-180 -90t-135 -142t-53 -180q0 -66 50.5 -114.5
t126.5 -71t165 -22.5q92 0 172.5 23.5t134 74.5t53.5 120q0 13 -3 28q-61 -5 -161.5 -23t-137.5 -18q-49 0 -78.5 21.5t-42.5 75.5q3 10 9 10q2 0 7 -3q15 -15 53 -15q45 0 220.5 31t261.5 31q182 0 182 -116z" />
    <glyph glyph-name="G_y" unicode="Gy" horiz-adv-x="1264" 
d="M1020 280q0 -7 -5.5 -76.5t-5.5 -110.5q0 -91 24 -91q22 0 51.5 42.5t45.5 95.5q14 48 14 226q0 3 3.5 8t8.5 5q15 0 43.5 -3.5t28.5 -7.5q-17 -76 -21 -236q-8 -410 -158 -525q-49 -37 -120 -37q-66 0 -119.5 34t-68.5 97v1l8 16q1 2 1.5 4t0.5 3.5t1 1.5q4 0 7 -10
q21 -49 63.5 -76.5t91.5 -27.5q54 0 98 34q31 25 53 66.5t33.5 94.5t17 95.5t10 98t7.5 74.5q-18 -38 -51 -76.5t-70 -38.5q-72 0 -72 130q0 16 1.5 50t1.5 51q0 50 -12 77.5t-46 27.5q-31 0 -77 -8q7 -38 7 -75q0 -96 -53 -164.5t-134 -100t-179 -31.5q-83 0 -162 24
t-143.5 68t-104 114t-39.5 156q0 103 42.5 190t113.5 146.5t165 101t196 61t208 19.5q65 0 116.5 -30.5t51.5 -85.5q0 -10 -43 -35.5t-83 -38.5q-12 -5 -30 -5q-52 0 -61 81q-28 9 -60 9q-92 0 -190 -33t-180 -90t-135 -142t-53 -180q0 -66 50.5 -114.5t126.5 -71t165 -22.5
q92 0 172.5 23.5t134 74.5t53.5 120q0 13 -3 28q-61 -5 -161.5 -23t-137.5 -18q-49 0 -78.5 21.5t-42.5 75.5q3 10 9 10q2 0 7 -3q15 -15 53 -15q47 0 210 31t240 31q164 0 164 -116z" />
    <glyph glyph-name="Okl.001" unicode="Okl" horiz-adv-x="1254" 
d="M843 123q-1 0 -3.5 -4.5t-2.5 -5.5q-8 -19 -8 -95l4 -70q0 -17 -7 -17q-2 0 -7 3q-8 6 -32.5 20.5t-29.5 19.5q3 109 24 319q-36 -23 -79 -39q-34 -151 -118 -251.5t-200 -100.5q-84 0 -151 37t-108 99.5t-62.5 140.5t-21.5 165q0 114 34 219t106 185.5t170 105.5
q9 3 11 3t2 -2q0 -6 -8 -8q-18 -7 -23 -10t-5.5 -7.5t-4.5 -9.5q-90 -37 -142 -171.5t-52 -295.5q0 -107 23.5 -195.5t76.5 -146.5t129 -58q77 0 133 77t83 198h-16q-144 0 -243.5 98t-99.5 277q0 97 52 163t143 66q79 0 140 -34t97.5 -92.5t55 -131t18.5 -155.5
q0 -67 -12 -135q43 18 76 43q60 554 155 554q35 0 53 -34t18 -91q0 -140 -48 -248t-130 -177q-4 -36 -10 -105q43 82 87.5 124.5t83.5 42.5q22 0 33.5 -13t11.5 -35q0 -47 -46.5 -104t-127.5 -91q18 -44 57.5 -77.5t85.5 -33.5q53 0 102 70q-7 64 -7 145q0 140 20.5 279.5
t54.5 230t69 90.5q58 0 58 -146q0 -124 -41 -297t-102 -301q25 -223 128 -223q43 0 68 62q5 12 8 12t3 -7v-3l6 -4q0 -39 -29 -85t-67 -46q-118 0 -159 219q-61 -92 -116 -92q-24 0 -47 14.5t-39 32.5t-33 47t-24.5 45.5t-17.5 40.5zM595 422q0 103 -22 187t-71.5 139.5
t-119.5 55.5q-47 0 -74 -45t-27 -115q0 -186 86.5 -284.5t212.5 -100.5q15 88 15 163zM1265 677q0 78 -22 78q-18 0 -38.5 -76t-35 -196.5t-14.5 -234.5q0 -39 1 -57q48 106 78.5 249t30.5 237zM962 714q0 41 -13 41q-67 0 -112 -382q125 130 125 341zM828 167
q67 33 105 72.5t38 63.5q0 16 -18 16q-35 0 -80 -64t-45 -88z" />
    <glyph glyph-name="Oll.001" unicode="Oll" horiz-adv-x="1197" 
d="M945 -4q42 0 91 85q-12 91 -12 200q0 147 20.5 293.5t54 241t68.5 94.5q70 0 70 -167q0 -192 -43.5 -365t-111.5 -290q31 -201 130 -201q43 0 68 62q5 12 8 12t3 -7v-3l6 -4q0 -39 -29 -85t-67 -46q-114 0 -157 215q-65 -86 -122 -86q-95 0 -118 229q-73 -77 -161 -85
q-46 -86 -112 -136.5t-147 -50.5q-84 0 -151 37t-108 99.5t-62.5 140.5t-21.5 165q0 114 34 219t106 185.5t170 105.5q9 3 11 3t2 -2q0 -6 -8 -8q-18 -7 -23 -10t-5.5 -7.5t-4.5 -9.5q-90 -37 -142 -171.5t-52 -295.5q0 -107 23.5 -195.5t76.5 -146.5t129 -58q105 0 172 144
q-108 21 -185.5 93.5t-112 162.5t-34.5 187q0 123 56.5 207.5t155.5 84.5q79 0 140 -34t97.5 -92.5t55 -131t18.5 -155.5q0 -158 -61 -296q78 11 141 96q-2 52 -2 85q0 134 20 262t53 208t69 80q69 0 69 -125q0 -90 -41 -237t-112 -253q6 -123 29.5 -183t58.5 -60zM595 422
q0 103 -22 187t-71.5 139.5t-119.5 55.5q-52 0 -81.5 -61.5t-29.5 -155.5q0 -68 16.5 -137.5t48.5 -134t86 -114t123 -68.5q50 127 50 289zM1168 714q0 80 -14 80q-17 0 -37 -76t-34 -198.5t-14 -239.5q0 -70 4 -121q42 104 68 249t27 306zM937 755q-29 0 -55.5 -136.5
t-26.5 -296.5v-12q46 96 72 212.5t26 174.5t-16 58z" />
    <glyph glyph-name="Ols.001" unicode="Ols" horiz-adv-x="1250" 
d="M941 854q69 0 69 -125q0 -101 -49 -264.5t-135 -266.5q10 -182 98 -182q32 0 63.5 54.5t52.5 128t34 132t15 81.5q1 15 24 28t37 13q8 0 8 -5l-1 -4q-1 -4 -2 -11.5t-3 -17t-3.5 -22t-2.5 -26.5t-2 -30t-1 -32q0 -35 41 -150.5t41 -157.5q0 -54 -32 -82.5t-76 -28.5
q-40 0 -69 22t-29 59q0 49 29 49q7 0 12 -2q-3 -12 -3 -23q0 -24 14.5 -38t34.5 -14t35.5 15.5t15.5 42.5q0 48 -32 155.5t-32 112.5q-10 -57 -37 -129.5t-67.5 -131.5t-75.5 -59q-113 0 -132 207q-64 -56 -138 -63q-46 -86 -112 -136.5t-147 -50.5q-84 0 -151 37t-108 99.5
t-62.5 140.5t-21.5 165q0 114 34 219t106 185.5t170 105.5q7 3 11 3q3 0 3 -2t-9 -8q-18 -7 -23 -10t-5.5 -7.5t-4.5 -9.5q-90 -37 -142 -171.5t-52 -295.5q0 -107 23.5 -195.5t76.5 -146.5t129 -58q105 0 172 144q-108 21 -185.5 93.5t-112 162.5t-34.5 187
q0 123 56.5 207.5t155.5 84.5q79 0 140 -34t97.5 -92.5t55 -131t18.5 -155.5q0 -158 -61 -296q64 10 118 69v41q0 128 27 276t65.5 246.5t70.5 98.5zM271 587q0 -68 16.5 -137.5t48.5 -134t86 -114t123 -68.5q50 127 50 289q0 103 -22 187t-71.5 139.5t-119.5 55.5
q-52 0 -81.5 -61.5t-29.5 -155.5zM937 755q-31 0 -71 -171.5t-41 -329.5q60 99 94 236.5t34 206.5q0 58 -16 58z" />
    <glyph glyph-name="Orl.001" unicode="Orl" horiz-adv-x="1259" 
d="M818 251l-3 2q-36 30 -36 94q0 33 12.5 55.5t34.5 22.5q37 0 37 -46q0 -11 -2.5 -33.5t-2.5 -31.5q0 -24 9 -24q5 0 22 10q15 10 37.5 30t39 34.5t19.5 14.5q10 0 21.5 -14.5t11.5 -25.5l-3 -13q-18 -47 -25 -64q-32 -77 -32 -143q0 -112 51 -112q41 0 84 64
q-24 103 -24 242q0 130 20 255.5t53.5 205.5t69.5 80q65 0 65 -152q0 -82 -34.5 -274t-98.5 -323q42 -208 157 -208q54 0 76 52q5 12 8 12t3 -7v-3l6 -4q-5 -48 -36.5 -75t-73.5 -27q-129 0 -183 192q-64 -77 -129 -77q-35 0 -57 30t-22 91q0 76 25 168q-24 -12 -59 -12
q-9 0 -14 1l-8 3q-22 -71 -73.5 -109t-120.5 -43q-46 -86 -112 -136.5t-147 -50.5q-84 0 -151 37t-108 99.5t-62.5 140.5t-21.5 165q0 114 34 219t106 185.5t170 105.5q9 3 11 3t2 -2q0 -6 -8 -8q-18 -7 -23 -10t-5.5 -7.5t-4.5 -9.5q-90 -37 -142 -171.5t-52 -295.5
q0 -107 23.5 -195.5t76.5 -146.5t129 -58q105 0 172 144q-108 21 -185.5 93.5t-112 162.5t-34.5 187q0 123 56.5 207.5t155.5 84.5q79 0 140 -34t97.5 -92.5t55 -131t18.5 -155.5q0 -161 -61 -297q105 13 158 129zM595 422q0 103 -22 187t-71.5 139.5t-119.5 55.5
q-52 0 -81.5 -61.5t-29.5 -155.5q0 -68 16.5 -137.5t48.5 -134t86 -114t123 -68.5q50 127 50 289zM1231 671q0 84 -23 84q-29 0 -55.5 -136.5t-26.5 -296.5q0 -97 9 -164q46 118 71 284.5t25 228.5z" />
    <glyph glyph-name="U_l" unicode="Ul" horiz-adv-x="1322" 
d="M1012 -2q50 0 95 67q-23 78 -23 195q0 125 23.5 266t57 233t60.5 92q35 0 53 -51.5t18 -138.5q0 -132 -37.5 -292t-100.5 -275q28 -78 83 -78q43 0 68 62q5 12 8 12t3 -7v-3l6 -4q0 -39 -29 -85t-67 -46q-74 0 -111 86q-77 -105 -164 -105q-122 0 -122 270q0 79 8 149
q-14 -43 -22 -65.5t-27.5 -72t-35 -79t-41 -69.5t-49.5 -62.5t-56 -39t-65 -16.5q-133 0 -133 214q0 90 28.5 274t28.5 236q0 74 -32 74q-59 0 -130 -51t-127.5 -124t-94.5 -158t-38 -149q0 -30 9 -54q9 -16 9 -25q0 -4 -7 -4q-23 0 -40.5 38.5t-17.5 71.5q0 69 37.5 155
t95.5 159.5t135 124t148 50.5q150 0 150 -172q0 -16 -19.5 -166.5t-19.5 -237.5q0 -179 76 -179q42 0 83.5 50t72 120t57 156t41 145.5t21.5 100.5q19 102 24 112q4 7 9 10.5t8 3.5h3q27 5 42 5q13 0 13 -9q0 -4 -1 -9t-2.5 -18t-3.5 -22q-46 -287 -46 -441q0 -224 88 -224z
M1252 647q0 78 -18 78q-30 0 -64 -153t-34 -302q0 -76 10 -132q48 107 77 257.5t29 251.5z" />
    <glyph glyph-name="U_l_l" unicode="Ull" horiz-adv-x="1474" 
d="M1241 16q38 0 73 58q-13 91 -13 208q0 147 20.5 293.5t54 241t68.5 94.5q70 0 70 -167q0 -138 -46 -330.5t-109 -324.5q31 -201 130 -201q43 0 68 62q5 12 8 12t3 -7v-3l6 -4q0 -39 -29 -85t-67 -46q-113 0 -155 207q-50 -79 -93 -79q-73 0 -112 87q-75 -106 -163 -106
q-122 0 -122 270q0 79 8 149q-14 -43 -22 -65.5t-27.5 -72t-35 -79t-41 -69.5t-49.5 -62.5t-56 -39t-65 -16.5q-133 0 -133 214q0 90 28.5 274t28.5 236q0 74 -32 74q-59 0 -130 -51t-127.5 -124t-94.5 -158t-38 -149q0 -30 9 -54q9 -16 9 -25q0 -4 -7 -4q-23 0 -40.5 38.5
t-17.5 71.5q0 69 37.5 155t95.5 159.5t135 124t148 50.5q150 0 150 -172q0 -16 -19.5 -166.5t-19.5 -237.5q0 -179 76 -179q42 0 83.5 50t72 120t57 156t41 145.5t21.5 100.5q19 102 24 112q4 7 9 10.5t8 3.5h3q27 5 42 5q13 0 13 -9q0 -4 -1 -9t-2.5 -18t-3.5 -22
q-46 -287 -46 -441q0 -224 88 -224q50 0 94 67q-25 85 -25 209q0 190 46.5 383.5t87.5 193.5q36 0 54.5 -54t18.5 -145q0 -131 -35 -288t-96 -270q28 -78 84 -78zM1243 639q0 86 -19 86q-29 0 -60.5 -146t-31.5 -294q0 -91 12 -147q45 104 72 251t27 250zM1445 715
q0 80 -14 80q-17 0 -37 -76t-34 -198.5t-14 -239.5q0 -78 5 -128q42 114 68 282.5t26 279.5z" />
    <glyph glyph-name="U_l_s" unicode="Uls" horiz-adv-x="1547" 
d="M1225 851q35 0 53 -51.5t18 -138.5q0 -138 -40.5 -305.5t-108.5 -282.5q24 -57 74 -57q32 0 63.5 54.5t52.5 128t34 132t15 81.5q1 15 24 28t37 13q8 0 8 -5l-1 -4q-1 -4 -2 -11.5t-2.5 -17t-3.5 -22t-3 -26.5t-2 -30t-1 -32q0 -35 41 -150.5t41 -157.5q0 -54 -32 -82.5
t-76 -28.5q-40 0 -69 22t-29 59q0 49 29 49q7 0 12 -2q-3 -12 -3 -23q0 -24 14.5 -38t34.5 -14q21 0 36 15.5t15 42.5q0 48 -32 155.5t-32 112.5q-10 -57 -37 -129.5t-67.5 -131.5t-75.5 -59q-66 0 -101 72q-73 -91 -154 -91q-122 0 -122 270q0 79 8 149q-14 -43 -22 -65.5
t-27.5 -72t-35 -79t-41 -69.5t-49.5 -62.5t-56 -39t-65 -16.5q-133 0 -133 214q0 90 28.5 274t28.5 236q0 74 -32 74q-59 0 -130 -51t-127.5 -124t-94.5 -158t-38 -149q0 -30 9 -54q9 -16 9 -25q0 -4 -7 -4q-23 0 -40.5 38.5t-17.5 71.5q0 69 37.5 155t95.5 159.5t135 124
t148 50.5q150 0 150 -172q0 -16 -19.5 -166.5t-19.5 -237.5q0 -179 76 -179q42 0 83.5 50t72 120t57 156t41 145.5t21.5 100.5q19 102 24 112q4 7 9 10.5t8 3.5h3q27 5 42 5q13 0 13 -9q0 -4 -1 -9t-2.5 -18t-3.5 -22q-46 -287 -46 -441q0 -224 88 -224q43 0 84 52
q-25 74 -25 198q0 127 25 270t61.5 238t67.5 95zM1252 647q0 78 -18 78q-31 0 -71.5 -167.5t-40.5 -318.5q0 -73 12 -127q52 104 85 265.5t33 269.5z" />
    <glyph glyph-name="Ur" unicode="Ur" horiz-adv-x="1385" 
d="M1166 237q-11 0 -15 1q-6 -52 -27.5 -121.5t-62 -132.5t-84.5 -63q-57 0 -100.5 70t-43.5 205q0 79 8 149q-14 -43 -22 -65.5t-27.5 -72t-35 -79t-41 -69.5t-49.5 -62.5t-56 -39t-65 -16.5q-133 0 -133 214q0 90 28.5 274t28.5 236q0 74 -32 74q-59 0 -130 -51
t-127.5 -124t-94.5 -158t-38 -149q0 -30 9 -54q9 -16 9 -25q0 -4 -7 -4q-23 0 -40.5 38.5t-17.5 71.5q0 69 37.5 155t95.5 159.5t135 124t148 50.5q150 0 150 -172q0 -16 -19.5 -166.5t-19.5 -237.5q0 -179 76 -179q42 0 83.5 50t72 120t57 156t41 145.5t21.5 100.5
q19 102 24 112q4 7 9 10.5t8 3.5h3q27 5 42 5q13 0 13 -9q0 -4 -1 -9t-2.5 -18t-3.5 -22q-14 -86 -31 -251t-17 -229q0 -75 23.5 -135t54.5 -60q28 0 52 50q54 111 68 217q-34 31 -34 92q0 33 12.5 55.5t34.5 22.5q37 0 37 -46q0 -11 -2.5 -33.5t-2.5 -31.5q0 -24 9 -24
q5 0 22 10q15 10 37.5 30t39 34.5t19.5 14.5q10 0 21.5 -14.5t11.5 -25.5l-3 -13q-21 -43 -39 -106.5t-18 -100.5q0 -39 11 -62.5t29 -23.5q35 0 66 83q6 15 14 20q5 3 6 3q3 0 3 -4l-1 -5q-7 -58 -39 -114t-83 -56q-71 0 -71 121q0 76 25 168q-24 -12 -59 -12z" />
    <glyph glyph-name="Url" unicode="Url" horiz-adv-x="1564" 
d="M970 663q-14 -85 -31 -251t-17 -229q0 -75 23.5 -135t54.5 -60q28 0 52 50q54 113 67 215q-35 31 -35 94q0 33 12.5 55.5t34.5 22.5q37 0 37 -46q0 -11 -2.5 -33.5t-2.5 -31.5q0 -24 9 -24q5 0 22 10q15 10 37.5 30t39 34.5t19.5 14.5q10 0 21.5 -14.5t11.5 -25.5l-3 -13
q-21 -43 -39 -106.5t-18 -100.5q0 -112 51 -112q41 0 84 64q-24 103 -24 242q0 130 20 255.5t53.5 205.5t69.5 80q65 0 65 -152q0 -82 -34.5 -274t-98.5 -323q42 -208 157 -208q54 0 76 52q5 12 8 12t3 -7v-3l6 -4q-5 -48 -36.5 -75t-73.5 -27q-129 0 -183 192
q-64 -77 -129 -77q-35 0 -57 30t-22 91q0 76 25 168q-24 -12 -59 -12q-9 0 -14 1q-6 -52 -27.5 -122t-61.5 -132.5t-84 -62.5q-57 0 -100.5 70t-43.5 205q0 79 8 149q-14 -43 -22 -65.5t-27.5 -72t-35 -79t-41 -69.5t-49.5 -62.5t-56 -39t-65 -16.5q-133 0 -133 214
q0 90 28.5 274t28.5 236q0 74 -32 74q-59 0 -130 -51t-127.5 -124t-94.5 -158t-38 -149q0 -30 9 -54q9 -16 9 -25q0 -4 -7 -4q-23 0 -40.5 38.5t-17.5 71.5q0 69 37.5 155t95.5 159.5t135 124t148 50.5q150 0 150 -172q0 -16 -19.5 -166.5t-19.5 -237.5q0 -179 76 -179
q42 0 83.5 50t72 120t57 156t41 145.5t21.5 100.5q19 102 24 112q4 7 9 10.5t8 3.5h3q27 5 42 5q13 0 13 -9q0 -4 -1 -9t-2.5 -18t-3.5 -22zM1431 322q0 -97 9 -164q46 118 71 284.5t25 228.5q0 84 -23 84q-29 0 -55.5 -136.5t-26.5 -296.5z" />
    <glyph glyph-name="Urr" unicode="Urr" horiz-adv-x="1659" 
d="M1447 278q-10 0 -15 1q-3 -11 -9.5 -42t-11 -52t-13.5 -54t-17 -55.5t-20 -48.5t-24.5 -42t-29 -26.5t-34.5 -10.5q-72 0 -72 130q0 86 24 171q-24 -12 -59 -12q-11 0 -15 1q-6 -52 -27.5 -121.5t-62 -132.5t-84.5 -63q-57 0 -100.5 70t-43.5 205q0 79 8 149
q-14 -43 -22 -65.5t-27.5 -72t-35 -79t-41 -69.5t-49.5 -62.5t-56 -39t-65 -16.5q-133 0 -133 214q0 90 28.5 274t28.5 236q0 74 -32 74q-59 0 -130 -51t-127.5 -124t-94.5 -158t-38 -149q0 -30 9 -54q9 -16 9 -25q0 -4 -7 -4q-23 0 -40.5 38.5t-17.5 71.5q0 69 37.5 155
t95.5 159.5t135 124t148 50.5q150 0 150 -172q0 -16 -19.5 -166.5t-19.5 -237.5q0 -179 76 -179q42 0 83.5 50t72 120t57 156t41 145.5t21.5 100.5q19 102 24 112q4 7 9 10.5t8 3.5h3q27 5 42 5q13 0 13 -9q0 -4 -1 -9t-2.5 -18t-3.5 -22q-7 -45 -14.5 -115t-17.5 -178
t-14 -148q-2 -26 -2 -39q0 -75 23.5 -135t54.5 -60q28 0 52 50q54 111 68 217q-34 31 -34 92q0 33 12.5 55.5t34.5 22.5q37 0 37 -46q0 -11 -2.5 -33.5t-2.5 -31.5q0 -24 9 -24q5 0 22 10q15 10 37.5 30t39 34.5t19.5 14.5q10 0 21.5 -14.5t11.5 -25.5l-3 -13
q-18 -47 -25 -64q-31 -75 -31 -145q0 -43 11.5 -69.5t29.5 -26.5q29 0 56.5 81.5t43.5 188.5q-40 30 -40 97q0 33 12.5 55.5t34.5 22.5q37 0 37 -46q0 -11 -2.5 -33.5t-2.5 -31.5q0 -24 9 -24q5 0 22 10q15 10 37.5 30t39 34.5t19.5 14.5q10 0 21.5 -14.5t11.5 -25.5l-3 -13
q-18 -47 -25 -64q-35 -83 -35 -170q0 -44 10 -72t26 -28q35 0 66 83q6 15 14 20q5 3 6 3q3 0 3 -4l-1 -5q-7 -58 -39 -114t-83 -56q-67 0 -67 129q0 92 28 201q-24 -12 -59 -12z" />
    <glyph glyph-name="Urs" unicode="Urs" horiz-adv-x="1600" 
d="M1410 143q-59 -180 -138 -180q-72 0 -72 122q0 79 24 164q-24 -12 -59 -12q-10 0 -14 1q-6 -52 -27.5 -121.5t-62 -132.5t-84.5 -63q-57 0 -100.5 70t-43.5 205q0 79 8 149q-14 -43 -22 -65.5t-27.5 -72t-35 -79t-41 -69.5t-49.5 -62.5t-56 -39t-65 -16.5
q-133 0 -133 214q0 90 28.5 274t28.5 236q0 74 -32 74q-59 0 -130 -51t-127.5 -124t-94.5 -158t-38 -149q0 -30 9 -54q9 -16 9 -25q0 -4 -7 -4q-23 0 -40.5 38.5t-17.5 71.5q0 69 37.5 155t95.5 159.5t135 124t148 50.5q150 0 150 -172q0 -16 -19.5 -166.5t-19.5 -237.5
q0 -179 76 -179q42 0 83.5 50t72 120t57 156t41 145.5t21.5 100.5q19 102 24 112q4 7 9 10.5t8 3.5h3q27 5 42 5q13 0 13 -9q0 -4 -1 -9q-16 -100 -35 -272t-19 -248q0 -75 23.5 -135t54.5 -60q28 0 52 50q54 113 67 216q-34 31 -34 93q0 33 12.5 55.5t34.5 22.5
q37 0 37 -46q0 -11 -2.5 -33.5t-2.5 -31.5q0 -24 9 -24q5 0 22 10q15 10 37.5 30t39 34.5t19.5 14.5q10 0 21.5 -14.5t11.5 -25.5l-3 -13q-21 -43 -38.5 -105t-17.5 -98q0 -39 11.5 -63t29.5 -24q33 0 69.5 95.5t55 176.5t21.5 106q1 15 24 28t37 13q8 0 8 -5l-1 -4
q-1 -4 -2 -11.5t-2.5 -17t-3.5 -22t-3 -26.5t-2 -30t-1 -32q0 -35 34.5 -138.5t34.5 -145.5q0 -49 -32 -77t-75 -28q-38 0 -64.5 21.5t-26.5 60.5q0 13 4 28t9 23.5t8 8.5t3 -2t-0.5 -6.5t-0.5 -6.5q0 -33 17.5 -54t39.5 -21q21 0 35 20.5t14 61.5q0 48 -25 129t-25 86
q-13 -24 -46 -124z" />
    <glyph glyph-name="Us" unicode="Us" horiz-adv-x="1313" 
d="M987 16q36 0 73 72q34 68 61 175.5t31 148.5q1 15 24 28t37 13q8 0 8 -5l-1 -4q-1 -4 -2 -11.5t-2.5 -17t-3.5 -22t-3 -26.5t-2 -30t-1 -32q0 -35 41 -150.5t41 -157.5q0 -54 -32 -82.5t-76 -28.5q-40 0 -69 22t-29 59q0 49 29 49q7 0 12 -2q-3 -12 -3 -23
q0 -24 14.5 -38t34.5 -14q21 0 36 15.5t15 42.5q0 48 -32 155.5t-32 112.5q-19 -102 -72 -206q-66 -129 -131 -129q-52 0 -86 78t-34 188q0 79 8 149q-14 -43 -22 -65.5t-27.5 -72t-35 -79t-41 -69.5t-49.5 -62.5t-56 -39t-65 -16.5q-133 0 -133 214q0 90 28.5 274t28.5 236
q0 74 -32 74q-59 0 -130 -51t-127.5 -124t-94.5 -158t-38 -149q0 -30 9 -54q9 -16 9 -25q0 -4 -7 -4q-23 0 -40.5 38.5t-17.5 71.5q0 69 37.5 155t95.5 159.5t135 124t148 50.5q150 0 150 -172q0 -16 -19.5 -166.5t-19.5 -237.5q0 -179 76 -179q42 0 83.5 50t72 120t57 156
t41 145.5t21.5 100.5q19 102 24 112q4 7 9 10.5t8 3.5h3q27 5 42 5q13 0 13 -9q0 -4 -1 -9t-2.5 -18t-3.5 -22q-46 -287 -46 -441q0 -206 63 -206z" />
    <glyph glyph-name="Usr" unicode="Usr" horiz-adv-x="1605" 
d="M1445 249q-26 -13 -50 -13q-18 0 -33 6q-34 -37 -103 -90q21 -57 21 -88q0 -52 -29 -81.5t-67 -29.5q-31 0 -52.5 20.5t-21.5 57.5q0 41 87 110q-6 22 -16.5 51t-17.5 47.5t-7 25.5q-19 -102 -72 -206q-66 -129 -131 -129q-52 0 -86 78t-34 188q0 79 8 149
q-14 -43 -22 -65.5t-27.5 -72t-35 -79t-41 -69.5t-49.5 -62.5t-56 -39t-65 -16.5q-133 0 -133 214q0 90 28.5 274t28.5 236q0 74 -32 74q-59 0 -130 -51t-127.5 -124t-94.5 -158t-38 -149q0 -30 9 -54q9 -16 9 -25q0 -4 -7 -4q-23 0 -40.5 38.5t-17.5 71.5q0 69 37.5 155
t95.5 159.5t135 124t148 50.5q150 0 150 -172q0 -16 -19.5 -166.5t-19.5 -237.5q0 -179 76 -179q42 0 83.5 50t72 120t57 156t41 145.5t21.5 100.5q19 102 24 112q4 7 9 10.5t8 3.5h3q27 5 42 5q13 0 13 -9q0 -4 -1 -9t-2.5 -18t-3.5 -22q-46 -287 -46 -441q0 -206 63 -206
q36 0 73 72q34 68 61 175.5t31 148.5q1 15 24 28t37 13q8 0 8 -5l-1 -4q0 -4 -1.5 -11.5t-3 -17t-2.5 -22t-2.5 -26.5t-2 -30t-0.5 -32q0 -8 1 -16.5t4 -18.5t5 -16.5t6.5 -19t7 -17.5t8.5 -19.5t8 -18.5q68 52 93 77q-35 32 -35 91q0 33 12.5 55.5t34.5 22.5t32.5 -28.5
t10.5 -69.5q0 -15 -2 -37q20 0 66 44.5t52 44.5q10 0 21.5 -14.5t11.5 -25.5l-3 -13q-18 -47 -25 -64q-32 -77 -32 -143q0 -39 11 -62.5t29 -23.5q35 0 66 83q6 15 14 20q5 3 6 3q3 0 3 -4l-1 -5q-7 -58 -39 -114t-83 -56q-71 0 -71 121q0 76 25 168zM1211 63q0 18 -7 48
q-61 -46 -61 -74q0 -12 7 -19.5t17 -7.5q44 0 44 53z" />
    <glyph glyph-name="Uss" unicode="Uss" horiz-adv-x="1530" 
d="M1159 265h-3q-19 -102 -72 -206q-66 -129 -131 -129q-52 0 -86 78t-34 188q0 79 8 149q-14 -43 -22 -65.5t-27.5 -72t-35 -79t-41 -69.5t-49.5 -62.5t-56 -39t-65 -16.5q-133 0 -133 214q0 90 28.5 274t28.5 236q0 74 -32 74q-59 0 -130 -51t-127.5 -124t-94.5 -158
t-38 -149q0 -30 9 -54q9 -16 9 -25q0 -4 -7 -4q-23 0 -40.5 38.5t-17.5 71.5q0 69 37.5 155t95.5 159.5t135 124t148 50.5q150 0 150 -172q0 -16 -19.5 -166.5t-19.5 -237.5q0 -179 76 -179q42 0 83.5 50t72 120t57 156t41 145.5t21.5 100.5q19 102 24 112q4 7 9 10.5t8 3.5
h3q27 5 42 5q13 0 13 -9q0 -4 -1 -9t-2.5 -18t-3.5 -22q-46 -287 -46 -441q0 -206 63 -206q36 0 73 72q34 68 61 175.5t31 148.5q1 15 24 28t37 13q8 0 8 -5l-1 -4q-1 -4 -2 -11.5t-2.5 -17t-3.5 -22t-3 -26.5t-2 -30t-1 -32q0 -10 2 -21.5t4.5 -20.5t8.5 -23.5t9 -21.5
t10.5 -24t10.5 -23q55 37 86.5 64.5t38.5 54.5q-8 31 -8 68q0 29 7 54q4 14 29.5 28t48.5 14q1 0 4 -0.5t4 -0.5q8 0 8 -5l-7 -18q-7 -18 -18.5 -46.5t-18.5 -49.5q-1 -10 -1 -31q0 -33 40.5 -148t40.5 -158q0 -54 -32 -82.5t-76 -28.5q-40 0 -69 22t-29 59q0 49 29 49
q7 0 12 -2q-3 -12 -3 -23q0 -24 14.5 -38t34.5 -14t35.5 15.5t15.5 42.5q0 31 -10 74.5t-29 106t-20 64.5q-40 -46 -115 -98q18 -49 18 -80q0 -52 -29 -81.5t-67 -29.5q-31 0 -52.5 20.5t-21.5 57.5q0 40 88 104q-6 23 -16.5 53t-17 50t-6.5 27zM1144 37q0 -12 7 -19.5
t17 -7.5q44 0 44 53q0 21 -6 43q-62 -43 -62 -69z" />
    <glyph glyph-name="Usw" unicode="Usw" horiz-adv-x="1802" 
d="M1699 440q53 21 68 21q16 0 23 -15t7 -53q0 -81 -28 -183t-66.5 -173t-67.5 -71q-69 0 -83 266q-4 -20 -11 -64t-13 -76.5t-15.5 -67.5t-23.5 -54t-32 -19q-27 0 -47.5 27t-31.5 71t-16.5 93t-5.5 101q0 45 2 65q-46 -24 -121 -109q41 -90 41 -135q0 -52 -29 -81.5
t-67 -29.5q-31 0 -52.5 20.5t-21.5 57.5q0 32 78 138q-30 88 -30 96q-19 -102 -72 -206q-66 -129 -131 -129q-52 0 -86 78t-34 188q0 79 8 149q-14 -43 -22 -65.5t-27.5 -72t-35 -79t-41 -69.5t-49.5 -62.5t-56 -39t-65 -16.5q-133 0 -133 214q0 90 28.5 274t28.5 236
q0 74 -32 74q-59 0 -130 -51t-127.5 -124t-94.5 -158t-38 -149q0 -30 9 -54q9 -16 9 -25q0 -4 -7 -4q-23 0 -40.5 38.5t-17.5 71.5q0 69 37.5 155t95.5 159.5t135 124t148 50.5q150 0 150 -172q0 -16 -19.5 -166.5t-19.5 -237.5q0 -179 76 -179q42 0 83.5 50t72 120t57 156
t41 145.5t21.5 100.5q19 102 24 112q4 7 9 10.5t8 3.5h3q27 5 42 5q13 0 13 -9q0 -4 -1 -9t-2.5 -18t-3.5 -22q-46 -287 -46 -441q0 -206 63 -206q36 0 73 72q34 68 61 175.5t31 148.5q1 15 24 28t37 13q8 0 8 -5l-1 -4q-1 -4 -2 -11.5t-2.5 -17t-3.5 -22t-3 -26.5t-2 -30
t-1 -32q0 -32 21 -83q82 97 135 125q3 21 8 39q4 13 12 13q11 0 26 -3t31 -14t16 -27q0 -13 -14 -23q-3 -40 -3 -112q0 -205 40 -205q7 0 15 18.5t17 56t14.5 65t14 76.5t10.5 59v80q8 15 21 15q62 -8 62 -35q0 -3 -3 -73t-3 -118q0 -139 24 -139q11 0 27.5 32.5t30.5 94.5
t14 129q0 82 -23 164zM1135 35q0 -25 30 -25q44 0 44 53q0 31 -16 84q-58 -75 -58 -112z" />
    <glyph glyph-name="aacute_n" unicode="&#xe1;n" horiz-adv-x="736" 
d="M246 642q71 -13 71 -45q0 -35 -74.5 -71.5t-164.5 -40.5l3 18q34 5 94 45t71 94zM300 -37q-32 0 -56 30.5t-31 93.5q-21 -56 -48.5 -90t-55.5 -34q-49 0 -74 45t-25 114q0 101 45 189.5t112 88.5q74 0 86 -80q43 -12 43 -25q0 -9 -7 -79.5t-7 -111.5q0 -91 32 -91
q25 0 46.5 54.5t34 121t26.5 125.5t25 65q24 15 47 15q21 0 22 -18q2 -33 2 -113q0 -92 -1 -118q7 16 24.5 58t30 70t32.5 61.5t40 52.5q5 3 8 3q9 0 27.5 -13.5t18.5 -21.5q0 -3 -1 -5q-35 -78 -35 -205q0 -42 9.5 -73.5t24.5 -31.5q21 0 43 61q2 1 4 1q3 0 3 -3
q0 -34 -19.5 -68t-47.5 -34q-30 0 -50.5 26t-29 67.5t-11 70.5t-2.5 57q-21 -23 -38.5 -68.5t-34 -108.5t-21.5 -78q0 -10 -15 -10q-8 0 -17.5 4t-10.5 8q-2 5 -10.5 7t-8.5 8t1 9q2 9 12 139q0 1 2.5 34t5 72.5t2.5 58.5q0 16 -2 16q-9 0 -21.5 -54t-25.5 -119t-40.5 -119
t-62.5 -54zM98 12q23 0 43 22t32.5 52.5t22.5 72.5t15 71.5t8 59.5q-25 32 -48 32q-42 0 -72.5 -84.5t-30.5 -155.5q0 -70 30 -70z" />
    <glyph glyph-name="aacute_s" unicode="&#xe1;s" horiz-adv-x="595" 
d="M246 642q71 -13 71 -45q0 -35 -74.5 -71.5t-164.5 -40.5l3 18q34 5 94 45t71 94zM167 400q74 0 86 -80q43 -12 43 -25q0 -9 -7 -79.5t-7 -111.5q0 -85 21 -85q29 0 83 137q28 68 46 141.5t22 114.5q1 15 24 28t37 13q8 0 8 -5l-1 -4q-1 -4 -2 -11.5t-2.5 -17t-3.5 -22
t-3 -26.5t-2 -30t-1 -32q0 -35 31 -150.5t31 -157.5q0 -43 -26.5 -69t-60.5 -26q-29 0 -49.5 20.5t-20.5 58.5q0 13 3.5 26.5t7.5 21t6 7.5q1 0 1 -3v-5q0 -59 33 -59q41 0 41 64q0 47 -23.5 137t-23.5 95q-5 -9 -11.5 -27.5t-16.5 -47.5t-18 -49q-26 -67 -67.5 -119.5
t-75.5 -52.5q-49 0 -57 115q-48 -121 -103 -121q-49 0 -74 45t-25 114q0 101 45 189.5t112 88.5zM98 12q23 0 43 22t32.5 52.5t22.5 72.5t15 71.5t8 59.5q-25 32 -48 32q-42 0 -72.5 -84.5t-30.5 -155.5q0 -70 30 -70z" />
    <glyph glyph-name="al" unicode="al" horiz-adv-x="549" 
d="M167 400q74 0 86 -80q43 -12 43 -25q0 -9 -7 -79.5t-7 -111.5q0 -91 32 -91q45 0 88 74q-13 91 -13 201q0 210 40.5 388t92.5 178q65 0 65 -152q0 -120 -39.5 -285t-98.5 -289q28 -241 136 -241q43 0 68 62q5 12 8 12t3 -7v-3l6 -4q0 -39 -29 -85t-67 -46
q-124 0 -167 236q-58 -89 -107 -89q-32 0 -56 30.5t-31 93.5q-21 -56 -48.5 -90t-55.5 -34q-49 0 -74 45t-25 114q0 101 45 189.5t112 88.5zM518 755q-26 0 -51.5 -149.5t-25.5 -317.5q0 -56 3 -110q43 111 70.5 254.5t27.5 237.5q0 85 -24 85zM98 12q23 0 43 22t32.5 52.5
t22.5 72.5t15 71.5t8 59.5q-25 32 -48 32q-42 0 -72.5 -84.5t-30.5 -155.5q0 -70 30 -70z" />
    <glyph glyph-name="all" unicode="all" horiz-adv-x="778" 
d="M522 854q65 0 65 -152q0 -120 -39.5 -285.5t-98.5 -289.5q22 -131 77 -131q42 0 91 85q-12 92 -12 200q0 147 20.5 293.5t54 241t68.5 94.5q70 0 70 -167q0 -192 -43.5 -365t-111.5 -290q31 -201 130 -201q43 0 68 62q5 12 8 12t3 -7v-3l6 -4q0 -39 -29 -85t-67 -46
q-114 0 -157 215q-65 -86 -122 -86q-64 0 -96 107q-58 -89 -107 -89q-32 0 -56 30.5t-31 93.5q-21 -56 -48.5 -90t-55.5 -34q-49 0 -74 45t-25 114q0 101 45 189.5t112 88.5q74 0 86 -80q43 -12 43 -25q0 -9 -7 -79.5t-7 -111.5q0 -91 32 -91q43 0 85 70q-19 87 -19 221
t20 262t53 208t69 80zM542 670q0 85 -24 85q-29 0 -55.5 -136.5t-26.5 -296.5q0 -91 7 -148q43 111 71 256t28 240zM749 714q0 80 -14 80q-17 0 -37 -76t-34 -198.5t-14 -239.5q0 -70 4 -121q42 104 68 249t27 306zM98 12q23 0 43 22t32.5 52.5t22.5 72.5t15 71.5t8 59.5
q-25 32 -48 32q-42 0 -72.5 -84.5t-30.5 -155.5q0 -70 30 -70z" />
    <glyph glyph-name="alls" unicode="alls" horiz-adv-x="1084" 
d="M167 400q74 0 86 -80q43 -12 43 -25q0 -9 -7 -79.5t-7 -111.5q0 -91 32 -91q43 0 85 70q-19 87 -19 221t20 262t53 208t69 80q65 0 65 -152q0 -120 -39.5 -285.5t-98.5 -289.5q22 -131 77 -131q44 0 93 88q-14 81 -14 197q0 147 20.5 293.5t54 241t68.5 94.5
q70 0 70 -167q0 -193 -44.5 -367t-112.5 -291q18 -113 61 -113q34 0 77 71t77 173.5t47 195.5q0 15 23.5 28t37.5 13q8 0 8 -5l-1 -4q-1 -4 -2 -11.5t-3 -17t-3.5 -22t-2.5 -26.5t-2 -30t-1 -32q0 -35 41 -150.5t41 -157.5q0 -54 -32 -82.5t-76 -28.5q-40 0 -69 22t-29 59
q0 49 29 49q7 0 12 -2q-3 -12 -3 -23q0 -24 14.5 -38t34.5 -14t35.5 15.5t15.5 42.5q0 48 -32 155.5t-32 112.5q-45 -156 -102.5 -244t-108.5 -88q-56 0 -86 104q-68 -92 -127 -92q-64 0 -96 107q-58 -89 -107 -89q-32 0 -56 30.5t-31 93.5q-21 -56 -48.5 -90t-55.5 -34
q-49 0 -74 45t-25 114q0 101 45 189.5t112 88.5zM542 670q0 85 -24 85q-29 0 -55.5 -136.5t-26.5 -296.5q0 -91 7 -148q43 111 71 256t28 240zM749 714q0 80 -14 80q-17 0 -37 -76t-34 -198.5t-14 -239.5q0 -76 4 -123q42 104 68 249.5t27 307.5zM98 12q23 0 43 22
t32.5 52.5t22.5 72.5t15 71.5t8 59.5q-25 32 -48 32q-42 0 -72.5 -84.5t-30.5 -155.5q0 -70 30 -70z" />
    <glyph glyph-name="allsquote" unicode="all&#x2019;s" horiz-adv-x="1135" 
d="M542 670q0 85 -24 85q-29 0 -55.5 -136.5t-26.5 -296.5q0 -91 7 -148q43 111 71 256t28 240zM749 714q0 80 -14 80q-28 0 -56.5 -171t-28.5 -349q0 -61 5 -114q41 105 67 249t27 305zM920 719q36 37 61 37q35 0 35 -66q0 -100 -64 -198l-15 10q18 36 18 105q0 76 -35 112
zM232 296q17 -2 39.5 -11t22.5 -20q0 -10 -6.5 -71.5t-6.5 -96.5q0 -84 33 -84q43 0 85 70q-19 87 -19 221t20 262t53 208t69 80q65 0 65 -152q0 -120 -39.5 -285.5t-98.5 -289.5q22 -131 77 -131q46 0 98 96q-19 82 -19 202q0 140 20 283t53.5 238t69.5 95q70 0 70 -167
q0 -191 -43 -362.5t-110 -288.5q23 -96 73 -96q46 0 105 74t101.5 172.5t49.5 169.5q1 15 24 28t37 13q8 0 8 -5l-1 -4q-1 -4 -2 -11.5t-2.5 -17t-3.5 -22t-3 -26.5t-2 -30t-1 -32q0 -35 31 -150.5t31 -157.5t-29 -65.5t-67 -23.5q-37 0 -63.5 22t-26.5 62q0 21 5.5 43.5
t10.5 22.5q3 0 3 -2v-3q0 -39 19 -64.5t41 -25.5q16 0 26.5 14.5t10.5 42.5q0 48 -21 144t-21 101q-45 -147 -115.5 -237t-136.5 -90q-72 0 -110 108q-71 -101 -133 -101q-64 0 -96 107q-58 -89 -107 -89q-32 0 -55.5 30t-29.5 92q-50 -122 -106 -122q-49 0 -74 45t-25 114
q0 136 55 208.5t121 72.5q36 0 59.5 -23t23.5 -63v-2q-21 10 -42 10q-44 0 -82 -41.5t-57.5 -95t-19.5 -98.5q0 -33 8 -55.5t22 -22.5q28 0 53 33t40.5 75t26.5 93q4 31 14 83z" />
    <glyph glyph-name="als" unicode="als" horiz-adv-x="865" 
d="M167 400q74 0 86 -80q43 -12 43 -25q0 -9 -7 -79.5t-7 -111.5q0 -91 32 -91q47 0 94 84q-19 85 -19 191q0 210 40.5 388t92.5 178q65 0 65 -152q0 -116 -38 -278t-95 -286q25 -122 85 -122q32 0 63.5 54.5t52.5 128t34 132t15 81.5q1 15 24 28t37 13q8 0 8 -5l-1 -4
q-1 -4 -2 -11.5t-2.5 -17t-3.5 -22t-3 -26.5t-2 -30t-1 -32q0 -35 41 -150.5t41 -157.5q0 -54 -32 -82.5t-76 -28.5q-40 0 -69 22t-29 59q0 49 29 49q7 0 12 -2q-3 -12 -3 -23q0 -24 14.5 -38t34.5 -14q21 0 36 15.5t15 42.5q0 48 -32 155.5t-32 112.5q-10 -57 -37 -129.5
t-67.5 -131.5t-75.5 -59q-76 0 -112 120q-63 -102 -116 -102q-32 0 -56 30.5t-31 93.5q-21 -56 -48.5 -90t-55.5 -34q-49 0 -74 45t-25 114q0 101 45 189.5t112 88.5zM441 288q0 -53 6 -104q41 110 68 252t27 234q0 85 -24 85q-26 0 -51.5 -149.5t-25.5 -317.5zM98 12
q23 0 43 22t32.5 52.5t22.5 72.5t15 71.5t8 59.5q-25 32 -48 32q-42 0 -72.5 -84.5t-30.5 -155.5q0 -70 30 -70z" />
    <glyph glyph-name="alsquote" unicode="al&#x2019;s" horiz-adv-x="914" 
d="M389 288q0 210 40.5 388t92.5 178q65 0 65 -152q0 -119 -39 -283t-97 -287q20 -126 77 -126q44 0 100.5 72t97 167.5t47.5 166.5q1 15 24 28t37 13q8 0 8 -5l-1 -4q-1 -4 -2 -11.5t-3 -17t-3.5 -22t-2.5 -26.5t-2 -30t-1 -32q0 -35 31 -150.5t31 -157.5t-29 -65.5
t-67 -23.5q-37 0 -63.5 22t-26.5 62q0 21 5.5 43.5t10.5 22.5q3 0 3 -2v-3q0 -39 19 -64.5t41 -25.5q16 0 26.5 14.5t10.5 42.5q0 48 -21 144t-21 101q-45 -148 -115.5 -239t-135.5 -91q-77 0 -112 127q-60 -99 -114 -99q-32 0 -56 30.5t-31 93.5q-21 -56 -48.5 -90
t-55.5 -34q-49 0 -74 45t-25 114q0 101 45 189.5t112 88.5q74 0 86 -80q43 -12 43 -25q0 -9 -7 -79.5t-7 -111.5q0 -91 32 -91q47 0 92 81q-17 79 -17 194zM542 670q0 85 -24 85q-26 0 -51.5 -149.5t-25.5 -317.5q0 -68 4 -109q42 110 69.5 254t27.5 237zM98 12q23 0 43 22
t32.5 52.5t22.5 72.5t15 71.5t8 59.5q-25 32 -48 32q-42 0 -72.5 -84.5t-30.5 -155.5q0 -70 30 -70zM699 719q36 37 61 37q35 0 35 -66q0 -100 -64 -198l-15 10q18 36 18 105q0 76 -35 112z" />
    <glyph glyph-name="an" unicode="an" horiz-adv-x="736" 
d="M300 -37q-32 0 -56 30.5t-31 93.5q-21 -56 -48.5 -90t-55.5 -34q-49 0 -74 45t-25 114q0 101 45 189.5t112 88.5q74 0 86 -80q43 -12 43 -25q0 -9 -7 -79.5t-7 -111.5q0 -91 32 -91q25 0 46.5 54.5t34 121t26.5 125.5t25 65q24 15 47 15q21 0 22 -18q2 -33 2 -113
q0 -92 -1 -118q7 16 24.5 58t30 70t32.5 61.5t40 52.5q5 3 8 3q9 0 27.5 -13.5t18.5 -21.5q0 -3 -1 -5q-35 -78 -35 -205q0 -42 9.5 -73.5t24.5 -31.5q21 0 43 61q2 1 4 1q3 0 3 -3q0 -34 -19.5 -68t-47.5 -34q-30 0 -50.5 26t-29 67.5t-11 70.5t-2.5 57
q-21 -23 -38.5 -68.5t-34 -108.5t-21.5 -78q0 -10 -15 -10q-8 0 -17.5 4t-10.5 8q-2 5 -10.5 7t-8.5 8t1 9q2 9 12 139q0 1 2.5 34t5 72.5t2.5 58.5q0 16 -2 16q-9 0 -21.5 -54t-25.5 -119t-40.5 -119t-62.5 -54zM98 12q23 0 43 22t32.5 52.5t22.5 72.5t15 71.5t8 59.5
q-25 32 -48 32q-42 0 -72.5 -84.5t-30.5 -155.5q0 -70 30 -70z" />
    <glyph glyph-name="anl" unicode="anl" horiz-adv-x="958" 
d="M167 400q74 0 86 -80q43 -12 43 -25q0 -9 -7 -79.5t-7 -111.5q0 -91 32 -91q25 0 46.5 54.5t34 121t26.5 125.5t25 65q24 15 47 15q21 0 22 -18q2 -33 2 -113q0 -92 -1 -118q7 16 24.5 58t30 70t32.5 61.5t40 52.5q5 3 8 3q9 0 27.5 -13.5t18.5 -21.5q0 -3 -1 -5
q-35 -78 -35 -205q0 -136 55 -136q37 0 76 62q-24 103 -24 242q0 130 20 255.5t53.5 205.5t69.5 80q65 0 65 -152q0 -80 -35 -272.5t-98 -323.5q40 -209 157 -209q54 0 76 52q5 12 8 12t3 -7v-3l6 -4q-5 -48 -36.5 -75t-73.5 -27q-128 0 -182 189q-52 -72 -100 -72
q-50 0 -83 69t-33 165v22q-21 -23 -38.5 -68.5t-34 -108.5t-21.5 -78q0 -10 -15 -10q-8 0 -17.5 4t-10.5 8q-2 5 -10.5 7t-8.5 8t1 9q2 9 12 139q0 1 2.5 34t5 72.5t2.5 58.5q0 16 -2 16q-9 0 -21.5 -54t-25.5 -119t-40.5 -119t-62.5 -54q-32 0 -56 30.5t-31 93.5
q-21 -56 -48.5 -90t-55.5 -34q-49 0 -74 45t-25 114q0 101 45 189.5t112 88.5zM930 671q0 84 -23 84q-29 0 -55.5 -136.5t-26.5 -296.5q0 -97 9 -164q46 118 71 284.5t25 228.5zM98 12q23 0 43 22t32.5 52.5t22.5 72.5t15 71.5t8 59.5q-25 32 -48 32q-42 0 -72.5 -84.5
t-30.5 -155.5q0 -70 30 -70z" />
    <glyph glyph-name="ann" unicode="ann" horiz-adv-x="1104" 
d="M514 145q7 16 24.5 58t30 70t32.5 61.5t40 52.5q5 3 8 3q9 0 27.5 -13.5t18.5 -21.5q0 -3 -1 -5q-34 -87 -34 -246q0 -92 18 -92q25 0 49 62t50 167.5t33 125.5l1.5 6t2.5 3l3 1.5t4 1t5 0.5q8 1 19.5 3.5t19.5 4.5t11 2q9 0 9 -86q0 -45 -0.5 -94t-0.5 -64q7 16 24.5 58
t30 70t32.5 61.5t40 52.5q5 3 8 3q9 0 27.5 -13.5t18.5 -21.5q0 -3 -1 -5q-35 -78 -35 -205q0 -42 9.5 -73.5t24.5 -31.5q21 0 43 61q2 1 4 1q3 0 3 -3q0 -34 -19.5 -68t-47.5 -34q-30 0 -50.5 26t-29 67.5t-11 70.5t-2.5 57q-22 -23 -38.5 -61.5t-35 -103.5t-20.5 -71
q-1 -10 -15 -10q-10 0 -21 1.5t-18.5 3.5t-7.5 3q20 118 20 282q0 44 -1 66l-5 -25q-11 -51 -16.5 -76t-17.5 -73.5t-23 -75t-25.5 -57t-32 -44.5t-36.5 -14q-70 0 -77 255q-21 -23 -38.5 -68.5t-34 -108.5t-21.5 -78q0 -10 -15 -10q-8 0 -17.5 4t-10.5 8q-2 5 -10.5 7
t-8.5 8t1 9q2 9 12 139q0 1 3 34t5.5 72.5t2.5 58.5q0 16 -2 16q-9 0 -21.5 -54t-25.5 -119t-40.5 -119t-62.5 -54q-32 0 -56 30.5t-31 93.5q-21 -56 -48.5 -90t-55.5 -34q-49 0 -74 45t-25 114q0 101 45 189.5t112 88.5q74 0 86 -80q43 -12 43 -25q0 -9 -7 -79.5t-7 -111.5
q0 -91 32 -91q25 0 46.5 54.5t34 121t26.5 125.5t25 65q24 15 47 15q21 0 22 -18q2 -33 2 -113q0 -66 -2 -118zM97 12q23 0 43 22t32.5 52.5t22.5 72.5t15 71.5t8 59.5q-25 32 -48 32q-42 0 -72.5 -84.5t-30.5 -155.5q0 -70 30 -70z" />
    <glyph glyph-name="anr" unicode="anr" horiz-adv-x="1058" 
d="M649 399q5 3 8 3q9 0 27.5 -13.5t18.5 -21.5q0 -3 -1 -5q-35 -78 -35 -205q0 -44 13 -72t35 -28q28 0 48.5 60.5t31.5 147.5q-36 30 -36 94q0 33 12.5 55.5t34.5 22.5q37 0 37 -46q0 -11 -2.5 -33.5t-2.5 -31.5q0 -24 9 -24q5 0 22 10q15 10 37.5 30t39 34.5t19.5 14.5
q10 0 21.5 -14.5t11.5 -25.5l-3 -13q-18 -47 -25 -64q-32 -77 -32 -143q0 -39 11 -62.5t29 -23.5q35 0 66 83q6 15 14 20q4 3 6 3q3 0 3 -4l-1 -5q-7 -58 -39 -114t-83 -56q-71 0 -71 121q0 76 25 168q-24 -12 -59 -12q-9 0 -14 1q-9 -45 -20 -88t-28 -90t-40.5 -76
t-48.5 -29q-90 0 -97 263q-22 -23 -40.5 -70t-38.5 -118t-23 -79q-3 -10 -13 -10q-8 0 -17.5 4t-10.5 8q-2 5 -10.5 7t-8.5 8t1 9q2 9 12 139q0 1 2.5 34t5 72.5t2.5 58.5q0 16 -2 16q-9 0 -21.5 -54t-25.5 -119t-40.5 -119t-62.5 -54q-32 0 -56 30.5t-31 93.5
q-21 -56 -48.5 -90t-55.5 -34q-49 0 -74 45t-25 114q0 101 45 189.5t112 88.5q74 0 86 -80q43 -12 43 -25q0 -9 -7 -79.5t-7 -111.5q0 -91 32 -91q25 0 46.5 54.5t34 121t26.5 125.5t25 65q24 15 47 15q21 0 22 -18q2 -33 2 -113q0 -87 -1 -113q5 11 25.5 59t32.5 74.5
t33.5 61.5t41.5 54zM98 12q23 0 43 22t32.5 52.5t22.5 72.5t15 71.5t8 59.5q-25 32 -48 32q-42 0 -72.5 -84.5t-30.5 -155.5q0 -70 30 -70z" />
    <glyph glyph-name="ans" unicode="ans" horiz-adv-x="995" 
d="M660 117q0 -116 34 -116q4 0 8.5 3.5t9.5 10.5t9.5 14.5t10 19t9.5 21t9.5 23t9 22t9 22.5t7.5 19q28 68 46 141.5t22 114.5q1 15 24 28t37 13q8 0 8 -5l-1 -4q-1 -4 -2 -11.5t-2.5 -17t-3.5 -22t-3 -26.5t-2 -30t-1 -32q0 -35 31 -150.5t31 -157.5t-29 -65.5t-67 -23.5
q-37 0 -63.5 22t-26.5 62q0 21 5.5 43.5t10.5 22.5q3 0 3 -2v-3q0 -39 19 -64.5t41 -25.5q16 0 26.5 14.5t10.5 42.5q0 48 -21 144t-21 101q-5 -9 -11.5 -27.5t-16.5 -47.5t-18 -49q-17 -43 -27 -66.5t-27 -56t-33 -48t-33 -15.5q-90 0 -97 263q-21 -23 -38.5 -68.5
t-34 -108.5t-21.5 -78q0 -10 -15 -10q-8 0 -17.5 4t-10.5 8q-2 5 -10.5 7t-8.5 8t1 9q2 9 12 139q0 1 2.5 34t5 72.5t2.5 58.5q0 16 -2 16q-9 0 -21.5 -54t-25.5 -119t-40.5 -119t-62.5 -54q-32 0 -56 30.5t-31 93.5q-21 -56 -48.5 -90t-55.5 -34q-49 0 -74 45t-25 114
q0 101 45 189.5t112 88.5q74 0 86 -80q43 -12 43 -25q0 -9 -7 -79.5t-7 -111.5q0 -91 32 -91q25 0 46.5 54.5t34 121t26.5 125.5t25 65q24 15 47 15q21 0 22 -18q2 -33 2 -113q0 -92 -1 -118q7 16 24.5 58t30 70t32.5 61.5t40 52.5q5 3 8 3q9 0 27.5 -13.5t18.5 -21.5
q0 -3 -1 -5q-36 -82 -36 -233zM98 12q23 0 43 22t32.5 52.5t22.5 72.5t15 71.5t8 59.5q-25 32 -48 32q-42 0 -72.5 -84.5t-30.5 -155.5q0 -70 30 -70z" />
    <glyph glyph-name="ansquote" unicode="an&#x2019;s" horiz-adv-x="1015" 
d="M779 699q36 37 61 37q35 0 35 -66q0 -100 -64 -198l-15 10q18 36 18 105q0 76 -35 112zM232 296q17 -2 39.5 -11t22.5 -20q0 -10 -6.5 -71.5t-6.5 -96.5q0 -84 33 -84q25 0 46.5 54.5t34 121t26.5 125.5t25 65q24 15 47 15q21 0 22 -18q2 -33 2 -113q0 -92 -1 -118
q7 16 24.5 58t30 70t32.5 61.5t40 52.5q5 3 8 3q9 0 27.5 -13.5t18.5 -21.5q0 -3 -1 -5q-36 -81 -36 -240q0 -109 34 -109q31 0 76 101.5t74 198.5t30 111q1 15 24 28t37 13q8 0 8 -5l-1 -4q-1 -4 -2 -11.5t-2.5 -17t-3.5 -22t-3 -26.5t-2 -30t-1 -32q0 -35 31 -150.5
t31 -157.5t-29 -65.5t-67 -23.5q-37 0 -63.5 22t-26.5 62q0 21 5.5 43.5t10.5 22.5q3 0 3 -2v-3q0 -39 19 -64.5t41 -25.5q16 0 26.5 14.5t10.5 42.5q0 48 -21 144t-21 101q-5 -10 -24.5 -55.5t-37.5 -82.5t-42 -80t-48 -67.5t-44 -24.5q-90 0 -97 263q-21 -23 -38.5 -68.5
t-34 -108.5t-21.5 -78q0 -10 -15 -10q-8 0 -17.5 4t-10.5 8q-2 5 -10.5 7t-8.5 8t1 9q2 9 12 139q0 1 2.5 34t5 72.5t2.5 58.5q0 16 -2 16q-9 0 -21.5 -54t-25.5 -119t-40.5 -119t-62.5 -54q-32 0 -55.5 30t-29.5 92q-50 -122 -106 -122q-49 0 -74 45t-25 114
q0 136 55 208.5t121 72.5q36 0 59.5 -23t23.5 -63v-2q-21 10 -42 10q-44 0 -82 -41.5t-57.5 -95t-19.5 -98.5q0 -33 8 -55.5t22 -22.5q28 0 53 33t40.5 75t26.5 93q4 31 14 83z" />
    <glyph glyph-name="ar" unicode="ar" horiz-adv-x="670" 
d="M516 249q-29 -13 -57 -13q-3 0 -6 0.5t-4 0.5q-6 -54 -22 -112.5t-50.5 -110t-76.5 -51.5q-32 0 -56 30.5t-31 93.5q-21 -56 -48.5 -90t-55.5 -34q-49 0 -74 45t-25 114q0 101 45 189.5t112 88.5q74 0 86 -80q43 -12 43 -25q0 -9 -7 -79.5t-7 -111.5q0 -91 32 -91
q79 0 105 235q-42 29 -42 99q0 33 12.5 55.5t34.5 22.5q37 0 37 -46q0 -11 -2.5 -33.5t-2.5 -31.5q0 -24 9 -24q5 0 22 10q15 10 37.5 30t39 34.5t19.5 14.5q10 0 21.5 -14.5t11.5 -25.5l-3 -13q-18 -47 -25 -64q-32 -77 -32 -155q0 -60 14 -97t34 -37q29 0 52 74
q4 13 14 20q4 3 6 3q3 0 3 -4l-1 -5q-3 -60 -34.5 -97.5t-69.5 -37.5q-35 0 -59 35t-24 104q0 92 25 184zM98 12q23 0 43 22t32.5 52.5t22.5 72.5t15 71.5t8 59.5q-25 32 -48 32q-42 0 -72.5 -84.5t-30.5 -155.5q0 -70 30 -70z" />
    <glyph glyph-name="arl" unicode="arl" horiz-adv-x="857" 
d="M583 379q10 0 21.5 -14.5t11.5 -25.5l-3 -13q-18 -47 -25 -64q-32 -77 -32 -143q0 -112 51 -112q41 0 84 64q-24 103 -24 242q0 130 20 255.5t53.5 205.5t69.5 80q65 0 65 -152q0 -82 -34.5 -274t-98.5 -323q42 -208 157 -208q54 0 76 52q5 12 8 12t3 -7v-3l6 -4
q-5 -48 -36.5 -75t-73.5 -27q-129 0 -183 192q-64 -77 -129 -77q-35 0 -57 30t-22 91q0 76 25 168q-24 -12 -59 -12h-8q-6 -54 -22 -112.5t-50.5 -110t-76.5 -51.5q-32 0 -56 30.5t-31 93.5q-21 -56 -48.5 -90t-55.5 -34q-49 0 -74 45t-25 114q0 101 45 189.5t112 88.5
q74 0 86 -80q43 -12 43 -25q0 -9 -7 -79.5t-7 -111.5q0 -91 32 -91q79 0 105 235q-42 29 -42 99q0 33 12.5 55.5t34.5 22.5q37 0 37 -46q0 -11 -2.5 -33.5t-2.5 -31.5q0 -24 9 -24q5 0 22 10q15 10 37.5 30t39 34.5t19.5 14.5zM829 671q0 84 -23 84q-29 0 -55.5 -136.5
t-26.5 -296.5q0 -97 9 -164q46 118 71 284.5t25 228.5zM98 12q23 0 43 22t32.5 52.5t22.5 72.5t15 71.5t8 59.5q-25 32 -48 32q-42 0 -72.5 -84.5t-30.5 -155.5q0 -70 30 -70z" />
    <glyph glyph-name="arls" unicode="arls" horiz-adv-x="1145" 
d="M167 400q74 0 86 -80q43 -12 43 -25q0 -9 -7 -79.5t-7 -111.5q0 -91 32 -91q79 0 105 235q-42 29 -42 99q0 33 12.5 55.5t34.5 22.5q37 0 37 -46q0 -11 -2.5 -33.5t-2.5 -31.5q0 -24 9 -24q5 0 22 10q15 10 37.5 30t39 34.5t19.5 14.5q10 0 21.5 -14.5t11.5 -25.5l-3 -13
q-18 -47 -25 -64q-32 -77 -32 -143q0 -112 51 -112q39 0 83 64q-23 86 -23 216q0 127 21 259.5t55 220t67 87.5q65 0 65 -152q0 -84 -35 -277.5t-100 -323.5q26 -85 79 -85q32 0 63.5 54.5t52.5 128t34 132t15 81.5q1 15 24 28t37 13q8 0 8 -5l-1 -4q-1 -4 -2 -11.5
t-2.5 -17t-3.5 -22t-3 -26.5t-2 -30t-1 -32q0 -35 41 -150.5t41 -157.5q0 -54 -32 -82.5t-76 -28.5q-40 0 -69 22t-29 59q0 49 29 49q7 0 12 -2q-3 -12 -3 -23q0 -24 14.5 -38t34.5 -14q21 0 36 15.5t15 42.5q0 48 -32 155.5t-32 112.5q-10 -57 -37 -129.5t-67.5 -131.5
t-75.5 -59q-69 0 -107 94q-29 -36 -64.5 -57.5t-66.5 -21.5q-35 0 -57 30t-22 91q0 76 25 168q-24 -12 -59 -12h-8q-6 -54 -22 -112.5t-50.5 -110t-76.5 -51.5q-32 0 -56 30.5t-31 93.5q-21 -56 -48.5 -90t-55.5 -34q-49 0 -74 45t-25 114q0 101 45 189.5t112 88.5zM806 755
q-28 0 -57.5 -152.5t-29.5 -307.5q0 -88 11 -147q47 118 73 288.5t26 234.5q0 84 -23 84zM98 12q23 0 43 22t32.5 52.5t22.5 72.5t15 71.5t8 59.5q-25 32 -48 32q-42 0 -72.5 -84.5t-30.5 -155.5q0 -70 30 -70z" />
    <glyph glyph-name="arlsquote" unicode="arl&#x2019;s" horiz-adv-x="1201" 
d="M819 16q46 0 101 68.5t94 160.5t46 164q1 15 24 28t37 13q8 0 8 -5l-1 -4q-1 -4 -2 -11.5t-2.5 -17t-3.5 -22t-3 -26.5t-2 -30t-1 -32q0 -35 31 -150.5t31 -157.5t-29 -65.5t-67 -23.5q-37 0 -63.5 22t-26.5 62q0 21 5.5 43.5t10.5 22.5q3 0 3 -2v-3q0 -40 19 -65t41 -25
q16 0 26.5 14.5t10.5 42.5q0 48 -20 154.5t-20 111.5q-46 -151 -118.5 -244.5t-139.5 -93.5q-69 0 -107 94q-29 -36 -64.5 -57.5t-66.5 -21.5q-35 0 -57 30t-22 91q0 76 25 168q-24 -12 -59 -12h-8q-6 -54 -22 -112.5t-50.5 -110t-76.5 -51.5q-32 0 -56 30.5t-31 93.5
q-21 -56 -48.5 -90t-55.5 -34q-49 0 -74 45t-25 114q0 101 45 189.5t112 88.5q74 0 86 -80q43 -12 43 -25q0 -9 -7 -79.5t-7 -111.5q0 -91 32 -91q79 0 105 235q-42 29 -42 99q0 33 12.5 55.5t34.5 22.5q37 0 37 -46q0 -11 -2.5 -33.5t-2.5 -31.5q0 -24 9 -24q5 0 22 10
q15 10 37.5 30t39 34.5t19.5 14.5q10 0 21.5 -14.5t11.5 -25.5l-3 -13q-18 -47 -25 -64q-32 -77 -32 -143q0 -112 51 -112q39 0 83 64q-23 86 -23 216q0 127 21 259.5t55 220t67 87.5q65 0 65 -152q0 -84 -35 -277.5t-100 -323.5q26 -85 79 -85zM829 671q0 84 -23 84
q-28 0 -57.5 -152.5t-29.5 -307.5q0 -88 11 -147q47 118 73 288.5t26 234.5zM98 12q23 0 43 22t32.5 52.5t22.5 72.5t15 71.5t8 59.5q-25 32 -48 32q-42 0 -72.5 -84.5t-30.5 -155.5q0 -70 30 -70zM991 719q36 37 61 37q35 0 35 -66q0 -100 -64 -198l-15 10q18 36 18 105
q0 76 -35 112z" />
    <glyph glyph-name="arr" unicode="arr" horiz-adv-x="950" 
d="M738 278q-10 0 -15 1q-3 -11 -9.5 -42t-11 -52t-13.5 -54t-17 -55.5t-20 -48.5t-24.5 -42t-29 -26.5t-34.5 -10.5q-72 0 -72 130q0 86 24 171q-24 -12 -59 -12h-8q-6 -54 -22 -112.5t-50.5 -110t-76.5 -51.5q-32 0 -56 30.5t-31 93.5q-21 -56 -48.5 -90t-55.5 -34
q-49 0 -74 45t-25 114q0 101 45 189.5t112 88.5q74 0 86 -80q43 -12 43 -25q0 -9 -7 -79.5t-7 -111.5q0 -91 32 -91q79 0 105 235q-42 29 -42 99q0 33 12.5 55.5t34.5 22.5q37 0 37 -46q0 -11 -2.5 -33.5t-2.5 -31.5q0 -24 9 -24q5 0 22 10q15 10 37.5 30t39 34.5t19.5 14.5
q10 0 21.5 -14.5t11.5 -25.5l-3 -13q-18 -47 -25 -64q-31 -75 -31 -145q0 -43 11.5 -69.5t29.5 -26.5q29 0 56.5 81.5t43.5 188.5q-40 30 -40 97q0 33 12.5 55.5t34.5 22.5q37 0 37 -46q0 -11 -2.5 -33.5t-2.5 -31.5q0 -24 9 -24q5 0 22 10q15 10 37.5 30t39 34.5t19.5 14.5
q10 0 21.5 -14.5t11.5 -25.5l-3 -13q-18 -47 -25 -64q-35 -83 -35 -170q0 -44 10 -72t26 -28q35 0 66 83q6 15 14 20q4 3 6 3q3 0 3 -4l-1 -5q-7 -58 -39 -114t-83 -56q-67 0 -67 129q0 92 28 201q-24 -12 -59 -12zM98 12q23 0 43 22t32.5 52.5t22.5 72.5t15 71.5t8 59.5
q-25 32 -48 32q-42 0 -72.5 -84.5t-30.5 -155.5q0 -70 30 -70z" />
    <glyph glyph-name="arry" unicode="arry" horiz-adv-x="1354" 
d="M871 33q23 0 46 53t40.5 116t45.5 116t60 53q54 0 54 -104q0 -33 -9 -110t-9 -100q0 -58 24 -58q22 0 51.5 42.5t45.5 95.5q14 48 14 226q0 3 3.5 8t8.5 5q15 0 43.5 -3.5t28.5 -7.5q-17 -76 -21 -236q-8 -410 -158 -525q-49 -37 -120 -37q-66 0 -119.5 34t-68.5 97v1
l8 16q1 2 1.5 4t0.5 3.5t1 1.5q4 0 7 -10q21 -49 63.5 -76.5t91.5 -27.5q54 0 98 34q38 31 63.5 93t33 111t15 125t9.5 90q-2 5 -5 5q-18 -38 -48.5 -74t-67.5 -36q-74 0 -74 143q0 45 8 116t8 81q0 19 -7 19q-11 0 -23.5 -37t-27.5 -89.5t-34 -104.5t-49 -89t-66 -37
q-67 0 -67 129q0 92 28 201q-24 -12 -59 -12q-11 0 -16 1q-3 -11 -9.5 -42t-11 -52t-13.5 -54t-17 -55.5t-20 -48.5t-24.5 -42t-29 -26.5t-34.5 -10.5q-72 0 -72 130q0 86 24 171q-24 -12 -59 -12h-8q-6 -54 -22 -112.5t-50.5 -110t-76.5 -51.5q-32 0 -56 30.5t-31 93.5
q-21 -56 -48.5 -90t-55.5 -34q-49 0 -74 45t-25 114q0 101 45 189.5t112 88.5q74 0 86 -80q43 -12 43 -25q0 -9 -7 -79.5t-7 -111.5q0 -91 32 -91q79 0 105 235q-42 29 -42 99q0 33 12.5 55.5t34.5 22.5q37 0 37 -46q0 -11 -2.5 -33.5t-2.5 -31.5q0 -24 9 -24q5 0 22 10
q15 10 37.5 30t39 34.5t19.5 14.5q10 0 21.5 -14.5t11.5 -25.5l-3 -13q-18 -47 -25 -64q-31 -75 -31 -145q0 -43 11.5 -69.5t29.5 -26.5q29 0 56.5 82t43.5 189q-39 30 -39 96q0 33 12.5 55.5t34.5 22.5q37 0 37 -46q0 -11 -2.5 -33.5t-2.5 -31.5q0 -24 9 -24q5 0 22 10
q15 10 37.5 30t39 34.5t19.5 14.5q10 0 21.5 -14.5t11.5 -25.5l-3 -13q-18 -47 -25 -64q-35 -83 -35 -170q0 -44 10 -72t26 -28zM98 12q23 0 43 22t32.5 52.5t22.5 72.5t15 71.5t8 59.5q-25 32 -48 32q-42 0 -72.5 -84.5t-30.5 -155.5q0 -70 30 -70z" />
    <glyph glyph-name="ars" unicode="ars" horiz-adv-x="891" 
d="M167 400q74 0 86 -80q43 -12 43 -25q0 -9 -7 -79.5t-7 -111.5q0 -91 32 -91q81 0 105 241q-35 33 -35 99q0 64 40 64q37 0 37 -43q0 -10 -2 -30t-2 -30q0 -24 9 -24q5 0 22 10q14 9 36 28.5t38.5 34.5t20.5 16q10 -1 21 -15.5t11 -24.5l-3 -13q-18 -47 -25 -64
q-31 -75 -31 -139q0 -39 11.5 -63t29.5 -24q33 0 69.5 95.5t55 176.5t21.5 106q1 15 24 28t37 13q8 0 8 -5l-1 -4q-1 -4 -2 -11.5t-3 -17t-3.5 -22t-2.5 -26.5t-2 -30t-1 -32q0 -35 34.5 -138.5t34.5 -145.5q0 -49 -32 -77t-75 -28q-38 0 -64.5 21.5t-26.5 60.5q0 13 4 28
t9 23.5t8 8.5t3 -2t-0.5 -6.5t-0.5 -6.5q0 -33 17.5 -54t39.5 -21q21 0 35 20.5t14 61.5q0 48 -25 129t-25 86q-13 -24 -46 -124q-59 -180 -138 -180q-71 0 -71 120q0 83 25 166q-24 -12 -59 -12q-6 0 -9 1q-6 -54 -22 -112.5t-50.5 -110.5t-76.5 -52q-32 0 -56 30.5
t-31 93.5q-21 -56 -48.5 -90t-55.5 -34q-49 0 -74 45t-25 114q0 101 45 189.5t112 88.5zM98 12q23 0 43 22t32.5 52.5t22.5 72.5t15 71.5t8 59.5q-25 32 -48 32q-42 0 -72.5 -84.5t-30.5 -155.5q0 -70 30 -70z" />
    <glyph glyph-name="arsquote" unicode="ar&#x2019;s" horiz-adv-x="924" 
d="M492 83q0 -72 18.5 -106.5t48.5 -34.5q42 0 90.5 56t74.5 135q33 99 46 124q0 -5 25 -86t25 -129q0 -41 -14 -61.5t-35 -20.5q-22 0 -39.5 21t-17.5 54q0 2 0.5 6.5t0.5 6.5t-3 2t-8 -8.5t-9 -23.5t-4 -28q0 -39 26.5 -60.5t64.5 -21.5q43 0 75 28t32 77
q0 42 -34.5 145.5t-34.5 138.5q0 16 1 32t2 30t3 26.5t3.5 22t2.5 17t2 11.5l1 4q0 5 -8 5q-14 0 -37 -13t-24 -28q-1 -8 -9.5 -49t-26 -107t-35.5 -114q-22 -57 -47 -87.5t-47 -30.5q-20 0 -32.5 27.5t-12.5 79.5q0 64 31 139l25 64q3 6 3 13q0 10 -10.5 24t-20.5 16
q-3 0 -19.5 -14.5t-39 -34.5t-37.5 -30q-17 -10 -22 -10q-9 0 -9 24q0 10 2 30t2 30q0 43 -37 43q-40 0 -40 -64q0 -66 35 -99q-24 -241 -105 -241q-32 0 -32 91q0 41 7 111.5t7 79.5q0 13 -43 25q-12 80 -86 80q-67 0 -112 -88.5t-45 -189.5q0 -69 25 -114t74 -45
q28 0 55.5 34t48.5 90q7 -63 31 -93.5t56 -30.5q42 0 76.5 52t50.5 110.5t22 112.5q3 -1 9 -1q35 0 59 12q-25 -83 -25 -166zM98 12q-30 0 -30 70q0 71 30.5 155.5t72.5 84.5q23 0 48 -32q-3 -30 -8 -59.5t-15 -71.5t-22.5 -72.5t-32.5 -52.5t-43 -22zM677 699q37 37 61 37
q35 0 35 -66q0 -98 -64 -198l-15 10q18 36 18 105q0 76 -35 112z" />
    <glyph glyph-name="ary" unicode="ary" horiz-adv-x="1062" 
d="M583 379h1q10 0 21.5 -14.5t11.5 -25.5l-3 -13q-18 -47 -25 -64q-40 -96 -40 -165q0 -61 30 -61q23 0 46 53t40.5 116t45.5 116t60 53q54 0 54 -104q0 -33 -9 -110t-9 -100q0 -58 24 -58q22 0 51.5 42.5t45.5 95.5q14 48 14 226q0 3 3.5 8t8.5 5q15 0 43.5 -3.5
t28.5 -7.5q-17 -76 -21 -236q-1 -50 -4 -95t-11 -103.5t-20 -107.5t-33.5 -98t-49.5 -82.5t-69 -54.5t-91 -21q-66 0 -119.5 34t-68.5 97v1l8 16q1 2 1.5 4t0.5 3.5t1 1.5q4 0 7 -10q21 -49 63.5 -76.5t91.5 -27.5q43 0 76.5 18.5t55 52t36.5 70.5t23.5 86t13 85t8.5 80
t6 61q-2 5 -5 5q-18 -38 -48.5 -74t-67.5 -36q-74 0 -74 143q0 45 8 116t8 81q0 19 -7 19q-11 0 -23.5 -37t-27.5 -89t-34 -104.5t-49 -89.5t-66 -37q-63 0 -63 96q0 64 31 180l3 10q-24 -12 -59 -12h-8q-6 -54 -22 -112.5t-50.5 -110t-76.5 -51.5q-32 0 -56 30.5t-31 93.5
q-21 -56 -48.5 -90t-55.5 -34q-49 0 -74 45t-25 114q0 101 45 189.5t112 88.5q74 0 86 -80q43 -12 43 -25q0 -9 -7 -79.5t-7 -111.5q0 -91 32 -91q79 0 105 235q-42 29 -42 99q0 33 12.5 55.5t34.5 22.5q37 0 37 -46q0 -11 -2.5 -33.5t-2.5 -31.5q0 -24 9 -24q5 0 22 10
q15 10 37.5 30t39 34.5t19.5 14.5zM98 12q23 0 43 22t32.5 52.5t22.5 72.5t15 71.5t8 59.5q-25 32 -48 32q-42 0 -72.5 -84.5t-30.5 -155.5q0 -70 30 -70z" />
    <glyph glyph-name="as" unicode="as" horiz-adv-x="595" 
d="M167 400q74 0 86 -80q43 -12 43 -25q0 -9 -7 -79.5t-7 -111.5q0 -85 21 -85q29 0 83 137q28 68 46 141.5t22 114.5q1 15 24 28t37 13q8 0 8 -5l-1 -4q-1 -4 -2 -11.5t-2.5 -17t-3.5 -22t-3 -26.5t-2 -30t-1 -32q0 -35 31 -150.5t31 -157.5q0 -43 -26.5 -69t-60.5 -26
q-29 0 -49.5 20.5t-20.5 58.5q0 13 3.5 26.5t7.5 21t6 7.5q1 0 1 -3q0 -64 33 -64q41 0 41 64q0 47 -23.5 137t-23.5 95q-5 -9 -11.5 -27.5t-16.5 -47.5t-18 -49q-26 -67 -67.5 -119.5t-75.5 -52.5q-49 0 -57 115q-48 -121 -103 -121q-49 0 -74 45t-25 114q0 101 45 189.5
t112 88.5zM98 12q23 0 43 22t32.5 52.5t22.5 72.5t15 71.5t8 59.5q-25 32 -48 32q-42 0 -72.5 -84.5t-30.5 -155.5q0 -70 30 -70z" />
    <glyph glyph-name="asquote" unicode="a&#x2019;s" horiz-adv-x="635" 
d="M167 400q74 0 86 -80q43 -12 43 -25q0 -9 -7 -79.5t-7 -111.5q0 -85 21 -85q36 0 81 80t75 171t35 142q1 15 24 28t37 13q8 0 8 -5l-1 -4q-1 -4 -2 -11.5t-2.5 -17t-3.5 -22t-3 -26.5t-2 -30t-1 -32q0 -35 31 -150.5t31 -157.5q0 -43 -26.5 -69t-60.5 -26
q-29 0 -49.5 20.5t-20.5 58.5q0 13 3.5 26.5t7.5 21t6 7.5q1 0 1 -3v-5q0 -59 33 -59q40 0 40 66q0 50 -25 148t-25 102q-23 -108 -95 -221t-126 -113t-61 131q-21 -53 -48.5 -86t-54.5 -33q-49 0 -74 45t-25 114q0 101 45 189.5t112 88.5zM98 12q23 0 43 22t32.5 52.5
t22.5 72.5t15 71.5t8 59.5q-25 32 -48 32q-42 0 -72.5 -84.5t-30.5 -155.5q0 -70 30 -70zM332 699q36 37 61 37q35 0 35 -66q0 -100 -64 -198l-15 10q18 36 18 105q0 76 -35 112z" />
    <glyph glyph-name="asr" unicode="asr" horiz-adv-x="901" 
d="M167 400q74 0 86 -80q43 -12 43 -25q0 -9 -7 -79.5t-7 -111.5q0 -85 21 -85q16 0 40 43.5t43 93.5q25 67 42.5 142.5t21.5 113.5q1 15 24 28t37 13q8 0 8 -5l-1 -4q-1 -4 -2 -11.5t-2.5 -17t-3.5 -22t-3 -26.5t-2 -30t-1 -32q0 -8 1 -16.5t4 -18.5t5 -16.5t6.5 -19
t7 -17.5t8.5 -19.5t8 -18.5q68 52 93 77q-35 32 -35 91q0 33 12.5 55.5t34.5 22.5t32.5 -28.5t10.5 -69.5q0 -15 -2 -37q20 0 66 44.5t52 44.5q10 0 21.5 -14.5t11.5 -25.5l-3 -13q-21 -43 -39 -106.5t-18 -100.5q0 -39 11 -62.5t29 -23.5q35 0 66 83q6 15 14 20q5 3 6 3
q3 0 3 -4l-1 -5q-7 -58 -39 -114t-83 -56q-71 0 -71 121q0 76 25 168q-26 -13 -50 -13q-18 0 -33 6q-34 -37 -103 -90q21 -57 21 -88q0 -52 -29 -81.5t-67 -29.5q-31 0 -52.5 20.5t-21.5 57.5q0 41 87 110q-6 21 -16.5 50.5t-16.5 48t-6 25.5q-5 -9 -11.5 -28t-17 -49
t-18.5 -51q-25 -67 -65 -118.5t-73 -51.5q-49 0 -57 117q-48 -121 -103 -121q-49 0 -74 45t-25 114q0 101 45 189.5t112 88.5zM98 12q23 0 43 22t32.5 52.5t22.5 72.5t15 71.5t8 59.5q-25 32 -48 32q-42 0 -72.5 -84.5t-30.5 -155.5q0 -70 30 -70zM507 63q0 18 -7 48
q-61 -46 -61 -74q0 -12 7 -19.5t17 -7.5q44 0 44 53z" />
    <glyph glyph-name="ass" unicode="ass" horiz-adv-x="817" 
d="M454 412q1 15 24 28t37 13q8 0 8 -5l-1 -4q-1 -4 -2 -11.5t-2.5 -17t-3.5 -22t-3 -26.5t-2 -30t-1 -32q0 -12 2 -24t8 -29t8.5 -24t13 -30.5t11.5 -26.5q112 75 124 119q-8 31 -8 68q0 29 7 54q4 14 29.5 28t48.5 14q2 0 4 -0.5t4 -0.5q8 0 8 -5l-7 -18
q-7 -18 -18.5 -46.5t-18.5 -49.5q-1 -10 -1 -31q0 -48 34.5 -132.5t34.5 -126.5q0 -50 -32 -81t-73 -31q-32 0 -54 22t-22 65q0 39 15 68t41 29q12 0 12 -6q-26 -37 -26 -85q0 -42 30 -42q17 0 32 15.5t15 36.5q0 43 -22.5 117t-26.5 94q-41 -50 -119 -102q18 -49 18 -80
q0 -52 -29 -81.5t-67 -29.5q-31 0 -52.5 20.5t-21.5 57.5q0 40 88 104q-6 23 -16.5 53t-17 50t-6.5 27q-5 -9 -11.5 -27.5t-16.5 -47.5t-18 -49q-26 -67 -67.5 -119.5t-75.5 -52.5q-49 0 -57 115q-48 -121 -103 -121q-49 0 -74 45t-25 114q0 101 45 189.5t112 88.5
q74 0 86 -80q43 -12 43 -25q0 -9 -7 -79.5t-7 -111.5q0 -85 21 -85q29 0 83 137q28 68 46 141.5t22 114.5zM98 12q23 0 43 22t32.5 52.5t22.5 72.5t15 71.5t8 59.5q-25 32 -48 32q-42 0 -72.5 -84.5t-30.5 -155.5q0 -70 30 -70zM443 37q0 -12 7 -19.5t17 -7.5q44 0 44 53
q0 21 -6 43q-62 -43 -62 -69z" />
    <glyph glyph-name="asw" unicode="asw" horiz-adv-x="1105" 
d="M167 400q74 0 86 -80q43 -12 43 -25q0 -9 -7 -79.5t-7 -111.5q0 -85 21 -85q29 0 83 137q28 68 46 141.5t22 114.5q1 15 24 28t37 13q8 0 8 -5l-1 -4q-1 -4 -2 -11.5t-2.5 -17t-3.5 -22t-3 -26.5t-2 -30t-1 -32q0 -32 21 -83q116 137 171 137q44 0 44 -109
q0 -30 -5.5 -92t-5.5 -80q0 -14 5 -14q10 0 37.5 69.5t55.5 149t32 87.5q8 15 21 15q13 -2 28.5 -13t15.5 -21q0 -2 -6 -49t-11.5 -110t-5.5 -105q0 -78 21 -78q23 0 52.5 76.5t34.5 157.5q-7 21 -7 58q0 48 11.5 87.5t30.5 39.5q32 0 32 -42q0 -24 -11 -66t-11 -45l40 -3
q-1 -28 -7.5 -39t-20.5 -11q-12 0 -25 4q-23 -121 -60 -183.5t-75 -62.5q-32 0 -53.5 45t-21.5 123q0 45 9 102q-2 -5 -14 -48.5t-24 -78.5t-28 -77t-34 -66.5t-34 -24.5q-47 0 -47 127q0 50 8 131t8 88q0 12 -3 12q-16 0 -55.5 -33.5t-81.5 -80.5q41 -90 41 -135
q0 -52 -29 -81.5t-67 -29.5q-31 0 -52.5 20.5t-21.5 57.5q0 32 78 138q-30 88 -30 96q-5 -9 -11.5 -27.5t-16.5 -47.5t-18 -49q-26 -67 -67.5 -119.5t-75.5 -52.5q-49 0 -57 115q-48 -121 -103 -121q-49 0 -74 45t-25 114q0 101 45 189.5t112 88.5zM98 12q23 0 43 22
t32.5 52.5t22.5 72.5t15 71.5t8 59.5q-25 32 -48 32q-42 0 -72.5 -84.5t-30.5 -155.5q0 -70 30 -70zM437 35q0 -25 30 -25q44 0 44 53q0 31 -16 84q-58 -75 -58 -112z" />
    <glyph glyph-name="b_y" unicode="by" horiz-adv-x="694" 
d="M35 797q0 4 6 4q3 0 7 -2q8 -8 26.5 -19.5t28 -23t9.5 -28.5q0 -1 -11 -135.5t-16 -226.5t-5 -172q0 -88 24 -139t54 -51q23 0 37.5 31.5t14.5 92.5q0 70 -14 127q-31 13 -51 41t-20 60q0 36 54 36q74 -5 97 -107q17 7 63.5 40.5t65.5 33.5q44 0 44 -109q0 -33 -5 -100
t-5 -90q0 -58 24 -58q22 0 51.5 42.5t45.5 95.5q14 48 14 226q0 3 3.5 8t8.5 5q15 0 43.5 -3.5t28.5 -7.5q-17 -76 -21 -236q-8 -410 -158 -525q-49 -37 -120 -37q-66 0 -119.5 34t-68.5 97v1l8 16q1 2 1.5 4t0.5 3.5t1 1.5q4 0 7 -10q21 -49 63.5 -76.5t91.5 -27.5
q54 0 98 34q31 25 53 66.5t33.5 94.5t17 95.5t10 98t7.5 74.5q-12 -33 -49 -74t-72 -41q-73 0 -73 143q0 45 7.5 116t7.5 81q0 12 -3 12q-42 -42 -100 -60q2 -24 2 -38q0 -114 -47.5 -182t-107.5 -68q-48 0 -80.5 47t-32.5 135q0 3 0.5 10t0.5 11q19 231 19 629z" />
    <glyph glyph-name="beesquote" unicode="bee&#x2019;s" horiz-adv-x="1125" 
d="M773 318q0 45 -19 45q-29 0 -45.5 -47t-16.5 -113q0 -54 11 -97q33 49 51.5 109t18.5 103zM520 318q0 31 -23 31q-32 0 -53 -50t-21 -116v-18q42 18 69.5 63t27.5 90zM775 10q30 0 64 40q55 64 97.5 186.5t47.5 173.5q1 15 24 28t37 13q8 0 8 -5l-1 -4q-1 -4 -2 -11.5
t-2.5 -17t-3.5 -22t-3 -26.5t-2 -30t-1 -32q0 -35 31 -150.5t31 -157.5q0 -43 -27.5 -68.5t-62.5 -25.5q-31 0 -52.5 20.5t-21.5 58.5q0 13 4.5 26.5t10 20.5t8.5 7q2 0 2 -3v-4q0 -59 39 -59q32 0 32 57q0 47 -24 144t-24 103q-5 -11 -23.5 -53t-31 -69t-35.5 -66.5
t-43 -63.5t-48 -42t-56 -18q-56 0 -91 57q-70 -55 -138 -55q-76 0 -118.5 47t-51.5 121q-36 6 -69 25q-13 -88 -57 -139t-94 -51q-48 0 -80.5 47t-32.5 135q0 3 0.5 10t0.5 11q19 231 19 622v7q0 4 6 4q3 0 7 -2q8 -8 26.5 -19.5t28 -23t9.5 -28.5q-29 -399 -32 -534v-11
q0 -80 24 -129.5t54 -49.5q23 0 37.5 31.5t14.5 92.5q0 42 -6 85q-79 77 -79 143q0 36 45 36q33 0 57 -18t35 -47.5t16 -56.5t5 -55q0 -13 -2 -33q33 -16 65 -23v9q0 93 43.5 166t110.5 73q33 0 52.5 -22.5t19.5 -58.5q0 -60 -44 -114.5t-102 -75.5q8 -58 36 -95t75 -37
q58 0 106 37q-26 58 -26 142q0 91 40 158.5t107 67.5q62 0 62 -77q0 -54 -31.5 -126.5t-81.5 -131.5q2 -7 6 -17.5t20 -28.5t36 -18zM895 697q36 37 61 37q35 0 35 -66q0 -100 -64 -198l-15 10q18 36 18 105q0 76 -35 112z" />
    <glyph glyph-name="bensquote" unicode="ben&#x2019;s" horiz-adv-x="1241" 
d="M520 318q0 31 -23 31q-32 0 -53 -50t-21 -116v-18q42 18 69.5 63t27.5 90zM1005 699q36 37 61 37q35 0 35 -66q0 -100 -64 -198l-15 10q18 36 18 105q0 76 -35 112zM920 1q31 0 76 101.5t74 198.5t30 111q1 15 24 28t37 13q8 0 8 -5l-1 -4q-1 -4 -2 -11.5t-2.5 -17
t-3.5 -22t-3 -26.5t-2 -30t-1 -32q0 -35 31 -150.5t31 -157.5t-29 -65.5t-67 -23.5q-37 0 -63.5 22t-26.5 62q0 21 5.5 43.5t10.5 22.5q3 0 3 -2v-3q0 -39 19 -64.5t41 -25.5q16 0 26.5 14.5t10.5 42.5q0 48 -21 144t-21 101q-5 -10 -24.5 -55.5t-37.5 -82.5t-42 -80
t-48 -67.5t-44 -24.5q-90 0 -97 263q-21 -23 -38.5 -68.5t-34 -108.5t-21.5 -78q-3 -10 -13 -10q-12 0 -30.5 11t-18.5 16q0 6 1 9q2 9 12 139q2 26 2 102v69q-4 -13 -15.5 -68t-26 -104.5t-31.5 -86.5q-41 -86 -104 -86q-49 0 -91.5 51.5t-53.5 124.5q-36 6 -69 25
q-13 -88 -57 -139t-94 -51q-48 0 -80.5 47t-32.5 135q0 3 0.5 10t0.5 11q19 231 19 622v7q0 4 6 4q3 0 7 -2q8 -8 26.5 -19.5t28 -23t9.5 -28.5q-29 -399 -32 -534v-11q0 -80 24 -129.5t54 -49.5q23 0 37.5 31.5t14.5 92.5q0 42 -6 85q-79 77 -79 143q0 36 45 36
q33 0 57 -18t35 -47.5t16 -56.5t5 -55q0 -13 -2 -33q33 -16 65 -23v9q0 93 43.5 166t110.5 73q33 0 52.5 -22.5t19.5 -58.5q0 -59 -43.5 -114t-101.5 -75q8 -54 31 -94.5t52 -40.5q32 0 65 57q50 87 89 283q3 14 12 25t19 11t23 5.5t16 5.5q6 0 7 -13q2 -33 2 -113
q0 -92 -1 -118q7 16 24.5 58t30 70t32.5 61.5t40 52.5q4 3 8 3q9 0 27.5 -13.5t18.5 -21.5q0 -3 -1 -5q-14 -29 -25 -102t-11 -137q0 -110 34 -110z" />
    <glyph glyph-name="bersquote" unicode="ber&#x2019;s" horiz-adv-x="1197" 
d="M520 318q0 31 -23 31q-32 0 -53 -50t-21 -116v-18q42 18 69.5 63t27.5 90zM853 36q37 0 86 84.5t81.5 173t35.5 119.5q1 15 24 28t37 13q8 0 8 -5l-1 -4q-1 -4 -2 -11.5t-2.5 -17t-3.5 -22t-3 -26.5t-2 -30t-1 -32q0 -35 31 -150.5t31 -157.5q0 -43 -27.5 -68.5
t-62.5 -25.5q-31 0 -52.5 20.5t-21.5 58.5q0 13 4.5 26.5t10 20.5t8.5 7q2 0 2 -3v-4q0 -59 39 -59q32 0 32 57q0 48 -24 145t-24 102q-5 -11 -23.5 -53t-31 -69t-35.5 -66.5t-43 -63.5t-48 -42t-56 -18q-72 0 -72 122q0 79 24 164q-24 -12 -59 -12q-8 0 -12 1
q-6 -46 -18.5 -89t-34.5 -88.5t-60 -73t-86 -27.5q-59 0 -101.5 46t-51.5 124q-36 6 -69 25q-13 -88 -57 -139t-94 -51q-48 0 -80.5 47t-32.5 135q0 3 0.5 10t0.5 11q19 231 19 622v7q0 4 6 4q3 0 7 -2q8 -8 26.5 -19.5t28 -23t9.5 -28.5q-29 -399 -32 -534v-11
q0 -80 24 -129.5t54 -49.5q23 0 37.5 31.5t14.5 92.5q0 42 -6 85q-79 77 -79 143q0 36 45 36q33 0 57 -18t35 -47.5t16 -56.5t5 -55q0 -13 -2 -33q33 -16 65 -23v9q0 93 43.5 166t110.5 73q33 0 52.5 -22.5t19.5 -58.5q0 -60 -43.5 -114.5t-102.5 -74.5q9 -62 38.5 -97
t67.5 -35q31 0 59.5 25t47.5 74q21 53 34 145q-41 29 -41 98q0 33 12.5 55.5t34.5 22.5q37 0 37 -46q0 -11 -2.5 -33.5t-2.5 -31.5q0 -24 9 -24q5 0 22 10q15 10 37.5 30t39 34.5t19.5 14.5q10 0 21.5 -14.5t11.5 -25.5l-3 -13q-18 -47 -25 -64q-31 -75 -31 -139v-9.5
t2.5 -20.5t6.5 -26.5t12.5 -21t19.5 -9.5zM967 700q36 37 61 37q35 0 35 -66q0 -100 -64 -198l-15 10q18 36 18 105q0 76 -35 112z" />
    <glyph glyph-name="besquote" unicode="be&#x2019;s" horiz-adv-x="876" 
d="M347 130q-36 6 -68 25q-13 -88 -57 -139t-94 -51q-48 0 -80.5 47t-32.5 135q0 3 0.5 10t0.5 11q19 231 19 622v7q0 4 6 4q3 0 7 -2q8 -8 26.5 -19.5t28 -23t9.5 -28.5q-29 -399 -32 -534v-11q0 -80 24 -129.5t54 -49.5q23 0 37.5 31.5t14.5 92.5q0 42 -6 85
q-79 77 -79 143q0 36 45 36q33 0 57 -18t35 -47.5t16 -56.5t5 -55q0 -13 -2 -33q33 -16 65 -23v9q0 93 43.5 166t110.5 73q33 0 52.5 -22.5t19.5 -58.5q0 -60 -44 -115t-103 -75q5 -60 23.5 -91t45.5 -31q46 0 101 68.5t94 160.5t46 164q1 15 24 28t37 13q8 0 8 -5l-1 -4
q-1 -4 -2 -11.5t-3 -17t-3.5 -22t-2.5 -26.5t-2 -30t-1 -32q0 -35 31 -150.5t31 -157.5t-29 -65.5t-67 -23.5q-37 0 -63.5 22t-26.5 62q0 21 5.5 43.5t10.5 22.5q3 0 3 -2v-3q0 -40 19 -65t41 -25q16 0 26.5 14.5t10.5 42.5q0 48 -20 157t-20 114q-17 -51 -40.5 -100.5
t-57.5 -100.5t-79.5 -82t-95.5 -31t-82 42.5t-39 115.5zM520 318q0 31 -23 31q-32 0 -53 -50t-21 -116v-18q42 18 69.5 63t27.5 90zM666 717q36 37 61 37q35 0 35 -66q0 -100 -64 -198l-15 10q18 36 18 105q0 76 -35 112z" />
    <glyph glyph-name="br" unicode="br" horiz-adv-x="598" 
d="M35 790v7q0 4 6 4q3 0 7 -2q8 -8 26.5 -19.5t28 -23t9.5 -28.5q-6 -85 -20 -329t-17 -288q3 -48 24.5 -76.5t49.5 -28.5q44 0 66.5 47.5t22.5 112.5q0 28 -5 58q-39 16 -69 53t-30 77q0 29 38 29t77 -32.5t49 -89.5q25 3 45 17q-22 32 -22 79q0 33 12.5 55.5t34.5 22.5
q45 0 45 -67q0 -50 -26 -87q7 -3 16 -3q25 0 53.5 25t48 50.5t22.5 25.5q10 0 21.5 -14.5t11.5 -25.5l-3 -13q-34 -48 -54 -111.5t-20 -113.5q0 -68 35 -68t66 83q6 15 14 20q4 3 6 3q3 0 3 -4l-1 -5q-7 -57 -38 -112t-80 -55q-72 0 -72 108q0 98 44 188q-24 -12 -59 -12
q-20 0 -35 9q-28 -25 -65 -35q-2 -96 -41 -174.5t-100 -78.5q-57 0 -90 58l-4 -61q0 -9 -14 -9q-7 0 -32 14t-25 17q0 6 1 9q39 224 39 794z" />
    <glyph glyph-name="bry" unicode="bry" horiz-adv-x="1005" 
d="M35 790v7q0 4 6 4q3 0 7 -2q8 -8 26.5 -19.5t28 -23t9.5 -28.5q-6 -85 -20 -329t-17 -288q3 -48 24.5 -76.5t49.5 -28.5q44 0 66.5 47.5t22.5 112.5q0 28 -5 58q-39 16 -69 53t-30 77q0 29 38 29t77 -32.5t49 -89.5q25 3 45 17q-22 32 -22 79q0 33 12.5 55.5t34.5 22.5
q45 0 45 -67q0 -50 -26 -87q7 -3 16 -3q25 0 53.5 25t48 50.5t22.5 25.5q10 0 21.5 -14.5t11.5 -25.5l-3 -13q-33 -47 -53 -109t-20 -111q0 -70 38 -70q23 0 46 53t40.5 116t45.5 116t60 53q54 0 54 -104q0 -33 -9 -110t-9 -100q0 -58 24 -58q22 0 51.5 42.5t45.5 95.5
q14 48 14 226q0 3 3.5 8t8.5 5q15 0 43.5 -3.5t28.5 -7.5q-17 -76 -21 -236q-8 -410 -158 -525q-49 -37 -120 -37q-66 0 -119.5 34t-68.5 97v1l8 16q1 2 1.5 4t0.5 3.5t1 1.5q4 0 7 -10q21 -49 63.5 -76.5t91.5 -27.5q54 0 98 34q38 31 63.5 93t33 111t15 125t9.5 90
q-2 5 -5 5q-18 -38 -48.5 -74t-67.5 -36q-74 0 -74 143q0 45 8 116t8 81q0 19 -7 19q-11 0 -23.5 -37t-27.5 -89t-34 -104.5t-49 -89.5t-66 -37q-72 0 -72 108q0 98 44 188q-24 -12 -59 -12q-20 0 -35 9q-28 -25 -65 -35q-2 -96 -41 -174.5t-100 -78.5q-57 0 -90 58l-4 -61
q0 -9 -14 -9q-7 0 -32 14t-25 17q0 6 1 9q39 224 39 794z" />
    <glyph glyph-name="bs" unicode="bs" horiz-adv-x="550" 
d="M35 790v7q0 4 6 4q3 0 7 -2q8 -8 26.5 -19.5t28 -23t9.5 -28.5q-13 -193 -27 -433q23 53 54.5 82t63.5 29q40 0 65 -36t32 -94q55 41 89 70v7q0 21 6 37q1 15 34 39t46 24q10 0 10 -10q0 -11 -22 -49q-15 -27 -15 -64q0 -47 38.5 -150t38.5 -151q0 -45 -30 -69.5
t-72 -24.5q-40 0 -69.5 23t-29.5 63q0 21 5.5 43.5t10.5 22.5q3 0 3 -2v-3q0 -40 22 -67t48 -27q19 0 30.5 16t11.5 48q0 46 -29 141.5t-34 121.5q-33 -31 -90 -73v-7q0 -129 -48 -198t-104 -69q-27 0 -44 17.5t-17 48.5q0 78 139 187q-7 91 -58 100q-28 0 -54.5 -38.5
t-36.5 -99.5q-4 -96 -9 -157l-4 -61q0 -9 -14 -9q-7 0 -32 14t-25 17q0 6 1 9q39 224 39 794zM119 42q0 -12 8.5 -19.5t21.5 -7.5q29 0 53.5 41t26.5 131q-54 -42 -82 -76.5t-28 -68.5z" />
    <glyph glyph-name="ce" unicode="ce" horiz-adv-x="562" 
d="M440 363q-29 0 -45.5 -47t-16.5 -113q0 -50 11 -97q32 52 50 112t18 102q0 43 -17 43zM471 7q17 0 40.5 16t30.5 34q5 1 8 5t5 7.5t3 3.5q4 0 4 -9q0 -43 -24.5 -72.5t-68.5 -29.5q-73 0 -117 56q-82 -72 -170 -72q-85 0 -127 57.5t-42 143.5q0 100 48.5 182t120.5 82
q31 0 51 -25t24 -74q2 -10 2 -16q0 -24 -17 -40t-43 -16q-29 0 -29 13q0 3 3 3q6 1 16 23t10 39q0 13 -7 16q-42 -4 -75.5 -69.5t-33.5 -137.5q0 -62 29.5 -102t91.5 -40q73 0 132 56q-33 57 -33 142q0 91 40 158.5t107 67.5q59 0 59 -80q0 -55 -29.5 -127.5t-78.5 -132.5
q25 -62 70 -62z" />
    <glyph glyph-name="ceacute" unicode="c&#xe9;" horiz-adv-x="564" 
d="M493 642q71 -13 71 -45q0 -35 -74.5 -71.5t-164.5 -40.5l3 18q34 5 94 45t71 94zM440 363q-29 0 -45.5 -47t-16.5 -113q0 -50 11 -97q32 52 50 112t18 102q0 43 -17 43zM471 7q17 0 40.5 16t30.5 34q5 1 8 5t5 7.5t3 3.5q4 0 4 -9q0 -43 -24.5 -72.5t-68.5 -29.5
q-73 0 -117 56q-82 -72 -170 -72q-85 0 -127 57.5t-42 143.5q0 100 48.5 182t120.5 82q31 0 51 -25t24 -74q2 -10 2 -16q0 -24 -17 -40t-43 -16q-29 0 -29 13q0 3 3 3q6 1 16 23t10 39q0 13 -7 16q-42 -4 -75.5 -69.5t-33.5 -137.5q0 -62 29.5 -102t91.5 -40q73 0 132 56
q-33 57 -33 142q0 91 40 158.5t107 67.5q59 0 59 -80q0 -55 -29.5 -127.5t-78.5 -132.5q25 -62 70 -62z" />
    <glyph glyph-name="cee" unicode="cee" horiz-adv-x="802" 
d="M457 320q0 43 -17 43q-29 0 -45.5 -47t-16.5 -113q0 -53 11 -95q32 52 50 111t18 101zM714 318q0 45 -19 45q-29 0 -45.5 -47t-16.5 -113q0 -54 10 -97q33 50 52 109.5t19 102.5zM303 183q0 91 40 158.5t107 67.5q59 0 59 -80q0 -55 -29 -126.5t-77 -131.5q32 -68 91 -68
q44 0 95 42q-31 59 -31 138q0 91 40 158.5t107 67.5q62 0 62 -77q0 -54 -31.5 -126.5t-81.5 -131.5q25 -67 72 -67q17 0 40.5 16t30.5 34q5 1 8 5t5 7.5t3 3.5q4 0 4 -9q0 -43 -24.5 -72.5t-68.5 -29.5q-76 0 -121 61q-64 -61 -131 -61q-68 0 -116 59q-83 -75 -174 -75
q-85 0 -127 57.5t-42 143.5q0 100 48.5 182t120.5 82q31 0 51 -25t24 -74q2 -10 2 -16q0 -24 -17 -40t-43 -16q-29 0 -29 13q0 3 3 3q6 1 16 23t10 39q0 13 -7 16q-42 -4 -75.5 -69.5t-33.5 -137.5q0 -62 29.5 -102t91.5 -40q76 0 135 59q-36 58 -36 139z" />
    <glyph glyph-name="cel" unicode="cel" horiz-adv-x="769" 
d="M378 203q0 -50 11 -97q32 52 50 112t18 102q0 43 -17 43q-29 0 -45.5 -47t-16.5 -113zM751 671q0 84 -23 84q-29 0 -55.5 -136.5t-26.5 -296.5q0 -86 8 -150q50 113 73.5 264.5t23.5 234.5zM471 7q74 0 132 76q-20 96 -20 219q0 131 21.5 259.5t56.5 210.5t71 82
q65 0 65 -152q0 -85 -36 -267.5t-101 -310.5q39 -227 161 -227q54 0 76 52q5 12 8 12t3 -7v-3l6 -4q-5 -48 -36.5 -75t-73.5 -27q-138 0 -193 201q-66 -84 -142 -84q-73 0 -117 56q-82 -72 -170 -72q-85 0 -127 57.5t-42 143.5q0 100 48.5 182t120.5 82q31 0 51 -25t24 -74
q2 -10 2 -16q0 -24 -17 -40t-43 -16q-29 0 -29 13q0 3 3 3q6 1 16 23t10 39q0 13 -7 16q-42 -4 -75.5 -69.5t-33.5 -137.5q0 -62 29.5 -102t91.5 -40q73 0 132 56q-33 57 -33 142q0 91 40 158.5t107 67.5q59 0 59 -80q0 -55 -29.5 -127.5t-78.5 -132.5q25 -62 70 -62z" />
    <glyph glyph-name="cell" unicode="cell" horiz-adv-x="982" 
d="M378 203q0 -56 11 -97q32 51 50 111t18 103t-17 43q-29 0 -45.5 -47t-16.5 -113zM953 714q0 80 -14 80q-17 0 -37 -76t-34 -198.5t-14 -239.5q0 -70 4 -121q42 104 68 249t27 306zM745 671q0 84 -23 84q-29 0 -55.5 -136.5t-26.5 -296.5q0 -88 8 -157q48 112 72.5 260.5
t24.5 245.5zM471 7q75 0 132 75q-19 89 -19 222q0 134 20 262t53 208t69 80q65 0 65 -152q0 -102 -37.5 -274.5t-101.5 -297.5q23 -134 78 -134q42 0 91 85q-12 92 -12 200q0 147 20.5 293.5t54 241t68.5 94.5q70 0 70 -167q0 -192 -43.5 -365t-111.5 -290q31 -201 130 -201
q43 0 68 62q5 12 8 12t3 -7v-3l6 -4q0 -39 -29 -85t-67 -46q-114 0 -157 215q-65 -86 -122 -86q-65 0 -97 111q-66 -94 -141 -94q-73 0 -117 56q-82 -72 -170 -72q-85 0 -127 57.5t-42 143.5q0 100 48.5 182t120.5 82q31 0 51 -25t24 -74q2 -10 2 -16q0 -24 -17 -40t-43 -16
q-29 0 -29 13q0 3 3 3q6 1 16 23t10 39q0 13 -7 16q-42 -4 -75.5 -69.5t-33.5 -137.5q0 -62 29.5 -102t91.5 -40q73 0 132 56q-33 57 -33 142q0 91 40 158.5t107 67.5q58 0 58 -80q0 -55 -29.5 -127.5t-78.5 -132.5q27 -62 71 -62z" />
    <glyph glyph-name="cer" unicode="cer" horiz-adv-x="893" 
d="M378 203q0 -50 11 -97q32 52 50 112t18 102q0 43 -17 43q-29 0 -45.5 -47t-16.5 -113zM471 7q121 0 164 248q-35 31 -35 94q0 33 12.5 55.5t34.5 22.5q37 0 37 -46q0 -11 -2.5 -33.5t-2.5 -31.5q0 -24 9 -24q5 0 22 10q15 10 37.5 30t39 34.5t19.5 14.5q10 0 21.5 -14.5
t11.5 -25.5l-3 -13q-18 -47 -25 -64q-32 -77 -32 -155q0 -60 14 -97t34 -37q29 0 52 74q4 13 14 20q5 3 6 3q3 0 3 -4l-1 -5q-3 -60 -34.5 -97.5t-69.5 -37.5q-35 0 -59 35t-24 104q0 92 25 184q-24 -12 -59 -12q-8 0 -12 1q-6 -46 -18.5 -89t-34.5 -88.5t-60 -73t-86 -27.5
q-73 0 -117 56q-82 -72 -170 -72q-85 0 -127 57.5t-42 143.5q0 100 48.5 182t120.5 82q31 0 51 -25t24 -74q2 -10 2 -16q0 -24 -17 -40t-43 -16q-29 0 -29 13q0 3 3 3q6 1 16 23t10 39q0 13 -7 16q-42 -4 -75.5 -69.5t-33.5 -137.5q0 -62 29.5 -102t91.5 -40q73 0 132 56
q-33 57 -33 142q0 91 40 158.5t107 67.5q59 0 59 -80q0 -55 -29.5 -127.5t-78.5 -132.5q25 -62 70 -62z" />
    <glyph glyph-name="cerr" unicode="cerr" horiz-adv-x="1173" 
d="M378 203q0 -50 11 -97q32 52 50 112t18 102q0 43 -17 43q-29 0 -45.5 -47t-16.5 -113zM739 251q-24 -12 -59 -12q-8 0 -12 1q-6 -46 -18.5 -89t-34.5 -88.5t-60 -73t-86 -27.5q-73 0 -117 56q-82 -72 -170 -72q-85 0 -127 57.5t-42 143.5q0 100 48.5 182t120.5 82
q31 0 51 -25t24 -74q2 -10 2 -16q0 -24 -17 -40t-43 -16q-29 0 -29 13q0 3 3 3q6 1 16 23t10 39q0 13 -7 16q-42 -4 -75.5 -69.5t-33.5 -137.5q0 -62 29.5 -102t91.5 -40q73 0 132 56q-33 57 -33 142q0 91 40 158.5t107 67.5q59 0 59 -80q0 -55 -29.5 -127.5t-78.5 -132.5
q25 -62 70 -62q121 0 164 248q-35 31 -35 94q0 33 12.5 55.5t34.5 22.5q37 0 37 -46q0 -11 -2.5 -33.5t-2.5 -31.5q0 -24 9 -24q5 0 22 10q15 10 37.5 30t39 34.5t19.5 14.5q10 0 21.5 -14.5t11.5 -25.5l-3 -13q-18 -47 -25 -64q-31 -75 -31 -145q0 -43 11.5 -69.5
t29.5 -26.5q29 0 56.5 81.5t43.5 188.5q-40 30 -40 97q0 33 12.5 55.5t34.5 22.5q37 0 37 -46q0 -11 -2.5 -33.5t-2.5 -31.5q0 -24 9 -24q5 0 22 10q15 10 37.5 30t39 34.5t19.5 14.5q10 0 21.5 -14.5t11.5 -25.5l-3 -13q-18 -47 -25 -64q-35 -83 -35 -170q0 -44 10 -72
t26 -28q35 0 66 83q6 15 14 20q5 3 6 3q3 0 3 -4l-1 -5q-7 -58 -39 -114t-83 -56q-67 0 -67 129q0 92 28 201q-24 -12 -59 -12q-10 0 -15 1q-3 -11 -9.5 -42t-11 -52t-13.5 -54t-17 -55.5t-20 -48.5t-24.5 -42t-29 -26.5t-34.5 -10.5q-72 0 -72 130q0 86 24 171z" />
    <glyph glyph-name="ces" unicode="ces" horiz-adv-x="824" 
d="M378 203q0 -57 10 -98q33 52 51 112.5t18 102.5q0 43 -17 43q-29 0 -45.5 -47t-16.5 -113zM485 4q70 0 130 152q28 68 46 141.5t22 114.5q1 15 24 28t37 13q8 0 8 -5l-1 -4q-1 -4 -2 -11.5t-3 -17t-3.5 -22t-2.5 -26.5t-2 -30t-1 -32q0 -35 31 -150.5t31 -157.5
q0 -43 -27.5 -68.5t-62.5 -25.5q-31 0 -52.5 20.5t-21.5 58.5q0 13 4.5 26.5t10 20.5t8.5 7q2 0 2 -3v-4q0 -59 39 -59q33 0 33 58q0 46 -22.5 139t-22.5 98q-5 -9 -11.5 -27.5t-16.5 -47.5t-18 -49q-30 -78 -73.5 -128.5t-95.5 -50.5q-68 0 -116 59q-83 -75 -174 -75
q-85 0 -127 57.5t-42 143.5q0 100 48.5 182t120.5 82q31 0 51 -25t24 -74q2 -10 2 -16q0 -24 -17 -40t-43 -16q-29 0 -29 13q0 3 3 3q6 1 16 23t10 39q0 13 -7 16q-42 -4 -75.5 -69.5t-33.5 -137.5q0 -62 29.5 -102t91.5 -40q76 0 135 59q-36 58 -36 139q0 91 40 158.5
t107 67.5q59 0 59 -80q0 -55 -29.5 -127.5t-78.5 -132.5q29 -65 84 -65z" />
    <glyph glyph-name="cesquote" unicode="ce&#x2019;s" horiz-adv-x="846" 
d="M378 203q0 -57 10 -98q33 52 51 112.5t18 102.5q0 43 -17 43q-29 0 -45.5 -47t-16.5 -113zM620 697q36 37 61 37q35 0 35 -66q0 -100 -64 -198l-15 10q18 36 18 105q0 76 -35 112zM485 4q44 0 88 51t64 101q28 68 46 141.5t22 114.5q1 15 24 28t37 13q8 0 8 -5l-1 -4
q-1 -4 -2 -11.5t-3 -17t-3.5 -22t-2.5 -26.5t-2 -30t-1 -32q0 -35 31 -150.5t31 -157.5q0 -43 -27.5 -68.5t-62.5 -25.5q-31 0 -52.5 20.5t-21.5 58.5q0 13 4.5 26.5t10 20.5t8.5 7q2 0 2 -3v-4q0 -59 39 -59q33 0 33 58q0 46 -22.5 139t-22.5 98q-5 -9 -11.5 -27.5
t-16.5 -47.5t-18 -49q-28 -73 -82.5 -126t-108.5 -53q-68 0 -116 59q-83 -75 -174 -75q-85 0 -127 57.5t-42 143.5q0 100 48.5 182t120.5 82q31 0 51 -25t24 -74q2 -10 2 -16q0 -24 -17 -40t-43 -16q-29 0 -29 13q0 3 3 3q6 1 16 23t10 39q0 13 -7 16q-42 -4 -75.5 -69.5
t-33.5 -137.5q0 -62 29.5 -102t91.5 -40q76 0 135 59q-36 58 -36 139q0 91 40 158.5t107 67.5q59 0 59 -80q0 -55 -29.5 -127.5t-78.5 -132.5q29 -65 84 -65z" />
    <glyph glyph-name="cess" unicode="cess" horiz-adv-x="1043" 
d="M669 35q0 -12 7 -19.5t17 -7.5q44 0 44 53q0 21 -6 43q-62 -43 -62 -69zM404 173q0 -43 8 -83q31 55 48.5 120t17.5 111q0 53 -18 53q-12 0 -24.5 -23t-22 -71t-9.5 -107zM680 412q1 15 24 27t37 12q8 0 8 -5l-1 -4q-1 -4 -2 -11.5t-2.5 -17t-3.5 -22t-3 -26.5t-2 -30
t-1 -32q0 -12 2 -24t8 -29t8.5 -24t13 -30.5t11.5 -26.5q112 75 124 119q-8 31 -8 68q0 29 7 54q4 14 29.5 28t48.5 14q2 0 4 -0.5t4 -0.5q8 0 8 -5l-7 -18q-7 -18 -18.5 -46.5t-18.5 -49.5q-1 -10 -1 -31q0 -48 34.5 -132.5t34.5 -126.5q0 -50 -32 -81t-73 -31
q-32 0 -54 22t-22 65q0 39 15 68t41 29q12 0 12 -6q-26 -37 -26 -85q0 -42 30 -42q17 0 32 15.5t15 36.5q0 43 -22.5 117t-26.5 94q-41 -50 -119 -102q18 -49 18 -80q0 -52 -29 -81.5t-67 -29.5q-31 0 -52.5 20.5t-21.5 57.5q0 40 88 104q-6 23 -16.5 53.5t-17 51t-6.5 27.5
q-5 -9 -46 -124q-32 -89 -79.5 -135t-95.5 -46q-49 0 -84 47q-72 -62 -159 -62q-102 0 -154.5 67t-52.5 162q0 93 46.5 165t119.5 72q35 0 68.5 -26t36.5 -73q2 -10 2 -16q0 -22 -30.5 -39t-59.5 -17t-29 13q0 3 3 3q6 1 16 23t10 39q0 13 -7 16q-46 -13 -77 -69.5
t-31 -121.5q0 -71 41.5 -119.5t126.5 -48.5q63 0 117 54q-34 65 -34 156q0 104 39.5 169t83.5 65q26 0 42.5 -25.5t16.5 -74.5q0 -61 -23.5 -133.5t-67.5 -130.5q22 -50 62 -50q31 0 64.5 38.5t62.5 112.5q28 69 46 143t22 113z" />
    <glyph glyph-name="cey" unicode="cey" horiz-adv-x="980" 
d="M371 181q0 -57 17 -108q39 51 61 114.5t22 110.5q0 52 -25 52q-27 0 -51 -44.5t-24 -124.5zM81 125q0 -74 36 -112t92 -38q70 0 130 47q-38 62 -38 152q0 105 47 170t99 65q61 0 61 -91q0 -60 -30 -134.5t-82 -132.5q23 -47 58 -47q34 0 61 38t44.5 92.5t34.5 109
t41 92.5t54 38q54 0 54 -104q0 -33 -9 -110t-9 -100q0 -58 24 -58q22 0 51.5 42.5t45.5 95.5q14 48 14 226q0 3 3.5 8t8.5 5q15 0 43.5 -3.5t28.5 -7.5q-17 -76 -21 -236q-12 -562 -278 -562q-66 0 -119.5 34t-68.5 97v1l8 16q1 2 1.5 4t0.5 3.5t1 1.5q4 0 7 -10
q21 -49 63.5 -76.5t91.5 -27.5q42 0 75.5 17t55 50.5t36.5 67.5t23.5 85.5t13 85.5t9 86.5t6.5 70.5q-18 -38 -51 -76.5t-70 -38.5q-74 0 -74 143q0 45 8 116t8 81q0 19 -7 19q-11 0 -25 -37.5t-31 -90.5t-38 -106t-54 -90.5t-71 -37.5q-58 0 -95 49q-73 -55 -155 -55
q-78 0 -130 51.5t-52 149.5t49 178t122 80q31 0 51 -25t24 -74q2 -10 2 -16q0 -24 -17 -40t-43 -16q-29 0 -29 13q0 3 3 3q6 1 16 23t10 39q0 13 -7 16q-46 -12 -79 -75.5t-33 -133.5z" />
    <glyph glyph-name="cl" unicode="cl" horiz-adv-x="554" 
d="M442 854q65 0 65 -152q0 -352 -133 -576q30 -110 96 -110q43 0 68 62q5 12 8 12t3 -7v-3l6 -4q0 -39 -29 -85t-67 -46q-73 0 -115 135q-48 -68 -102 -104t-102 -36q-57 0 -92.5 51t-35.5 147q0 99 50.5 186t119.5 87q31 0 51 -25t24 -74q2 -10 2 -15q0 -23 -17.5 -40
t-42.5 -17q-29 0 -29 13q0 3 3 3q6 1 16 23t10 39q0 13 -7 16q-40 -3 -76 -74t-36 -143q0 -63 24.5 -97t64.5 -34q39 0 83 32.5t83 95.5q-27 116 -27 271q0 185 37 327t97 142zM461 671q0 84 -23 84q-27 0 -55 -143t-28 -294q0 -86 10 -149q96 195 96 502z" />
    <glyph glyph-name="cr" unicode="cr" horiz-adv-x="599" 
d="M379 237q-9 -121 -80 -202t-149 -81q-63 0 -98 59.5t-35 144.5q0 100 47 176.5t129 76.5q32 0 52 -29t20 -66q0 -32 -17 -54t-49 -22q-29 0 -29 13q0 3 3 3q7 1 17 25t10 40q0 13 -8 13q-43 0 -75.5 -63t-32.5 -135q0 -57 23.5 -93.5t72.5 -36.5q44 0 87 34.5t61 89.5
q16 48 23 116q-45 28 -45 101q0 33 12.5 55.5t34.5 22.5q37 0 37 -46q0 -11 -2.5 -33.5t-2.5 -31.5q0 -24 9 -24q5 0 22 10q15 10 37.5 30t39 34.5t19.5 14.5q10 0 21.5 -14.5t11.5 -25.5l-3 -13q-18 -47 -25 -64q-32 -77 -32 -155q0 -60 14 -97t34 -37q29 0 52 74
q4 13 14 20q5 3 6 3q3 0 3 -4l-1 -5q-3 -60 -34.5 -97.5t-69.5 -37.5q-35 0 -59 35t-24 104q0 92 25 184q-24 -12 -66 -12z" />
    <glyph glyph-name="cry" unicode="cry" horiz-adv-x="991" 
d="M512 379h1q10 0 21.5 -14.5t11.5 -25.5l-3 -13q-18 -47 -25 -64q-40 -96 -40 -165q0 -61 30 -61q23 0 46 53t40.5 116t45.5 116t60 53q54 0 54 -104q0 -33 -9 -110t-9 -100q0 -58 24 -58q22 0 51.5 42.5t45.5 95.5q14 48 14 226q0 3 3.5 8t8.5 5q15 0 43.5 -3.5
t28.5 -7.5q-17 -76 -21 -236q-8 -410 -158 -525q-49 -37 -120 -37q-66 0 -119.5 34t-68.5 97v1l8 16q1 2 1.5 4t0.5 3.5t1 1.5q4 0 7 -10q21 -49 63.5 -76.5t91.5 -27.5q54 0 98 34q38 31 63.5 93t33 111t15 125t9.5 90q-2 5 -5 5q-18 -38 -48.5 -74t-67.5 -36
q-74 0 -74 143q0 45 8 116t8 81q0 19 -7 19q-11 0 -23.5 -37t-27.5 -89t-34 -104.5t-49 -89.5t-66 -37q-63 0 -63 96q0 64 31 180l3 10q-24 -12 -66 -12q-9 -121 -80 -202t-149 -81q-63 0 -98 59.5t-35 144.5q0 100 47 176.5t129 76.5q32 0 52 -29t20 -66q0 -32 -17 -54
t-49 -22q-29 0 -29 13q0 3 3 3q7 1 17 25t10 40q0 13 -8 13q-43 0 -75.5 -63t-32.5 -135q0 -57 23.5 -93.5t72.5 -36.5q44 0 87 34.5t61 89.5q16 48 23 116q-45 28 -45 101q0 33 12.5 55.5t34.5 22.5q37 0 37 -46q0 -11 -2.5 -33.5t-2.5 -31.5q0 -24 9 -24q5 0 22 10
q15 10 37.5 30t39 34.5t19.5 14.5z" />
    <glyph glyph-name="cs" unicode="cs" horiz-adv-x="526" 
d="M432 52q0 48 -25 129t-25 86q-5 -9 -11.5 -27.5t-16.5 -47.5t-18 -49q-29 -76 -81 -132.5t-105 -56.5q-63 0 -98 59.5t-35 144.5q0 100 47 176.5t129 76.5q32 0 52 -29t20 -66q0 -32 -17 -54t-49 -22q-29 0 -29 13q0 3 3 3q7 1 17 25t10 40q0 13 -8 13q-43 0 -75.5 -63
t-32.5 -135q0 -57 23.5 -93.5t72.5 -36.5q30 0 64 35q32 32 66 117q28 68 46 141.5t22 114.5q1 15 24 28t37 13q8 0 8 -5l-1 -4q-1 -4 -2 -11.5t-2.5 -17t-3.5 -22t-3 -26.5t-2 -30t-1 -32q0 -35 34.5 -138.5t34.5 -145.5q0 -44 -32.5 -69.5t-74.5 -25.5q-36 0 -60.5 20
t-24.5 58q0 21 5 37.5t10 16.5q3 0 3 -2q4 -36 24 -60.5t41 -24.5q17 0 28.5 19.5t11.5 59.5z" />
    <glyph glyph-name="csquote" unicode="c&#x2019;s" horiz-adv-x="559" 
d="M150 -46q-63 0 -98 59.5t-35 144.5q0 100 47 176.5t129 76.5q32 0 52 -29t20 -66q0 -32 -17 -54t-49 -22q-29 0 -29 13q0 3 3 3q7 1 17 25t10 40q0 13 -8 13q-43 0 -75.5 -63t-32.5 -135q0 -57 23.5 -93.5t72.5 -36.5q45 0 89.5 55.5t72.5 130t46 136t20 86.5q1 15 24 28
t37 13q8 0 8 -5l-1 -4q-1 -4 -2 -11.5t-2.5 -17t-3.5 -22t-3 -26.5t-2 -30t-1 -32q0 -35 31 -150.5t31 -157.5q0 -43 -27.5 -68.5t-62.5 -25.5q-31 0 -52.5 20.5t-21.5 58.5q0 13 4.5 26.5t10 20.5t8.5 7q2 0 2 -3v-4q0 -59 39 -59q32 0 32 57q0 48 -24 144.5t-24 102.5
q-7 -15 -23 -54.5t-28.5 -70t-35 -69.5t-45.5 -65t-56 -44.5t-70 -18.5zM319 701q36 37 61 37q35 0 35 -66q0 -100 -64 -198l-15 10q18 36 18 105q0 76 -35 112z" />
    <glyph glyph-name="d_r" unicode="dr" horiz-adv-x="683" 
d="M226 271q0 43 -30 43q-39 0 -80 -66t-41 -166q0 -73 33 -73q17 0 37 21t38.5 55t30.5 84t12 102zM241 137q-21 -74 -55 -124t-70 -50q-53 0 -79.5 42t-26.5 107q0 97 48 183t116 86q37 0 59 -22q3 66 11.5 141.5t19 152t13.5 103.5q6 6 11 6q3 0 4 -1q8 -6 26.5 -10.5
t30.5 -9.5t12 -15q0 -8 -16.5 -92t-33.5 -202.5t-17 -210.5q0 -100 16 -152.5t39 -52.5q27 0 51 63t32 169q-42 29 -42 99q0 33 12.5 55.5t34.5 22.5q37 0 37 -46q0 -11 -2.5 -33.5t-2.5 -31.5q0 -24 9 -24q5 0 22 10q15 10 37.5 30t39 34.5t19.5 14.5q10 0 21.5 -14.5
t11.5 -25.5l-3 -13q-18 -47 -25 -64q-32 -77 -32 -155q0 -60 14 -97t34 -37q29 0 52 74q4 13 14 20q5 3 6 3q3 0 3 -4l-1 -5q-3 -60 -34.5 -97.5t-69.5 -37.5q-35 0 -59 35t-24 104q0 92 25 184q-29 -13 -57 -13q-3 0 -6 0.5t-4 0.5q-10 -111 -52 -191.5t-86 -80.5
q-65 0 -83 172z" />
    <glyph glyph-name="d_r_y" unicode="dry" horiz-adv-x="1083" 
d="M569 107q2 -64 31 -64q23 0 46 53t40.5 116t45.5 116t60 53q54 0 54 -104q0 -33 -9 -110t-9 -100q0 -58 24 -58q22 0 51.5 42.5t45.5 95.5q14 48 14 226q0 3 3.5 8t8.5 5q15 0 43.5 -3.5t28.5 -7.5q-17 -76 -21 -236q-12 -562 -278 -562q-66 0 -119.5 34t-68.5 97v1l8 16
q1 2 1.5 4t0.5 3.5t1 1.5q4 0 7 -10q21 -49 63.5 -76.5t91.5 -27.5q37 0 67 14t50 36t36.5 56t25.5 66t16 75t10 74t7 71.5t7 60.5q-2 5 -5 5q-18 -38 -48.5 -74t-67.5 -36q-74 0 -74 143q0 45 8 116t8 81q0 19 -7 19q-11 0 -23.5 -37t-27.5 -89.5t-34 -104.5t-49 -89
t-66 -37q-62 0 -62 95q0 92 25 184q-29 -13 -57 -13q-3 0 -6 0.5t-4 0.5q-10 -111 -52 -191.5t-86 -80.5q-65 0 -83 172q-21 -74 -55 -124t-70 -50q-53 0 -79.5 42t-26.5 107q0 97 48 183t116 86q37 0 59 -22q3 66 11.5 141.5t19 152t13.5 103.5q6 6 11 6q3 0 4 -1
q8 -6 26.5 -10.5t30.5 -9.5t12 -15q0 -8 -16.5 -92t-33.5 -202.5t-17 -210.5q0 -100 16 -152.5t39 -52.5q27 0 51 63t32 169q-42 29 -42 99q0 33 12.5 55.5t34.5 22.5q37 0 37 -46q0 -11 -2.5 -33.5t-2.5 -31.5q0 -24 9 -24q5 0 22 10q15 10 37.5 30t39 34.5t19.5 14.5
q10 0 21.5 -14.5t11.5 -25.5l-3 -13q-18 -47 -25 -64q-32 -77 -32 -155zM226 271q0 43 -30 43q-39 0 -80 -66t-41 -166q0 -73 33 -73q17 0 37 21t38.5 55t30.5 84t12 102z" />
    <glyph glyph-name="dsquote" unicode="d&#x2019;s" horiz-adv-x="687" 
d="M241 137q-21 -74 -55 -124t-70 -50q-53 0 -79.5 42t-26.5 107q0 97 48 183t116 86q37 0 59 -22q3 66 11.5 141.5t19 152t13.5 103.5q6 6 11 6q3 0 4 -1q8 -6 23.5 -9t24.5 -7t9 -14q0 -8 -13.5 -93t-27.5 -204.5t-14 -211.5q0 -87 17 -143.5t48 -56.5q29 0 65 56
q41 62 73 166.5t38 165.5q1 15 24 28t37 13q8 0 8 -5l-1 -4q-1 -4 -2 -11.5t-3 -17t-3.5 -22t-2.5 -26.5t-2 -30t-1 -32q0 -35 36.5 -149.5t36.5 -156.5q0 -43 -26.5 -69t-60.5 -26q-29 0 -49.5 20.5t-20.5 58.5q0 13 3.5 26.5t7.5 21t6 7.5q1 0 1 -3q0 -64 33 -64
q37 0 37 58q0 49 -29 150t-29 106q-28 -132 -94 -235q-42 -63 -88 -63q-82 0 -112 152zM226 271q0 43 -30 43q-39 0 -80 -66t-41 -166q0 -73 33 -73q17 0 37 21t38.5 55t30.5 84t12 102zM423 699q36 37 61 37q35 0 35 -66q0 -100 -64 -198l-15 10q18 36 18 105q0 76 -35 112
z" />
    <glyph glyph-name="eacute_n" unicode="&#xe9;n" horiz-adv-x="589" 
d="M229 642q71 -13 71 -45q0 -35 -74.5 -71.5t-164.5 -40.5l3 18q34 5 94 45t71 94zM151 7q78 0 148 335q3 14 12 25t19 11t23 5.5t16 5.5q6 0 7 -13q2 -33 2 -113q0 -92 -1 -118q7 16 24.5 58t30 70t32.5 61.5t40 52.5q4 3 8 3q9 0 27.5 -13.5t18.5 -21.5q0 -3 -1 -5
q-35 -78 -35 -205q0 -42 9.5 -73.5t24.5 -31.5q21 0 43 61q2 1 4 1q3 0 3 -3q0 -34 -19.5 -68t-47.5 -34q-30 0 -50.5 26t-29 67.5t-11 70.5t-2.5 57q-21 -23 -38.5 -68.5t-34 -108.5t-21.5 -78q-3 -10 -13 -10q-12 0 -30.5 11t-18.5 16q0 6 1 9q2 9 12 139q2 26 2 102v69
q-4 -15 -15.5 -67t-22.5 -91.5t-28 -84.5t-40.5 -70.5t-51.5 -25.5q-73 0 -109 54t-36 136q0 97 46 177t115 80q33 0 51.5 -22t18.5 -57q0 -51 -38.5 -107.5t-112.5 -98.5q4 -59 23 -87t46 -28zM175 330q0 19 -15 19q-32 0 -54.5 -57.5t-24.5 -127.5q31 21 62.5 75.5
t31.5 90.5z" />
    <glyph glyph-name="eacute_r" unicode="&#xe9;r" horiz-adv-x="584" 
d="M239 642q71 -13 71 -45q0 -35 -74.5 -71.5t-164.5 -40.5l3 18q34 5 94 45t71 94zM371 237q-8 0 -12 1q-6 -46 -18.5 -89t-34.5 -88.5t-60 -73t-86 -27.5q-50 0 -89 41t-59 126q-8 0 -12 1q-2 0 -3 3l-3 9t-7 11q-2 2 -2 3q0 3 4 6t8 3l15 -3q5 97 49.5 172t110.5 75
q32 0 50.5 -25.5t18.5 -64.5q0 -57 -38.5 -113t-111.5 -84q11 -131 85 -131q122 0 155 261q-40 30 -40 97q0 33 12.5 55.5t34.5 22.5q37 0 37 -46q0 -11 -2.5 -33.5t-2.5 -31.5q0 -24 9 -24q5 0 22 10q15 10 37.5 30t39 34.5t19.5 14.5q10 0 21.5 -14.5t11.5 -25.5l-3 -13
q-18 -47 -25 -64q-32 -77 -32 -155q0 -60 14 -97t34 -37q29 0 52 74q4 13 14 20q4 3 6 3q3 0 3 -4l-1 -5q-3 -60 -34.5 -97.5t-69.5 -37.5q-35 0 -59 35t-24 104q0 92 25 184q-24 -12 -59 -12zM169 349q-32 0 -54.5 -58t-24.5 -129q50 18 76 61t26 84q0 42 -23 42z" />
    <glyph glyph-name="eacute_rr" unicode="&#xe9;rr" horiz-adv-x="864" 
d="M268 642q71 -13 71 -45q0 -35 -74.5 -71.5t-164.5 -40.5l3 18q34 5 94 45t71 94zM652 278q-10 0 -15 1q-3 -11 -9.5 -42t-11 -52t-13.5 -54t-17 -55.5t-20 -48.5t-24.5 -42t-29 -26.5t-34.5 -10.5q-72 0 -72 130q0 86 24 171q-24 -12 -59 -12q-8 0 -12 1
q-6 -46 -18.5 -89t-34.5 -88.5t-60 -73t-86 -27.5q-50 0 -89 41t-59 126q-8 0 -12 1q-2 0 -3 3l-3 9t-7 11q-2 2 -2 3q0 3 4 6t8 3l15 -3q5 97 49.5 172t110.5 75q32 0 50.5 -25.5t18.5 -64.5q0 -57 -38.5 -113t-111.5 -84q11 -131 85 -131q122 0 155 261q-40 30 -40 97
q0 33 12.5 55.5t34.5 22.5q37 0 37 -46q0 -11 -2.5 -33.5t-2.5 -31.5q0 -24 9 -24q5 0 22 10q15 10 37.5 30t39 34.5t19.5 14.5q10 0 21.5 -14.5t11.5 -25.5l-3 -13q-18 -47 -25 -64q-31 -75 -31 -145q0 -43 11.5 -69.5t29.5 -26.5q29 0 56.5 81.5t43.5 188.5q-40 30 -40 97
q0 33 12.5 55.5t34.5 22.5q37 0 37 -46q0 -11 -2.5 -33.5t-2.5 -31.5q0 -24 9 -24q5 0 22 10q15 10 37.5 30t39 34.5t19.5 14.5q10 0 21.5 -14.5t11.5 -25.5l-3 -13q-18 -47 -25 -64q-35 -83 -35 -170q0 -44 10 -72t26 -28q35 0 66 83q6 15 14 20q4 3 6 3q3 0 3 -4l-1 -5
q-7 -58 -39 -114t-83 -56q-67 0 -67 129q0 92 28 201q-24 -12 -59 -12zM169 349q-32 0 -54.5 -58t-24.5 -129q50 18 76 61t26 84q0 42 -23 42z" />
    <glyph glyph-name="eacute_s" unicode="&#xe9;s" horiz-adv-x="496" 
d="M229 642q71 -13 71 -45q0 -35 -74.5 -71.5t-164.5 -40.5l3 18q34 5 94 45t71 94zM157 4q30 0 64 35q32 32 66 117q28 68 46 141.5t22 114.5q1 15 24 28t37 13q8 0 8 -5l-1 -4q-1 -4 -2 -11.5t-3 -17t-3.5 -22t-2.5 -26.5t-2 -30t-1 -32q0 -35 31 -150.5t31 -157.5
q0 -43 -27.5 -68.5t-62.5 -25.5q-31 0 -52.5 20.5t-21.5 58.5q0 13 4.5 26.5t10 20.5t8.5 7q2 0 2 -3v-4q0 -59 39 -59q33 0 33 58q0 46 -22.5 139t-22.5 98q-5 -9 -11.5 -27.5t-16.5 -47.5t-18 -49q-69 -179 -165 -179q-73 0 -109.5 54.5t-36.5 136.5q0 97 45.5 175.5
t114.5 78.5q33 0 51.5 -22t18.5 -57q0 -51 -38.5 -107.5t-112.5 -98.5q9 -118 76 -118zM174 330q0 19 -15 19q-32 0 -54.5 -57.5t-24.5 -127.5q31 21 62.5 75.5t31.5 90.5z" />
    <glyph glyph-name="eacutel" unicode="&#xe9;l" horiz-adv-x="473" 
d="M186 642q71 -13 71 -45q0 -35 -74.5 -71.5t-164.5 -40.5l3 18q34 5 94 45t71 94zM-3 163l15 -3q5 97 49.5 172t110.5 75q32 0 50.5 -25.5t18.5 -64.5q0 -57 -38.5 -113t-111.5 -84q11 -131 85 -131q32 0 68 24.5t64 62.5q-21 95 -21 226t21.5 259.5t56.5 210.5t71 82
q65 0 65 -152q0 -103 -37 -274.5t-101 -296.5q39 -234 162 -234q54 0 76 52q5 12 8 12t3 -7v-3l6 -4q-5 -48 -36.5 -75t-73.5 -27q-140 0 -194 206q-71 -91 -154 -91q-50 0 -89 41t-59 126q-8 0 -12 1q-2 0 -3 3l-3 9t-7 11q-2 2 -2 3q0 3 4 6t8 3zM455 671q0 84 -23 84
q-29 0 -55.5 -136.5t-26.5 -296.5q0 -90 8 -155q48 112 72.5 260t24.5 244zM169 349q-32 0 -54.5 -58t-24.5 -129q50 18 76 61t26 84q0 42 -23 42z" />
    <glyph glyph-name="eacutex" unicode="&#xe9;x" horiz-adv-x="553" 
d="M238 642q71 -13 71 -45q0 -35 -74.5 -71.5t-164.5 -40.5l3 18q34 5 94 45t71 94zM317 328v23q35 39 63 39q26 0 29 -28l2 -19q12 -98 20 -141q83 135 167 247q3 3 7 3q9 0 9 -12q0 -4 -1.5 -12t-1.5 -10l-9 -13q-8 -13 -24.5 -38t-36 -56.5t-46 -77t-51.5 -92.5
q33 -134 84 -134q8 0 20 5l16 -5q-35 -51 -72 -51q-55 0 -93 98q-49 -100 -83 -186q-7 -21 -19 -21q-10 0 -10 16q0 5 1 15t1 13l-18 21q2 3 16 30.5t39 75.5t53 97q-9 35 -22.5 97t-15.5 72q-5 -78 -25.5 -153t-63.5 -132.5t-98 -57.5q-59 0 -97.5 43.5t-38.5 142.5
q-43 14 -55 26q-4 4 -4 13v5q0 7 -4 11q-7 7 -7 8t5.5 -2t16 -9t17.5 -9q14 -7 31 -10q5 97 49.5 172t110.5 75q32 0 50.5 -25.5t18.5 -64.5q0 -57 -38.5 -113t-111.5 -84q6 -65 27.5 -99t51.5 -34q36 0 69 52t52.5 131t19.5 158zM175 349q-32 0 -54.5 -58t-24.5 -129
q50 18 76 61t26 84q0 42 -23 42z" />
    <glyph glyph-name="ee" unicode="ee" horiz-adv-x="527" 
d="M-8 105q-9 3 -9 11l-3 5q-3 6 -8 6q-7 5 -10 5q0 1 2 1t18 -1.5t24 -1.5q4 0 8 1q-2 12 -2 37q0 93 43.5 166t110.5 73q33 0 51.5 -22t18.5 -57q0 -49 -36 -104t-107 -97q10 -55 37.5 -89t72.5 -34q60 0 111 41q-31 59 -31 138q0 91 40 158.5t107 67.5q62 0 62 -77
q0 -54 -31.5 -126.5t-81.5 -131.5q25 -67 72 -67q17 0 40.5 16t30.5 34q5 1 8 5t5 7.5t3 3.5q4 0 4 -9q0 -43 -24.5 -72.5t-68.5 -29.5q-76 0 -121 61q-73 -61 -144 -61q-68 0 -109.5 38.5t-55.5 101.5h-2q-20 0 -25 3zM439 318q0 45 -19 45q-29 0 -45.5 -47t-16.5 -113
q0 -54 10 -97q33 50 52 109.5t19 102.5zM185 319q0 30 -22 30q-32 0 -53 -50t-21 -116q0 -20 1 -29q37 23 66 76t29 89z" />
    <glyph glyph-name="eel.001" unicode="eel" horiz-adv-x="754" 
d="M203 4q60 0 111 41q-31 59 -31 138q0 91 40 158.5t107 67.5q62 0 62 -77q0 -54 -31.5 -126.5t-81.5 -131.5q25 -67 72 -67q74 0 132 76q-20 96 -20 219q0 131 21.5 259.5t56.5 210.5t71 82q65 0 65 -152q0 -85 -36 -267.5t-101 -310.5q39 -227 161 -227q54 0 76 52
q5 12 8 12t3 -7v-3l6 -4q-5 -48 -36.5 -75t-73.5 -27q-138 0 -193 201q-66 -84 -142 -84t-121 61q-73 -61 -144 -61q-68 0 -109.5 38.5t-55.5 101.5h-2q-20 0 -25 3q-9 3 -9 11l-3 5q-3 6 -8 6q-7 5 -10 5q0 1 2 1q8 0 26 -1.5t24 -1.5q-2 24 -2 38q0 93 43.5 166t110.5 73
q33 0 51.5 -22t18.5 -57q0 -49 -36 -104t-107 -97q10 -55 37.5 -89t72.5 -34zM731 671q0 84 -23 84q-29 0 -55.5 -136.5t-26.5 -296.5q0 -86 8 -150q50 113 73.5 264.5t23.5 234.5zM439 318q0 45 -19 45q-29 0 -45.5 -47t-16.5 -113q0 -54 10 -97q33 50 52 109.5t19 102.5z
M185 319q0 30 -22 30q-32 0 -53 -50t-21 -116q0 -20 1 -29q37 23 66 76t29 89z" />
    <glyph glyph-name="een" unicode="een" horiz-adv-x="906" 
d="M328 23q-73 -61 -144 -61q-68 0 -109.5 38.5t-55.5 101.5h-2q-20 0 -25 3q-9 3 -9 11l-3 5q-3 6 -8 6q-7 5 -10 5q0 1 2 1t18 -1.5t24 -1.5q4 0 8 1q-2 12 -2 37q0 93 43.5 166t110.5 73q33 0 51.5 -22t18.5 -57q0 -49 -36 -104t-107 -97q10 -55 37.5 -89t72.5 -34
q60 0 111 41q-31 59 -31 138q0 91 40 158.5t107 67.5q62 0 62 -77q0 -54 -31.5 -126.5t-81.5 -131.5q24 -66 64 -66q23 0 44 22t36.5 52t30 74t22.5 75t17 68.5t10 42.5q4 14 15 26t21 12t23 5.5t16 5.5q6 0 7 -13q2 -33 2 -113q0 -92 -1 -118q7 16 24.5 58t30 70t32.5 61.5
t40 52.5q5 3 8 3q9 0 27.5 -13.5t18.5 -21.5q0 -3 -1 -5q-35 -78 -35 -205q0 -42 9.5 -73.5t24.5 -31.5q21 0 43 61q2 1 4 1q3 0 3 -3q0 -34 -19.5 -68t-47.5 -34q-30 0 -50.5 26t-29 67.5t-11 70.5t-2.5 57q-21 -23 -38.5 -68.5t-34 -108.5t-21.5 -78q-3 -10 -13 -10
q-12 0 -30.5 11t-18.5 16q0 6 1 9q2 9 12 139q2 26 2 102v69q-5 -16 -18 -67t-26 -90t-33 -83t-49 -69t-64 -25q-57 0 -96 56zM439 318q0 45 -19 45q-29 0 -45.5 -47t-16.5 -113q0 -54 10 -97q33 50 52 109.5t19 102.5zM185 319q0 30 -22 30q-32 0 -53 -50t-21 -116
q0 -20 1 -29q37 23 66 76t29 89z" />
    <glyph glyph-name="eer" unicode="eer" horiz-adv-x="873" 
d="M660 239q-8 0 -12 1q-6 -46 -18.5 -89t-34.5 -88.5t-60 -73t-86 -27.5q-76 0 -121 61q-73 -61 -144 -61q-68 0 -109.5 38.5t-55.5 101.5h-2q-20 0 -25 3q-9 3 -9 11l-3 5q-3 6 -8 6q-7 5 -10 5q0 1 2 1q8 0 26 -1.5t24 -1.5q-2 24 -2 38q0 93 43.5 166t110.5 73
q33 0 51.5 -22t18.5 -57q0 -49 -36 -104t-107 -97q10 -55 37.5 -89t72.5 -34q60 0 111 41q-31 59 -31 138q0 91 40 158.5t107 67.5q62 0 62 -77q0 -54 -31.5 -126.5t-81.5 -131.5q25 -67 72 -67q121 0 164 248q-35 31 -35 94q0 33 12.5 55.5t34.5 22.5q37 0 37 -46
q0 -11 -2.5 -33.5t-2.5 -31.5q0 -24 9 -24q5 0 22 10q15 10 37.5 30t39 34.5t19.5 14.5q10 0 21.5 -14.5t11.5 -25.5l-3 -13q-18 -47 -25 -64q-32 -77 -32 -155q0 -60 14 -97t34 -37q29 0 52 74q4 13 14 20q5 3 6 3q3 0 3 -4l-1 -5q-3 -60 -34.5 -97.5t-69.5 -37.5
q-35 0 -59 35t-24 104q0 92 25 184q-24 -12 -59 -12zM439 318q0 45 -19 45q-29 0 -45.5 -47t-16.5 -113q0 -54 10 -97q33 50 52 109.5t19 102.5zM185 319q0 30 -22 30q-32 0 -53 -50t-21 -116q0 -20 1 -29q37 23 66 76t29 89z" />
    <glyph glyph-name="ees" unicode="ees" horiz-adv-x="770" 
d="M203 4q58 0 106 37q-26 59 -26 142q0 91 40 158.5t107 67.5q62 0 62 -77q0 -54 -31.5 -126.5t-81.5 -131.5q24 -64 62 -64q61 0 120 146q28 68 46 141.5t22 114.5q1 15 24 28t37 13q8 0 8 -5l-1 -4q-1 -4 -2 -11.5t-3 -17t-3.5 -22t-2.5 -26.5t-2 -30t-1 -32
q0 -35 31 -150.5t31 -157.5q0 -43 -27.5 -68.5t-62.5 -25.5q-31 0 -52.5 20.5t-21.5 58.5q0 13 4.5 26.5t10 20.5t8.5 7q2 0 2 -3v-4q0 -59 39 -59q33 0 33 58q0 46 -22.5 139t-22.5 98q-5 -9 -11.5 -27.5t-16.5 -47.5t-18 -49q-34 -89 -80.5 -135t-93.5 -46q-56 0 -91 57
q-70 -55 -138 -55t-109.5 38.5t-55.5 101.5h-2q-20 0 -25 3q-9 3 -9 11l-3 5q-3 6 -8 6q-7 5 -10 5q0 1 2 1q45 -3 50 -3q-2 24 -2 38q0 93 43.5 166t110.5 73q33 0 51.5 -22t18.5 -57q0 -49 -36 -104t-107 -97q10 -55 37.5 -89t72.5 -34zM439 318q0 45 -19 45
q-29 0 -45.5 -47t-16.5 -113q0 -54 11 -97q33 49 51.5 109t18.5 103zM185 319q0 30 -22 30q-32 0 -53 -50t-21 -116q0 -20 1 -29q37 23 66 76t29 89z" />
    <glyph glyph-name="eesquote" unicode="ee&#x2019;s" horiz-adv-x="791" 
d="M505 50q55 64 97.5 186.5t47.5 173.5q1 15 24 28t37 13q8 0 8 -5l-1 -4q-1 -4 -2 -11.5t-2.5 -17t-3.5 -22t-3 -26.5t-2 -30t-1 -32q0 -35 31 -150.5t31 -157.5q0 -43 -27.5 -68.5t-62.5 -25.5q-31 0 -52.5 20.5t-21.5 58.5q0 13 4.5 26.5t10 20.5t8.5 7q2 0 2 -3v-4
q0 -59 39 -59q32 0 32 57q0 47 -24 144t-24 103q-5 -11 -23.5 -53t-31 -69t-35.5 -66.5t-43 -63.5t-48 -42t-56 -18q-56 0 -91 57q-70 -55 -138 -55t-109.5 38.5t-55.5 101.5h-2q-20 0 -25 3q-9 3 -9 11l-3 5q-3 6 -8 6q-7 5 -10 5q0 1 2 1t18 -1.5t24 -1.5h8q-2 24 -2 38
q0 93 43.5 166t110.5 73q33 0 51.5 -22t18.5 -57q0 -49 -36 -104t-107 -97q10 -55 37.5 -89t72.5 -34q58 0 106 37q-26 59 -26 142q0 91 40 158.5t107 67.5q62 0 62 -77q0 -54 -31.5 -126.5t-81.5 -131.5q26 -63 63 -63q30 0 63 39zM561 697q36 37 61 37q35 0 35 -66
q0 -100 -64 -198l-15 10q18 36 18 105q0 76 -35 112zM439 318q0 45 -19 45q-29 0 -45.5 -47t-16.5 -113q0 -54 11 -97q33 49 51.5 109t18.5 103zM185 319q0 30 -22 30q-32 0 -53 -50t-21 -116q0 -20 1 -29q37 23 66 76t29 89z" />
    <glyph glyph-name="ell" unicode="ell" horiz-adv-x="692" 
d="M436 854q65 0 65 -152q0 -102 -37.5 -274.5t-101.5 -297.5q23 -134 78 -134q42 0 91 85q-12 92 -12 200q0 147 20.5 293.5t54 241t68.5 94.5q70 0 70 -167q0 -192 -43.5 -365t-111.5 -290q31 -201 130 -201q43 0 68 62q5 12 8 12t3 -7v-3l6 -4q0 -39 -29 -85t-67 -46
q-114 0 -157 215q-65 -86 -122 -86q-65 0 -97 113q-34 -45 -76.5 -71.5t-83.5 -26.5q-50 0 -89 41t-59 126q-8 0 -12 1q-2 0 -3 3l-3 9t-7 11q-2 2 -2 3q0 3 4 6t8 3l15 -3q5 97 49.5 172t110.5 75q32 0 50.5 -25.5t18.5 -64.5q0 -57 -38.5 -113t-111.5 -84q11 -131 85 -131
q33 0 71 26.5t66 66.5q-19 89 -19 222q0 134 20 262t53 208t69 80zM455 671q0 84 -23 84q-29 0 -55.5 -136.5t-26.5 -296.5q0 -88 8 -157q48 112 72.5 260.5t24.5 245.5zM663 714q0 80 -14 80q-17 0 -37 -76t-34 -198.5t-14 -239.5q0 -70 4 -121q42 104 68 249t27 306z
M169 349q-32 0 -54.5 -58t-24.5 -129q50 18 76 61t26 84q0 42 -23 42z" />
    <glyph glyph-name="ells" unicode="ells" horiz-adv-x="998" 
d="M440 -4q44 0 93 88q-14 81 -14 197q0 147 20.5 293.5t54 241t68.5 94.5q70 0 70 -167q0 -193 -44.5 -367t-112.5 -291q18 -113 61 -113q34 0 77 71t77 173.5t47 195.5q0 15 23.5 28t37.5 13q8 0 8 -5l-1 -4q-1 -4 -2 -11.5t-3 -17t-3.5 -22t-2.5 -26.5t-2 -30t-1 -32
q0 -35 41 -150.5t41 -157.5q0 -54 -32 -82.5t-76 -28.5q-40 0 -69 22t-29 59q0 49 29 49q7 0 12 -2q-3 -12 -3 -23q0 -24 14.5 -38t34.5 -14t35.5 15.5t15.5 42.5q0 48 -32 155.5t-32 112.5q-45 -156 -102.5 -244t-108.5 -88q-56 0 -86 104q-68 -92 -127 -92q-65 0 -97 113
q-34 -45 -76.5 -71.5t-83.5 -26.5q-50 0 -89 41t-59 126q-8 0 -12 1q-2 0 -3 3l-3 9t-7 11q-2 2 -2 3q0 3 4 6t8 3l15 -3q5 97 49.5 172t110.5 75q32 0 50.5 -25.5t18.5 -64.5q0 -57 -38.5 -113t-111.5 -84q11 -131 85 -131q33 0 71 26.5t66 66.5q-19 89 -19 222
q0 134 20 262t53 208t69 80q65 0 65 -152q0 -102 -37.5 -274.5t-101.5 -297.5q23 -134 78 -134zM455 671q0 84 -23 84q-29 0 -55.5 -136.5t-26.5 -296.5q0 -88 8 -157q48 112 72.5 260.5t24.5 245.5zM663 714q0 80 -14 80q-17 0 -37 -76t-34 -198.5t-14 -239.5q0 -76 4 -123
q42 104 68 249.5t27 307.5zM169 349q-32 0 -54.5 -58t-24.5 -129q50 18 76 61t26 84q0 42 -23 42z" />
    <glyph glyph-name="ellsquote" unicode="ell&#x2019;s" horiz-adv-x="1059" 
d="M652 -4q46 0 105 74t101.5 172.5t49.5 169.5q1 15 24 28t37 13q8 0 8 -5l-1 -4q-1 -4 -2 -11.5t-2.5 -17t-3.5 -22t-3 -26.5t-2 -30t-1 -32q0 -35 31 -150.5t31 -157.5t-29 -65.5t-67 -23.5q-37 0 -63.5 22t-26.5 62q0 21 5.5 43.5t10.5 22.5q3 0 3 -2v-3q0 -39 19 -64.5
t41 -25.5q16 0 26.5 14.5t10.5 42.5q0 48 -21 144t-21 101q-45 -147 -115.5 -237t-136.5 -90q-72 0 -110 108q-71 -101 -133 -101q-65 0 -97 113q-34 -45 -76.5 -71.5t-83.5 -26.5q-50 0 -89 41t-59 126q-8 0 -12 1q-2 0 -3 3l-3 9t-7 11q-2 2 -2 3q0 3 4 6t8 3l15 -3
q5 97 49.5 172t110.5 75q32 0 50.5 -25.5t18.5 -64.5q0 -57 -38.5 -113t-111.5 -84q11 -131 85 -131q33 0 71 26.5t66 66.5q-19 89 -19 222q0 134 20 262t53 208t69 80q65 0 65 -152q0 -102 -37.5 -274.5t-101.5 -297.5q23 -134 78 -134q46 0 98 96q-19 82 -19 202
q0 140 20 283t53.5 238t69.5 95q70 0 70 -167q0 -191 -43 -362.5t-110 -288.5q23 -96 73 -96zM455 671q0 84 -23 84q-29 0 -55.5 -136.5t-26.5 -296.5q0 -88 8 -157q48 112 72.5 260.5t24.5 245.5zM663 714q0 80 -14 80q-28 0 -56.5 -171t-28.5 -349q0 -61 5 -114
q41 105 67 249t27 305zM834 719q36 37 61 37q35 0 35 -66q0 -100 -64 -198l-15 10q18 36 18 105q0 76 -35 112zM169 349q-32 0 -54.5 -58t-24.5 -129q50 18 76 61t26 84q0 42 -23 42z" />
    <glyph glyph-name="els" unicode="els" horiz-adv-x="777" 
d="M451 16q32 0 63.5 54.5t52.5 128t34 132t15 81.5q1 15 24 28t37 13q8 0 8 -5l-1 -4q-1 -4 -2 -11.5t-2.5 -17t-3.5 -22t-3 -26.5t-2 -30t-1 -32q0 -35 41 -150.5t41 -157.5q0 -54 -32 -82.5t-76 -28.5q-40 0 -69 22t-29 59q0 49 29 49q7 0 12 -2q-3 -12 -3 -23
q0 -24 14.5 -38t34.5 -14q21 0 36 15.5t15 42.5q0 48 -32 155.5t-32 112.5q-10 -57 -37 -129.5t-67.5 -131.5t-75.5 -59q-74 0 -116 119q-34 -47 -78 -75.5t-86 -28.5q-50 0 -89 41t-59 126q-8 0 -12 1q-2 0 -3 3l-3 9t-7 11q-2 2 -2 3q0 3 4 6t8 3l15 -3q5 97 49.5 172
t110.5 75q32 0 50.5 -25.5t18.5 -64.5q0 -57 -38.5 -113t-111.5 -84q11 -131 85 -131q34 0 72.5 28t67.5 69q-29 93 -29 216q0 131 21.5 259.5t56.5 210.5t71 82q65 0 65 -152q0 -100 -36 -268.5t-97 -293.5q27 -124 83 -124zM350 322q0 -83 12 -148q46 111 69.5 257
t23.5 240q0 84 -23 84q-29 0 -55.5 -136.5t-26.5 -296.5zM169 349q-32 0 -54.5 -58t-24.5 -129q50 18 76 61t26 84q0 42 -23 42z" />
    <glyph glyph-name="elsquote" unicode="el&#x2019;s" horiz-adv-x="838" 
d="M446 -1q45 0 100 69.5t94.5 167t46.5 176.5q1 15 24 28t37 13q8 0 8 -5l-1 -4q-1 -4 -2 -11.5t-3 -17t-3.5 -22t-2.5 -26.5t-2 -30t-1 -32q0 -35 31 -150.5t31 -157.5t-29 -65.5t-67 -23.5q-37 0 -63.5 22t-26.5 62q0 21 5.5 43.5t10.5 22.5q3 0 3 -2v-3q0 -39 19 -64.5
t41 -25.5q16 0 26.5 14.5t10.5 42.5q0 48 -21 144t-21 101q-45 -147 -116.5 -236.5t-138.5 -89.5q-78 0 -116 120q-34 -45 -76.5 -72t-83.5 -27q-50 0 -89 41t-59 126q-8 0 -12 1q-2 0 -3 3l-3 9t-7 11q-2 2 -2 3q0 3 4 6t8 3l15 -3q5 97 49.5 172t110.5 75q32 0 50.5 -25.5
t18.5 -64.5q0 -57 -38.5 -113t-111.5 -84q11 -131 85 -131q34 0 72 27t66 67q-21 78 -21 205q0 134 20.5 266.5t54 216t68.5 83.5q65 0 65 -152q0 -101 -37 -272t-100 -296q21 -135 82 -135zM432 755q-26 0 -51.5 -149.5t-25.5 -317.5q0 -77 5 -118q47 112 71 259t24 242
q0 84 -23 84zM613 719q36 37 61 37q35 0 35 -66q0 -100 -64 -198l-15 10q18 36 18 105q0 76 -35 112zM169 349q-32 0 -54.5 -58t-24.5 -129q50 18 76 61t26 84q0 42 -23 42z" />
    <glyph glyph-name="en" unicode="en" horiz-adv-x="597" 
d="M151 7q78 0 148 335q3 14 12 25t19 11t23 5.5t16 5.5q6 0 7 -13q2 -33 2 -113q0 -92 -1 -118q7 16 24.5 58t30 70t32.5 61.5t40 52.5q4 3 8 3q9 0 27.5 -13.5t18.5 -21.5q0 -3 -1 -5q-35 -78 -35 -205q0 -42 9.5 -73.5t24.5 -31.5q21 0 43 61q2 1 4 1q3 0 3 -3
q0 -34 -19.5 -68t-47.5 -34q-30 0 -50.5 26t-29 67.5t-11 70.5t-2.5 57q-21 -23 -38.5 -68.5t-34 -108.5t-21.5 -78q-3 -10 -13 -10q-12 0 -30.5 11t-18.5 16q0 6 1 9q2 9 12 139q2 26 2 102v69q-4 -15 -15.5 -67t-22.5 -91.5t-28 -84.5t-40.5 -70.5t-51.5 -25.5
q-73 0 -109 54t-36 136q0 97 46 177t115 80q33 0 51.5 -22t18.5 -57q0 -51 -38.5 -107.5t-112.5 -98.5q4 -59 23 -87t46 -28zM175 330q0 19 -15 19q-32 0 -54.5 -57.5t-24.5 -127.5q31 21 62.5 75.5t31.5 90.5z" />
    <glyph glyph-name="enl" unicode="enl" horiz-adv-x="819" 
d="M233 328q0 -51 -38.5 -107.5t-112.5 -98.5q4 -59 23 -87t46 -28q78 0 148 335q3 14 12 25t19 11t23 5.5t16 5.5q6 0 7 -13q2 -33 2 -113q0 -92 -1 -118q7 16 24.5 58t30 70t32.5 61.5t40 52.5q4 3 8 3q9 0 27.5 -13.5t18.5 -21.5q0 -3 -1 -5q-35 -78 -35 -205
q0 -136 55 -136q37 0 76 62q-24 103 -24 242q0 130 20 255.5t53.5 205.5t69.5 80q65 0 65 -152q0 -80 -35 -272.5t-98 -323.5q40 -209 157 -209q54 0 76 52q5 12 8 12t3 -7v-3l6 -4q-5 -48 -36.5 -75t-73.5 -27q-128 0 -182 189q-52 -71 -100 -71q-50 0 -83 69t-33 165v21
q-21 -23 -38.5 -68.5t-34 -108.5t-21.5 -78q-3 -10 -13 -10q-12 0 -30.5 11t-18.5 16q0 6 1 9q2 9 12 139q2 26 2 102v69q-4 -15 -15.5 -67t-22.5 -91.5t-28 -84.5t-40.5 -70.5t-51.5 -25.5q-73 0 -109 54t-36 136q0 97 46 177t115 80q33 0 51.5 -22t18.5 -57zM686 322
q0 -97 9 -164q46 118 71 284.5t25 228.5q0 84 -23 84q-29 0 -55.5 -136.5t-26.5 -296.5zM160 349q-32 0 -54.5 -57.5t-24.5 -127.5q31 21 62.5 75.5t31.5 90.5q0 19 -15 19z" />
    <glyph glyph-name="enn" unicode="enn" horiz-adv-x="967" 
d="M303 128q2 26 2 171q-4 -15 -15.5 -67t-22.5 -91.5t-28 -84.5t-40.5 -70.5t-51.5 -25.5q-73 0 -109 54t-36 136q0 97 46 177t115 80q33 0 51.5 -22t18.5 -57q0 -51 -38.5 -107.5t-112.5 -98.5q4 -59 23 -87t46 -28q78 0 148 335q3 14 12 25t19 11t23 5.5t16 5.5
q6 0 7 -13q2 -33 2 -113q0 -92 -1 -118q7 16 24.5 58t30 70t32.5 61.5t40 52.5q4 3 8 3q9 0 27.5 -13.5t18.5 -21.5q0 -3 -1 -5q-34 -87 -34 -246q0 -92 18 -92q25 0 49 62t50 167.5t33 125.5l1.5 6t2.5 3l3 1.5t4 1t5 0.5q8 1 19.5 3.5t19.5 4.5t11 2q9 0 9 -86
q0 -45 -0.5 -94t-0.5 -64q7 16 24.5 58t30 70t32.5 61.5t40 52.5q4 3 8 3q9 0 27.5 -13.5t18.5 -21.5q0 -3 -1 -5q-35 -78 -35 -205q0 -42 9.5 -73.5t24.5 -31.5q21 0 43 61q2 1 4 1q3 0 3 -3q0 -34 -19.5 -68t-47.5 -34q-30 0 -50.5 26t-29 67.5t-11 70.5t-2.5 57
q-22 -23 -38.5 -61.5t-35 -103.5t-20.5 -71q-1 -10 -15 -10q-10 0 -21 1.5t-18.5 3.5t-7.5 3q20 118 20 282q0 44 -1 66l-5 -25q-11 -51 -16.5 -76t-17.5 -73.5t-23 -75t-25.5 -57t-32 -44.5t-36.5 -14q-70 0 -77 255q-21 -23 -38.5 -68.5t-34 -108.5t-21.5 -78
q0 -10 -15 -10q-8 0 -17.5 4t-10.5 8q-2 5 -10.5 7t-8.5 8t1 9q2 9 12 139zM175 330q0 19 -15 19q-32 0 -54.5 -57.5t-24.5 -127.5q31 21 62.5 75.5t31.5 90.5z" />
    <glyph glyph-name="enr" unicode="enr" horiz-adv-x="921" 
d="M175 330q0 19 -15 19q-32 0 -54.5 -57.5t-24.5 -127.5q31 21 62.5 75.5t31.5 90.5zM512 399q4 3 8 3q9 0 27.5 -13.5t18.5 -21.5q0 -3 -1 -5q-35 -78 -35 -205q0 -44 13 -72t35 -28q28 0 48.5 60.5t31.5 147.5q-36 30 -36 94q0 33 12.5 55.5t34.5 22.5q37 0 37 -46
q0 -11 -2.5 -33.5t-2.5 -31.5q0 -24 9 -24q5 0 22 10q15 10 37.5 30t39 34.5t19.5 14.5q10 0 21.5 -14.5t11.5 -25.5l-3 -13q-18 -47 -25 -64q-32 -77 -32 -143q0 -39 11 -62.5t29 -23.5q35 0 66 83q6 15 14 20q5 3 6 3q3 0 3 -4l-1 -5q-7 -58 -39 -114t-83 -56
q-71 0 -71 121q0 76 25 168q-24 -12 -59 -12q-9 0 -14 1q-9 -45 -20 -88t-28 -90t-40.5 -76t-48.5 -29q-90 0 -97 263q-22 -23 -40.5 -70t-38.5 -118t-23 -79q-3 -10 -13 -10q-12 0 -30.5 11t-18.5 16q0 6 1 9q2 9 12 139q2 26 2 102v69q-4 -15 -15.5 -67t-22.5 -91.5
t-28 -84.5t-40.5 -70.5t-51.5 -25.5q-73 0 -109 54t-36 136q0 97 46 177t115 80q33 0 51.5 -22t18.5 -57q0 -51 -38.5 -107.5t-112.5 -98.5q4 -59 23 -87t46 -28q78 0 148 335q3 14 12 25t19 11t23 5.5t16 5.5q6 0 7 -13q2 -33 2 -113q0 -92 -1 -118q6 14 25.5 60t33 74.5
t35 64.5t41.5 55z" />
    <glyph glyph-name="ens" unicode="ens" horiz-adv-x="846" 
d="M151 7q78 0 148 335q3 14 12 25t19 11t23 5.5t16 5.5q6 0 7 -13q2 -33 2 -113q0 -92 -1 -118q7 16 24.5 58t30 70t32.5 61.5t40 52.5q4 3 8 3q9 0 27.5 -13.5t18.5 -21.5q0 -3 -1 -5q-35 -78 -35 -205q0 -144 33 -144q4 0 8.5 3.5t9.5 10.5t9.5 14.5t10 19t9.5 21t9.5 23
t9 22t9 22.5t7.5 19q28 68 46 141.5t22 114.5q1 15 24 28t37 13q8 0 8 -5l-1 -4q-1 -4 -2 -11.5t-3 -17t-3.5 -22t-2.5 -26.5t-2 -30t-1 -32q0 -35 31 -150.5t31 -157.5t-29 -65.5t-67 -23.5q-37 0 -63.5 22t-26.5 62q0 21 5.5 43.5t10.5 22.5q3 0 3 -2v-3q0 -39 19 -64.5
t41 -25.5q16 0 26.5 14.5t10.5 42.5q0 48 -21 144t-21 101q-5 -9 -11.5 -27.5t-16.5 -47.5t-18 -49q-17 -43 -27 -66.5t-27 -56t-33 -48t-33 -15.5q-90 0 -97 263q-21 -23 -38.5 -68.5t-34 -108.5t-21.5 -78q-3 -10 -13 -10q-12 0 -30.5 11t-18.5 16q0 6 1 9q2 9 12 139
q2 26 2 102v69q-4 -15 -15.5 -67t-22.5 -91.5t-28 -84.5t-40.5 -70.5t-51.5 -25.5q-73 0 -109 54t-36 136q0 97 46 177t115 80q33 0 51.5 -22t18.5 -57q0 -51 -38.5 -107.5t-112.5 -98.5q4 -59 23 -87t46 -28zM175 330q0 19 -15 19q-32 0 -54.5 -57.5t-24.5 -127.5
q31 21 62.5 75.5t31.5 90.5z" />
    <glyph glyph-name="ensquote" unicode="en&#x2019;s" horiz-adv-x="886" 
d="M524 142q0 -7 -0.5 -19.5t-0.5 -18.5q0 -103 32 -103q31 0 76 101.5t74 198.5t30 111q1 15 24 28t37 13q8 0 8 -5l-1 -4q-1 -4 -2 -11.5t-3 -17t-3.5 -22t-2.5 -26.5t-2 -30t-1 -32q0 -35 31 -150.5t31 -157.5t-29 -65.5t-67 -23.5q-37 0 -63.5 22t-26.5 62
q0 21 5.5 43.5t10.5 22.5q3 0 3 -2v-3q0 -40 18.5 -65t41.5 -25q16 0 26.5 14.5t10.5 42.5q0 48 -21 144t-21 101q-5 -10 -24.5 -55.5t-37.5 -82.5t-42 -80t-48 -67.5t-44 -24.5q-90 0 -97 263q-21 -23 -38.5 -68.5t-34 -108.5t-21.5 -78q-3 -10 -13 -10q-12 0 -30.5 11
t-18.5 16q0 6 1 9q2 9 12 139q2 26 2 102v69q-4 -15 -15.5 -67t-22.5 -91.5t-28 -84.5t-40.5 -70.5t-51.5 -25.5q-73 0 -109 54t-36 136q0 97 46 177t115 80q33 0 51.5 -22t18.5 -57q0 -51 -38.5 -107.5t-112.5 -98.5q4 -59 23 -87t46 -28q78 0 148 335q3 14 12 25t19 11
t23 5.5t16 5.5q6 0 7 -13q2 -33 2 -113q0 -92 -1 -118q7 16 24.5 58t30 70t32.5 61.5t40 52.5q4 3 8 3q9 0 27.5 -13.5t18.5 -21.5q0 -3 -1 -5q-33 -74 -33 -208zM640 699q36 37 61 37q35 0 35 -66q0 -100 -64 -198l-15 10q18 36 18 105q0 76 -35 112zM160 349
q-32 0 -54.5 -57.5t-24.5 -127.5q31 21 62.5 75.5t31.5 90.5q0 19 -15 19z" />
    <glyph glyph-name="equote_ll" unicode="e&#x2019;ll" horiz-adv-x="782" 
d="M526 854q65 0 65 -152q0 -102 -37.5 -274.5t-101.5 -297.5q23 -134 78 -134q42 0 91 85q-12 92 -12 200q0 147 20.5 293.5t54 241t68.5 94.5q70 0 70 -167q0 -192 -43.5 -365t-111.5 -290q31 -201 130 -201q43 0 68 62q5 12 8 12t3 -7v-3l6 -4q0 -39 -29 -85t-67 -46
q-114 0 -157 215q-65 -86 -122 -86q-65 0 -97 113q-35 -47 -95.5 -78.5t-120.5 -31.5q-66 0 -115 43t-67 136q-8 0 -12 1q-2 0 -3 3l-3 9t-7 11q-2 2 -2 3q0 3 4 6t8 3l15 -3q5 97 49.5 172t110.5 75q32 0 50.5 -25.5t18.5 -64.5q0 -57 -38.5 -113t-111.5 -84q1 -72 34 -105
t84 -33q57 0 117 32.5t77 67.5q-19 89 -19 222q0 134 20 262t53 208t69 80zM545 671q0 84 -23 84q-29 0 -55.5 -136.5t-26.5 -296.5q0 -88 8 -157q48 112 72.5 260.5t24.5 245.5zM753 714q0 80 -14 80q-17 0 -37 -76t-34 -198.5t-14 -239.5q0 -70 4 -121q42 104 68 249
t27 306zM169 349q-32 0 -54.5 -58t-24.5 -129q50 18 76 61t26 84q0 42 -23 42zM270 719q36 37 61 37q35 0 35 -66q0 -100 -64 -198l-15 10q18 36 18 105q0 76 -35 112z" />
    <glyph glyph-name="erl" unicode="erl" horiz-adv-x="771" 
d="M470 119q0 -112 51 -112q41 0 84 64q-24 103 -24 242q0 130 20 255.5t53.5 205.5t69.5 80q65 0 65 -152q0 -82 -34.5 -274t-98.5 -323q42 -208 157 -208q54 0 76 52q5 12 8 12t3 -7v-3l6 -4q-5 -48 -36.5 -75t-73.5 -27q-129 0 -183 192q-64 -77 -129 -77q-35 0 -57 30
t-22 91q0 76 25 168q-24 -12 -59 -12q-8 0 -12 1q-6 -46 -18.5 -89t-34.5 -88.5t-60 -73t-86 -27.5q-50 0 -89 41t-59 126q-8 0 -12 1q-2 0 -3 3l-3 9t-7 11q-2 2 -2 3q0 3 4 6t8 3l15 -3q5 97 49.5 172t110.5 75q32 0 50.5 -25.5t18.5 -64.5q0 -57 -38.5 -113t-111.5 -84
q11 -131 85 -131q122 0 155 261q-40 30 -40 97q0 33 12.5 55.5t34.5 22.5q37 0 37 -46q0 -11 -2.5 -33.5t-2.5 -31.5q0 -24 9 -24q5 0 22 10q15 10 37.5 30t39 34.5t19.5 14.5q10 0 21.5 -14.5t11.5 -25.5l-3 -13q-3 -7 -13 -32.5t-13.5 -35.5t-11 -32.5t-10.5 -36.5t-6 -33
t-3 -37zM743 671q0 84 -23 84q-29 0 -55.5 -136.5t-26.5 -296.5q0 -97 9 -164q46 118 71 284.5t25 228.5zM169 349q-32 0 -54.5 -58t-24.5 -129q50 18 76 61t26 84q0 42 -23 42z" />
    <glyph glyph-name="erls" unicode="erls" horiz-adv-x="1059" 
d="M497 379q10 0 21.5 -14.5t11.5 -25.5l-3 -13q-18 -47 -25 -64q-32 -77 -32 -143q0 -112 51 -112q39 0 83 64q-23 86 -23 216q0 127 21 259.5t55 220t67 87.5q65 0 65 -152q0 -84 -35 -277.5t-100 -323.5q26 -85 79 -85q32 0 63.5 54.5t52.5 128t34 132t15 81.5
q1 15 24 28t37 13q8 0 8 -5l-1 -4q-1 -4 -2 -11.5t-2.5 -17t-3.5 -22t-3 -26.5t-2 -30t-1 -32q0 -35 41 -150.5t41 -157.5q0 -54 -32 -82.5t-76 -28.5q-40 0 -69 22t-29 59q0 49 29 49q7 0 12 -2q-3 -12 -3 -23q0 -24 14.5 -38t34.5 -14q21 0 36 15.5t15 42.5
q0 48 -32 155.5t-32 112.5q-10 -57 -37 -129.5t-67.5 -131.5t-75.5 -59q-69 0 -107 94q-29 -36 -64.5 -57.5t-66.5 -21.5q-35 0 -57 30t-22 91q0 76 25 168q-24 -12 -59 -12q-8 0 -12 1q-6 -46 -18.5 -89t-34.5 -88.5t-60 -73t-86 -27.5q-50 0 -89 41t-59 126q-8 0 -12 1
q-2 0 -3 3l-3 9t-7 11q-2 2 -2 3q0 3 4 6t8 3l15 -3q5 97 49.5 172t110.5 75q32 0 50.5 -25.5t18.5 -64.5q0 -57 -38.5 -113t-111.5 -84q11 -131 85 -131q122 0 155 261q-40 30 -40 97q0 33 12.5 55.5t34.5 22.5q37 0 37 -46q0 -11 -2.5 -33.5t-2.5 -31.5q0 -24 9 -24
q5 0 22 10q15 10 37.5 30t39 34.5t19.5 14.5zM743 671q0 84 -23 84q-28 0 -57.5 -152.5t-29.5 -307.5q0 -88 11 -147q47 118 73 288.5t26 234.5zM169 349q-32 0 -54.5 -58t-24.5 -129q50 18 76 61t26 84q0 42 -23 42z" />
    <glyph glyph-name="erlsquote" unicode="erl&#x2019;s" horiz-adv-x="1115" 
d="M430 249q-24 -12 -59 -12q-8 0 -12 1q-6 -46 -18.5 -89t-34.5 -88.5t-60 -73t-86 -27.5q-50 0 -89 41t-59 126q-8 0 -12 1q-2 0 -3 3l-3 9t-7 11q-2 2 -2 3q0 3 4 6t8 3l15 -3q5 97 49.5 172t110.5 75q32 0 50.5 -25.5t18.5 -64.5q0 -57 -38.5 -113t-111.5 -84
q11 -131 85 -131q122 0 155 261q-40 30 -40 97q0 33 12.5 55.5t34.5 22.5q37 0 37 -46q0 -11 -2.5 -33.5t-2.5 -31.5q0 -24 9 -24q5 0 22 10q15 10 37.5 30t39 34.5t19.5 14.5q10 0 21.5 -14.5t11.5 -25.5l-3 -13q-18 -47 -25 -64q-32 -77 -32 -143q0 -112 51 -112
q39 0 83 64q-23 86 -23 216q0 127 21 259.5t55 220t67 87.5q65 0 65 -152q0 -84 -35 -277.5t-100 -323.5q26 -85 79 -85q46 0 101 68.5t94 160.5t46 164q1 15 24 28t37 13q8 0 8 -5l-1 -4q-1 -4 -2 -11.5t-2.5 -17t-3.5 -22t-3 -26.5t-2 -30t-1 -32q0 -35 31 -150.5
t31 -157.5t-29 -65.5t-67 -23.5q-37 0 -63.5 22t-26.5 62q0 21 5.5 43.5t10.5 22.5q3 0 3 -2v-3q0 -40 19 -65t41 -25q16 0 26.5 14.5t10.5 42.5q0 48 -20 154.5t-20 111.5q-46 -151 -118.5 -244.5t-139.5 -93.5q-69 0 -107 94q-29 -36 -64.5 -57.5t-66.5 -21.5
q-35 0 -57 30t-22 91q0 76 25 168zM743 671q0 84 -23 84q-28 0 -57.5 -152.5t-29.5 -307.5q0 -88 11 -147q47 118 73 288.5t26 234.5zM905 719q36 37 61 37q35 0 35 -66q0 -100 -64 -198l-15 10q18 36 18 105q0 76 -35 112zM169 349q-32 0 -54.5 -58t-24.5 -129q50 18 76 61
t26 84q0 42 -23 42z" />
    <glyph glyph-name="erquote" unicode="e&#x2019;r" horiz-adv-x="644" 
d="M431 237q-12 0 -18 2q-12 -44 -33 -88.5t-52 -89.5t-75.5 -73t-92.5 -28q-50 0 -89 41t-59 126q-8 0 -12 1q-2 0 -3 3l-3 9t-7 11q-2 2 -2 3q0 3 4 6t8 3l15 -3q5 97 49.5 172t110.5 75q32 0 50.5 -25.5t18.5 -64.5q0 -57 -38.5 -113t-111.5 -84q6 -68 26.5 -95t54.5 -27
q73 0 128 76.5t83 181.5q-32 32 -32 91q0 33 12.5 55.5t34.5 22.5q37 0 37 -46q0 -11 -2.5 -33.5t-2.5 -31.5q0 -24 9 -24q5 0 22 10q15 10 37.5 30t39 34.5t19.5 14.5q10 0 21.5 -14.5t11.5 -25.5l-3 -13q-18 -47 -25 -64q-32 -77 -32 -155q0 -60 14 -97t34 -37q29 0 52 74
q4 13 14 20q4 3 6 3q3 0 3 -4l-1 -5q-3 -60 -34.5 -97.5t-69.5 -37.5q-35 0 -59 35t-24 104q0 92 25 184q-24 -12 -59 -12zM286 699q36 37 61 37q35 0 35 -66q0 -100 -64 -198l-15 10q18 36 18 105q0 76 -35 112zM169 349q-32 0 -54.5 -58t-24.5 -129q50 18 76 61t26 84
q0 42 -23 42z" />
    <glyph glyph-name="err" unicode="err" horiz-adv-x="864" 
d="M652 278q-10 0 -15 1q-3 -11 -9.5 -42t-11 -52t-13.5 -54t-17 -55.5t-20 -48.5t-24.5 -42t-29 -26.5t-34.5 -10.5q-72 0 -72 130q0 86 24 171q-24 -12 -59 -12q-8 0 -12 1q-6 -46 -18.5 -89t-34.5 -88.5t-60 -73t-86 -27.5q-50 0 -89 41t-59 126q-8 0 -12 1q-2 0 -3 3
l-3 9t-7 11q-2 2 -2 3q0 3 4 6t8 3l15 -3q5 97 49.5 172t110.5 75q32 0 50.5 -25.5t18.5 -64.5q0 -57 -38.5 -113t-111.5 -84q11 -131 85 -131q122 0 155 261q-40 30 -40 97q0 33 12.5 55.5t34.5 22.5q37 0 37 -46q0 -11 -2.5 -33.5t-2.5 -31.5q0 -24 9 -24q5 0 22 10
q15 10 37.5 30t39 34.5t19.5 14.5q10 0 21.5 -14.5t11.5 -25.5l-3 -13q-18 -47 -25 -64q-31 -75 -31 -145q0 -43 11.5 -69.5t29.5 -26.5q29 0 56.5 81.5t43.5 188.5q-40 30 -40 97q0 33 12.5 55.5t34.5 22.5q37 0 37 -46q0 -11 -2.5 -33.5t-2.5 -31.5q0 -24 9 -24q5 0 22 10
q15 10 37.5 30t39 34.5t19.5 14.5q10 0 21.5 -14.5t11.5 -25.5l-3 -13q-18 -47 -25 -64q-35 -83 -35 -170q0 -44 10 -72t26 -28q35 0 66 83q6 15 14 20q4 3 6 3q3 0 3 -4l-1 -5q-7 -58 -39 -114t-83 -56q-67 0 -67 129q0 92 28 201q-24 -12 -59 -12zM169 349
q-32 0 -54.5 -58t-24.5 -129q50 18 76 61t26 84q0 42 -23 42z" />
    <glyph glyph-name="erry" unicode="erry" horiz-adv-x="1266" 
d="M750 -40q-67 0 -67 129q0 92 28 201q-24 -12 -59 -12q-10 0 -15 1q-3 -11 -9.5 -42t-11 -52t-13.5 -54t-17 -55.5t-20 -48.5t-24.5 -42t-29 -26.5t-34.5 -10.5q-72 0 -72 130q0 86 24 171q-24 -12 -59 -12q-8 0 -12 1q-6 -46 -18.5 -89t-34.5 -88.5t-60 -73t-86 -27.5
q-50 0 -89 41t-59 126q-8 0 -12 1q-2 0 -3 3l-3 9t-7 11q-2 2 -2 3q0 3 4 6t8 3l15 -3q5 97 49.5 172t110.5 75q32 0 50.5 -25.5t18.5 -64.5q0 -57 -38.5 -113t-111.5 -84q11 -131 85 -131q122 0 155 261q-40 30 -40 97q0 33 12.5 55.5t34.5 22.5q37 0 37 -46
q0 -11 -2.5 -33.5t-2.5 -31.5q0 -24 9 -24q5 0 22 10q15 10 37.5 30t39 34.5t19.5 14.5q10 0 21.5 -14.5t11.5 -25.5l-3 -13q-18 -47 -25 -64q-31 -75 -31 -145q0 -43 11.5 -69.5t29.5 -26.5q29 0 56.5 81.5t43.5 188.5q-40 30 -40 97q0 33 12.5 55.5t34.5 22.5q37 0 37 -46
q0 -11 -2.5 -33.5t-2.5 -31.5q0 -24 9 -24q5 0 22 10q15 10 37.5 30t39 34.5t19.5 14.5q10 0 21.5 -14.5t11.5 -25.5l-3 -13q-18 -47 -25 -64q-35 -83 -35 -170q0 -44 10 -72t26 -28q23 0 46 53.5t40 117t45 117t60 53.5q54 0 54 -104q0 -33 -9 -110t-9 -100q0 -58 24 -58
q22 0 51.5 42.5t45.5 95.5q14 48 14 226q0 3 3.5 8t8.5 5q15 0 43.5 -3.5t28.5 -7.5q-17 -76 -21 -236q-8 -410 -158 -525q-49 -37 -120 -37q-66 0 -119.5 34t-68.5 97v1l8 16q1 2 1.5 4t0.5 3.5t1 1.5q4 0 7 -10q21 -49 63.5 -76.5t91.5 -27.5q54 0 98 34q38 31 63.5 93
t33 111t15 125t9.5 90q-2 5 -5 5q-18 -38 -48.5 -74t-67.5 -36q-74 0 -74 143q0 45 8 116t8 81q0 19 -7 19q-11 0 -23.5 -37t-27.5 -90t-33.5 -106t-48.5 -90t-66 -37zM169 349q-32 0 -54.5 -58t-24.5 -129q50 18 76 61t26 84q0 42 -23 42z" />
    <glyph glyph-name="ers" unicode="ers" horiz-adv-x="804" 
d="M614 143q-59 -180 -138 -180q-72 0 -72 122q0 79 24 164q-24 -12 -59 -12h-10q-6 -46 -18.5 -89t-34.5 -88t-60 -72.5t-86 -27.5q-50 0 -89 41t-59 126q-8 0 -12 1q-2 0 -3 3l-3 9t-7 11q-2 2 -2 3q0 3 4 6t8 3l15 -3q5 97 49.5 172t110.5 75q32 0 50.5 -25.5t18.5 -64.5
q0 -57 -38.5 -113t-111.5 -84q11 -131 85 -131q120 0 155 259q-42 29 -42 99q0 33 12.5 55.5t34.5 22.5q37 0 37 -46q0 -11 -2.5 -33.5t-2.5 -31.5q0 -24 9 -24q5 0 22 10q15 10 37.5 30t39 34.5t19.5 14.5q10 0 21.5 -14.5t11.5 -25.5l-3 -13q-18 -47 -25 -64
q-31 -75 -31 -139q0 -39 11.5 -63t29.5 -24q33 0 69.5 95.5t55 176.5t21.5 106q1 15 24 28t37 13q8 0 8 -5l-1 -4q-1 -4 -2 -11.5t-2.5 -17t-3.5 -22t-3 -26.5t-2 -30t-1 -32q0 -35 34.5 -138.5t34.5 -145.5q0 -49 -32 -77t-75 -28q-38 0 -64.5 21.5t-26.5 60.5q0 13 4 28
t9 23.5t8 8.5t3 -2t-0.5 -6.5t-0.5 -6.5q0 -33 17.5 -54t39.5 -21q21 0 35 20.5t14 61.5q0 48 -25 129t-25 86q-13 -24 -46 -124zM169 349q-32 0 -54.5 -58t-24.5 -129q50 18 76 61t26 84q0 42 -23 42z" />
    <glyph glyph-name="ersquote" unicode="er&#x2019;s" horiz-adv-x="838" 
d="M406 83q0 -72 18.5 -106.5t48.5 -34.5q42 0 90.5 56t74.5 135q33 99 46 124q0 -5 25 -86t25 -129q0 -41 -14 -61.5t-35 -20.5q-22 0 -39.5 21t-17.5 54q0 2 0.5 6.5t0.5 6.5t-3 2t-8 -8.5t-9 -23.5t-4 -28q0 -39 26.5 -60.5t64.5 -21.5q43 0 75 28t32 77
q0 42 -34.5 145.5t-34.5 138.5q0 16 1 32t2 30t3 26.5t3.5 22t2.5 17t2 11.5l1 4q0 5 -8 5q-14 0 -37 -13t-24 -28q-1 -8 -9.5 -49t-26 -107t-35.5 -114q-22 -57 -47 -87.5t-47 -30.5q-20 0 -32.5 27.5t-12.5 79.5q0 64 31 139l25 64q3 6 3 13q0 10 -11 24.5t-21 15.5
q-4 -1 -20.5 -16t-38.5 -34.5t-36 -28.5q-17 -10 -22 -10q-9 0 -9 24q0 9 2 31t2 33q0 47 -37 47q-21 0 -33 -21.5t-12 -53.5q0 -68 38 -99q-6 -50 -17 -92.5t-28.5 -82.5t-45.5 -63.5t-64 -23.5q-74 0 -85 131q73 28 111.5 84t38.5 113q0 39 -18.5 64.5t-50.5 25.5
q-66 0 -110.5 -75t-49.5 -172l-15 3q-4 0 -8 -3t-4 -6q0 -1 2 -3q4 -4 6 -8.5t2.5 -7.5t1.5 -5t3 -2q4 -1 12 -1q20 -85 59 -126t89 -41q48 0 86 27.5t60 73.5t34.5 88.5t18.5 88.5q4 -1 13 -1q35 0 59 12q-25 -83 -25 -166zM591 699q37 37 61 37q35 0 35 -66
q0 -98 -64 -198l-15 10q18 36 18 105q0 76 -35 112zM169 349q23 0 23 -42q0 -41 -26 -84t-76 -61q2 71 24.5 129t54.5 58z" />
    <glyph glyph-name="ery" unicode="ery" horiz-adv-x="976" 
d="M497 379h1q10 0 21.5 -14.5t11.5 -25.5l-3 -13q-18 -47 -25 -64q-40 -96 -40 -165q0 -61 30 -61q23 0 46 53t40.5 116t45.5 116t60 53q54 0 54 -104q0 -33 -9 -110t-9 -100q0 -58 24 -58q22 0 51.5 42.5t45.5 95.5q14 48 14 226q0 3 3.5 8t8.5 5q15 0 43.5 -3.5
t28.5 -7.5q-17 -76 -21 -236q-8 -410 -158 -525q-49 -37 -120 -37q-66 0 -119.5 34t-68.5 97v1l8 16q1 2 1.5 4t0.5 3.5t1 1.5q4 0 7 -10q21 -49 63.5 -76.5t91.5 -27.5q54 0 98 34q38 31 63.5 93t33 111t15 125t9.5 90q-2 5 -5 5q-18 -38 -48.5 -74t-67.5 -36
q-74 0 -74 143q0 45 8 116t8 81q0 19 -7 19q-11 0 -23.5 -37t-27.5 -89t-34 -104.5t-49 -89.5t-66 -37q-63 0 -63 96q0 64 31 180l3 10q-24 -12 -59 -12q-8 0 -12 1q-6 -46 -18.5 -89t-34.5 -88.5t-60 -73t-86 -27.5q-50 0 -89 41t-59 126q-8 0 -12 1q-2 0 -3 3l-3 9t-7 11
q-2 2 -2 3q0 3 4 6t8 3l15 -3q5 97 49.5 172t110.5 75q32 0 50.5 -25.5t18.5 -64.5q0 -57 -38.5 -113t-111.5 -84q11 -131 85 -131q122 0 155 261q-40 30 -40 97q0 33 12.5 55.5t34.5 22.5q37 0 37 -46q0 -11 -2.5 -33.5t-2.5 -31.5q0 -24 9 -24q5 0 22 10q15 10 37.5 30
t39 34.5t19.5 14.5zM169 349q-32 0 -54.5 -58t-24.5 -129q50 18 76 61t26 84q0 42 -23 42z" />
    <glyph glyph-name="esquote" unicode="e&#x2019;s" horiz-adv-x="526" 
d="M91 66q8 -24 25 -43t41 -19q45 0 89.5 55.5t72.5 130t46 136t20 86.5q1 15 24 28t37 13q8 0 8 -5l-1 -4q-1 -4 -2 -11.5t-3 -17t-3.5 -22t-2.5 -26.5t-2 -30t-1 -32q0 -35 31 -150.5t31 -157.5q0 -43 -27.5 -68.5t-62.5 -25.5q-31 0 -52.5 20.5t-21.5 58.5q0 13 4.5 26.5
t10 20.5t8.5 7q2 0 2 -3v-4q0 -59 39 -59q32 0 32 57q0 47 -24 144t-24 103q-5 -11 -23.5 -53t-31 -69t-35.5 -66.5t-43 -63.5t-48 -42t-56 -18q-73 0 -109.5 54.5t-36.5 136.5q0 97 45.5 175.5t114.5 78.5q33 0 51.5 -22t18.5 -57q0 -51 -38.5 -107.5t-112.5 -98.5
q1 -30 10 -56zM296 699q36 37 61 37q35 0 35 -66q0 -100 -64 -198l-15 10q18 36 18 105q0 76 -35 112zM174 330q0 19 -15 19q-32 0 -54.5 -57.5t-24.5 -127.5q31 21 62.5 75.5t31.5 90.5z" />
    <glyph glyph-name="ess" unicode="ess" horiz-adv-x="718" 
d="M91 66q8 -24 25 -43t41 -19q70 0 130 152q28 68 46 141.5t22 114.5q1 15 24 28t37 13q8 0 8 -5l-1 -4q-1 -4 -2 -11.5t-3 -17t-3.5 -22t-2.5 -26.5t-2 -30t-1 -32q0 -12 2 -24t8 -29t8.5 -24t13 -30.5t11.5 -26.5q112 75 124 119q-8 31 -8 68q0 29 7 54q4 14 29.5 28
t48.5 14q1 0 4 -0.5t4 -0.5q8 0 8 -5l-7 -18q-7 -18 -18.5 -46.5t-18.5 -49.5q-1 -10 -1 -31q0 -48 34.5 -132.5t34.5 -126.5q0 -50 -32 -81t-73 -31q-32 0 -54 22t-22 65q0 39 15 68t41 29q12 0 12 -6q-26 -37 -26 -85q0 -42 30 -42q17 0 32 15.5t15 36.5q0 43 -22.5 117
t-26.5 94q-41 -50 -119 -102q18 -49 18 -80q0 -52 -29 -81.5t-67 -29.5q-31 0 -52.5 20.5t-21.5 57.5q0 40 88 104q-6 23 -16.5 53t-17 50t-6.5 27q-5 -9 -11.5 -27.5t-16.5 -47.5t-18 -49q-69 -179 -165 -179q-73 0 -109.5 54.5t-36.5 136.5q0 97 45.5 175.5t114.5 78.5
q33 0 51.5 -22t18.5 -57q0 -51 -38.5 -107.5t-112.5 -98.5q1 -30 10 -56zM174 330q0 19 -15 19q-32 0 -54.5 -57.5t-24.5 -127.5q31 21 62.5 75.5t31.5 90.5zM344 37q0 -12 7 -19.5t17 -7.5q44 0 44 53q0 21 -6 43q-62 -43 -62 -69z" />
    <glyph glyph-name="esw" unicode="esw" horiz-adv-x="1016" 
d="M827 -20q-32 0 -53.5 45t-21.5 123q0 45 9 102q-2 -5 -14 -48.5t-24 -78.5t-28 -77t-34 -66.5t-34 -24.5q-47 0 -47 127q0 50 8 131t8 88q0 12 -3 12q-16 0 -55.5 -33.5t-81.5 -80.5q41 -90 41 -135q0 -52 -29 -81.5t-67 -29.5q-31 0 -52.5 20.5t-21.5 57.5q0 32 78 138
q-30 88 -30 96q-5 -9 -11.5 -27.5t-16.5 -47.5t-18 -49q-69 -179 -165 -179q-73 0 -109.5 54.5t-36.5 136.5q0 97 45.5 175.5t114.5 78.5q33 0 51.5 -22t18.5 -57q0 -51 -38.5 -107.5t-112.5 -98.5q9 -118 76 -118q30 0 64 35q32 32 66 117q28 68 46 141.5t22 114.5
q1 15 24 28t37 13q8 0 8 -5l-1 -4q-1 -4 -2 -11.5t-3 -17t-3.5 -22t-2.5 -26.5t-2 -30t-1 -32q0 -32 21 -83q116 137 171 137q44 0 44 -109q0 -30 -5.5 -92t-5.5 -80q0 -14 5 -14q10 0 37.5 69.5t55.5 149t32 87.5q8 15 21 15q13 -2 28.5 -13t15.5 -21q0 -2 -5.5 -49
t-11.5 -110t-6 -105q0 -78 21 -78q23 0 52.5 76.5t34.5 157.5q-7 21 -7 58q0 48 11.5 87.5t30.5 39.5q32 0 32 -42q0 -24 -11 -66t-11 -45l40 -3q-1 -28 -7.5 -39t-20.5 -11q-12 0 -25 4q-23 -121 -60 -183.5t-75 -62.5zM190 330q0 19 -15 19q-32 0 -54.5 -57t-24.5 -127
q31 21 62.5 75t31.5 90zM354 35q0 -25 30 -25q44 0 44 53q0 31 -16 84q-58 -75 -58 -112z" />
    <glyph glyph-name="ex" unicode="ex" horiz-adv-x="553" 
d="M317 328v23q35 39 63 39q26 0 29 -28l2 -19q12 -98 20 -141q83 135 167 247q3 3 7 3q9 0 9 -12q0 -4 -1.5 -12t-1.5 -10l-9 -13q-8 -13 -24.5 -38t-36 -56.5t-46 -77t-51.5 -92.5q33 -134 84 -134q8 0 20 5l16 -5q-35 -51 -72 -51q-55 0 -93 98q-49 -100 -83 -186
q-7 -21 -19 -21q-10 0 -10 16q0 5 1 15t1 13l-18 21q2 3 16 30.5t39 75.5t53 97q-9 35 -22.5 97t-15.5 72q-5 -78 -25.5 -153t-63.5 -132.5t-98 -57.5q-59 0 -97.5 43.5t-38.5 142.5q-43 14 -55 26q-4 4 -4 13v5q0 7 -4 11q-7 7 -7 8t5.5 -2t16 -9t17.5 -9q14 -7 31 -10
q5 97 49.5 172t110.5 75q32 0 50.5 -25.5t18.5 -64.5q0 -57 -38.5 -113t-111.5 -84q6 -65 27.5 -99t51.5 -34q36 0 69 52t52.5 131t19.5 158zM175 349q-32 0 -54.5 -58t-24.5 -129q50 18 76 61t26 84q0 42 -23 42z" />
    <glyph glyph-name="ey" unicode="ey" horiz-adv-x="675" 
d="M81 122q3 -49 22.5 -83.5t45.5 -34.5q34 0 61 38t44.5 92.5t34.5 109t41 92.5t54 38q54 0 54 -104q0 -33 -9 -110t-9 -100q0 -58 24 -58q22 0 51.5 42.5t45.5 95.5q14 48 14 226q0 3 3.5 8t8.5 5q15 0 43.5 -3.5t28.5 -7.5q-17 -76 -21 -236q-12 -562 -278 -562
q-66 0 -119.5 34t-68.5 97v1l8 16q1 2 1.5 4t0.5 3.5t1 1.5q4 0 7 -10q21 -49 63.5 -76.5t91.5 -27.5q42 0 75.5 17t55 50.5t36.5 67.5t23.5 85.5t13 85.5t9 86.5t6.5 70.5q-18 -38 -51 -76.5t-70 -38.5q-74 0 -74 143q0 45 8 116t8 81q0 19 -7 19q-11 0 -25 -37.5
t-31 -90.5t-38 -106t-54 -90.5t-71 -37.5q-54 0 -95.5 57.5t-41.5 137.5q0 97 45.5 175.5t114.5 78.5q33 0 51.5 -22t18.5 -57q0 -51 -38.5 -107.5t-112.5 -98.5zM174 330q0 19 -15 19q-32 0 -54.5 -57.5t-24.5 -127.5q31 21 62.5 75.5t31.5 90.5z" />
    <glyph glyph-name="fiacute" unicode="f&#xed;" horiz-adv-x="432" 
d="M410 642q71 -13 71 -45q0 -35 -74.5 -71.5t-164.5 -40.5l3 18q34 5 94 45t71 94zM357 369q17 0 17 -8q-4 -22 -12 -64.5t-10.5 -57.5t-7 -45t-6 -47t-3 -40.5t-1.5 -48.5q0 -46 22 -46q16 0 36 20.5t29 41.5q4 6 9 6t5 -6v-2q-9 -44 -37.5 -76.5t-63.5 -32.5
q-74 0 -74 163q0 66 13 150q0 9 -13 9q-82 -23 -143 -25q-2 -22 -4 -33q41 -72 65 -200t24 -256t-24.5 -211t-72.5 -83q-99 0 -99 198q0 89 25 292.5t27 279.5q0 13 -15 13t-44 7t-29 16q0 5 10 8q35 7 79 7q9 0 9 8q9 23 37 480q0 10 2 10q8 0 11 -3q33 -50 47 -65
q9 -10 9 -23q0 -7 -1 -11q-27 -190 -51 -389q77 9 125.5 25t70 27.5t39.5 11.5zM63 -347q0 -121 16 -121q10 0 23.5 60.5t23.5 157.5t10 185q0 149 -31 219q-42 -383 -42 -501z" />
    <glyph glyph-name="fil" unicode="fil" horiz-adv-x="641" 
d="M357 369q17 0 17 -8q-4 -22 -12 -64.5t-10.5 -57.5t-7 -45t-6 -47t-3 -40.5t-1.5 -48.5q0 -62 33 -62q19 0 45 21.5t49 56.5q-24 103 -24 242q0 130 20 255.5t53.5 205.5t69.5 80q65 0 65 -152q0 -82 -34.5 -273.5t-98.5 -322.5q40 -209 157 -209q54 0 76 52q5 12 8 12
t3 -7v-3l6 -4q-5 -48 -36.5 -75t-73.5 -27q-128 0 -182 190q-63 -85 -122 -85q-40 0 -64 43.5t-24 129.5q0 66 13 150q0 9 -13 9q-82 -23 -143 -25q-2 -22 -4 -33q41 -72 65 -200t24 -256t-24.5 -211t-72.5 -83q-99 0 -99 198q0 89 25 292.5t27 279.5q0 13 -15 13t-44 7
t-29 16q0 5 10 8q35 7 79 7q9 0 9 8q9 23 37 480q0 10 2 10q8 0 11 -3q33 -50 47 -65q9 -10 9 -23q0 -7 -1 -11q-27 -190 -51 -389q77 9 125.5 25t70 27.5t39.5 11.5zM599 674q0 84 -23 84q-29 0 -55.5 -136.5t-26.5 -296.5q0 -97 9 -164q46 118 71 284.5t25 228.5zM63 -347
q0 -121 16 -121q10 0 23.5 60.5t23.5 157.5t10 185q0 149 -31 219q-42 -383 -42 -501zM381 632q44 0 44 -46q0 -30 -19.5 -58t-44.5 -28q-23 0 -34.5 14.5t-11.5 36.5q0 30 19 55.5t47 25.5z" />
    <glyph glyph-name="fill" unicode="fill" horiz-adv-x="836" 
d="M357 369q17 0 17 -8q-4 -22 -12 -64.5t-10.5 -57.5t-7 -45t-6 -47t-3 -40.5t-1.5 -48.5q0 -62 33 -62q19 0 44.5 21t48.5 56q-22 88 -22 234q0 134 20 262t53 208t69 80q65 0 65 -152q0 -82 -34.5 -274t-99.5 -323q23 -109 73 -109q42 0 91 85q-12 92 -12 200
q0 147 20.5 293.5t54 241t68.5 94.5q70 0 70 -167q0 -192 -43.5 -365t-111.5 -290q31 -201 130 -201q43 0 68 62q5 12 8 12t3 -7v-3l6 -4q0 -39 -29 -85t-67 -46q-114 0 -157 215q-65 -86 -122 -86q-59 0 -91 91q-63 -86 -122 -86q-40 0 -64 43.5t-24 129.5q0 66 13 150
q0 9 -13 9q-82 -23 -143 -25q-2 -22 -4 -33q41 -72 65 -200t24 -256t-24.5 -211t-72.5 -83q-99 0 -99 198q0 89 25 292.5t27 279.5q0 13 -15 13t-44 7t-29 16q0 5 10 8q35 7 79 7q9 0 9 8q9 23 37 480q0 10 2 10q8 0 11 -3q33 -50 47 -65q9 -10 9 -23q0 -7 -1 -11
q-27 -190 -51 -389q77 9 125.5 25t70 27.5t39.5 11.5zM599 674q0 84 -23 84q-29 0 -55.5 -136.5t-26.5 -296.5q0 -99 9 -166q46 118 71 285t25 230zM807 717q0 80 -14 80q-17 0 -37 -76t-34 -198.5t-14 -239.5q0 -70 4 -121q42 104 68 249t27 306zM63 -347q0 -121 16 -121
q10 0 23.5 60.5t23.5 157.5t10 185q0 149 -31 219q-42 -383 -42 -501zM381 632q44 0 44 -46q0 -30 -19.5 -58t-44.5 -28q-23 0 -34.5 14.5t-11.5 36.5q0 30 19 55.5t47 25.5z" />
    <glyph glyph-name="fir" unicode="fir" horiz-adv-x="731" 
d="M512 237q-7 0 -15 2q-22 -122 -63 -199t-100 -77q-74 0 -74 163q0 66 13 150q0 9 -13 9q-82 -23 -143 -25q-2 -22 -4 -33q41 -72 65 -200t24 -256t-24.5 -211t-72.5 -83q-99 0 -99 198q0 89 25 292.5t27 279.5q0 13 -15 13t-44 7t-29 16q0 5 10 8q35 7 79 7q9 0 9 8
q9 23 37 480q0 10 2 10q8 0 11 -3q33 -50 47 -65q9 -10 9 -23q0 -7 -1 -11q-27 -190 -51 -389q77 9 125.5 25t70 27.5t39.5 11.5q17 0 17 -8q-5 -26 -14 -75t-12 -67.5t-7.5 -50.5t-6 -56.5t-1.5 -53.5q0 -22 9 -34.5t22 -12.5q37 0 63.5 72.5t41.5 174.5q-31 36 -31 95
q0 64 40 64q37 0 37 -43q0 -10 -2 -30t-2 -30q0 -24 9 -24q5 0 22 10q15 10 37.5 30t39 34.5t19.5 14.5q10 0 21.5 -14.5t11.5 -25.5l-3 -13q-3 -7 -13 -32.5t-13.5 -35.5t-11 -32.5t-10.5 -36.5t-6 -33t-3 -37q0 -39 11 -62.5t29 -23.5q35 0 66 83q6 15 14 20q5 3 6 3
q3 0 3 -4l-1 -5q-7 -58 -39 -114t-83 -56q-71 0 -71 121q0 76 25 168q-24 -12 -59 -12zM63 -347q0 -121 16 -121q10 0 23.5 60.5t23.5 157.5t10 185q0 149 -31 219q-42 -383 -42 -501zM381 632q44 0 44 -46q0 -30 -19.5 -58t-44.5 -28q-23 0 -34.5 14.5t-11.5 36.5
q0 30 19 55.5t47 25.5z" />
    <glyph glyph-name="firl" unicode="firl" horiz-adv-x="914" 
d="M357 369q17 0 17 -8q-5 -26 -14 -75t-12 -67.5t-7.5 -50.5t-6 -56.5t-1.5 -53.5q0 -22 9 -34.5t22 -12.5q68 0 105 243q-35 29 -35 93q0 33 12.5 55.5t34.5 22.5q37 0 37 -46q0 -11 -2.5 -33.5t-2.5 -31.5q0 -24 9 -24q5 0 22 10q15 10 37.5 30t39 34.5t19.5 14.5
q10 0 21.5 -14.5t11.5 -25.5l-3 -13q-18 -47 -25 -64q-32 -77 -32 -143q0 -112 51 -112q41 0 84 64q-24 103 -24 242q0 130 20 255.5t53.5 205.5t69.5 80q65 0 65 -152q0 -82 -34.5 -274t-98.5 -323q42 -208 157 -208q54 0 76 52q5 12 8 12t3 -7v-3l6 -4q-5 -48 -36.5 -75
t-73.5 -27q-129 0 -183 192q-64 -77 -129 -77q-35 0 -57 30t-22 91q0 76 25 168q-24 -12 -59 -12q-12 0 -17 1q-22 -122 -63 -198.5t-100 -76.5q-74 0 -74 163q0 66 13 150q0 9 -13 9q-82 -23 -143 -25q-2 -22 -4 -33q41 -72 65 -200t24 -256t-24.5 -211t-72.5 -83
q-99 0 -99 198q0 89 25 292.5t27 279.5q0 13 -15 13t-44 7t-29 16q0 5 10 8q35 7 79 7q9 0 9 8q9 23 37 480q0 10 2 10q8 0 11 -3q33 -50 47 -65q9 -10 9 -23q0 -7 -1 -11q-27 -190 -51 -389q77 9 125.5 25t70 27.5t39.5 11.5zM886 671q0 84 -23 84q-29 0 -55.5 -136.5
t-26.5 -296.5q0 -97 9 -164q46 118 71 284.5t25 228.5zM63 -347q0 -121 16 -121q10 0 23.5 60.5t23.5 157.5t10 185q0 149 -31 219q-42 -383 -42 -501zM381 632q44 0 44 -46q0 -30 -19.5 -58t-44.5 -28q-23 0 -34.5 14.5t-11.5 36.5q0 30 19 55.5t47 25.5z" />
    <glyph glyph-name="firr" unicode="firr" horiz-adv-x="1012" 
d="M800 278q-10 0 -15 1q-3 -11 -9.5 -42t-11 -52t-13.5 -54t-17 -55.5t-20 -48.5t-24.5 -42t-29 -26.5t-34.5 -10.5q-72 0 -72 130q0 86 24 171q-24 -12 -59 -12q-11 0 -22 3q-22 -123 -62.5 -200t-100.5 -77q-74 0 -74 163q0 66 13 150q0 9 -13 9q-82 -23 -143 -25
q-2 -22 -4 -33q41 -72 65 -200t24 -256t-24.5 -211t-72.5 -83q-99 0 -99 198q0 89 25 292.5t27 279.5q0 13 -15 13t-44 7t-29 16q0 5 10 8q35 7 79 7q9 0 9 8q9 23 37 480q0 10 2 10q8 0 11 -3q33 -50 47 -65q9 -10 9 -23q0 -7 -1 -11q-27 -190 -51 -389q77 9 125.5 25
t70 27.5t39.5 11.5q17 0 17 -8q-5 -26 -14 -75t-12 -67.5t-7.5 -50.5t-6 -56.5t-1.5 -53.5q0 -22 9 -34.5t22 -12.5q37 0 63.5 72.5t41.5 174.5q-30 33 -30 89q0 33 12.5 55.5t34.5 22.5q37 0 37 -46q0 -11 -2.5 -33.5t-2.5 -31.5q0 -24 9 -24q5 0 22 10q15 10 37.5 30
t39 34.5t19.5 14.5q10 0 21.5 -14.5t11.5 -25.5l-3 -13q-18 -47 -25 -64q-31 -75 -31 -145q0 -43 11.5 -69.5t29.5 -26.5q29 0 56.5 81.5t43.5 188.5q-40 30 -40 97q0 33 12.5 55.5t34.5 22.5q37 0 37 -46q0 -11 -2.5 -33.5t-2.5 -31.5q0 -24 9 -24q5 0 22 10q15 10 37.5 30
t39 34.5t19.5 14.5q10 0 21.5 -14.5t11.5 -25.5l-3 -13q-20 -50 -30.5 -78.5t-20 -72.5t-9.5 -83q0 -44 10 -72t26 -28q35 0 66 83q6 15 14 20q4 3 6 3q3 0 3 -4l-1 -5q-7 -58 -39 -114t-83 -56q-67 0 -67 129q0 92 28 201q-24 -12 -59 -12zM63 -347q0 -121 16 -121
q10 0 23.5 60.5t23.5 157.5t10 185q0 149 -31 219q-42 -383 -42 -501zM381 632q44 0 44 -46q0 -30 -19.5 -58t-44.5 -28q-23 0 -34.5 14.5t-11.5 36.5q0 30 19 55.5t47 25.5zM770 451l1 -5q0 4 -1 5z" />
    <glyph glyph-name="fis" unicode="fis" horiz-adv-x="665" 
d="M357 369q17 0 17 -8q-4 -22 -12 -64.5t-10.5 -57.5t-7 -45t-6 -47t-3 -40.5t-1.5 -48.5q0 -65 19 -65q33 0 103 163q29 67 46.5 139.5t21.5 116.5q1 15 24 28t37 13q8 0 8 -5l-1 -4q-1 -4 -2 -11.5t-2.5 -17t-3.5 -22t-3 -26.5t-2 -30t-1 -32q0 -35 31 -150.5t31 -157.5
q0 -54 -32 -82.5t-76 -28.5q-40 0 -69 22t-29 59q0 49 29 49q7 0 12 -2q-3 -12 -3 -23q0 -24 14.5 -38t34.5 -14q21 0 36 15.5t15 42.5q0 48 -22 155.5t-22 112.5q-6 -11 -21 -55.5t-25 -68.5q-37 -93 -76.5 -142t-73.5 -49q-32 0 -52 46t-20 130q0 66 13 150q0 9 -13 9
q-82 -23 -143 -25q-2 -22 -4 -33q41 -72 65 -200t24 -256t-24.5 -211t-72.5 -83q-99 0 -99 198q0 89 25 292.5t27 279.5q0 13 -15 13t-44 7t-29 16q0 5 10 8q35 7 79 7q9 0 9 8q9 23 37 480q0 10 2 10q8 0 11 -3q33 -50 47 -65q9 -10 9 -23q0 -7 -1 -11q-27 -190 -51 -389
q77 9 125.5 25t70 27.5t39.5 11.5zM63 -347q0 -121 16 -121q10 0 23.5 60.5t23.5 157.5t10 185q0 149 -31 219q-42 -383 -42 -501zM379 632q44 0 44 -46q0 -30 -19.5 -58t-44.5 -28q-23 0 -34.5 14.5t-11.5 36.5q0 30 19 55.5t47 25.5z" />
    <glyph glyph-name="fisquote" unicode="fi&#x2019;s" horiz-adv-x="711" 
d="M63 -347q0 -121 16 -121q10 0 23.5 60.5t23.5 157.5t10 185q0 149 -31 219q-42 -383 -42 -501zM379 632q44 0 44 -46q0 -30 -19.5 -58t-44.5 -28q-23 0 -34.5 14.5t-11.5 36.5q0 30 19 55.5t47 25.5zM353 -7q37 0 90 95.5t88.5 194.5t38.5 130q1 15 24 28t37 13q8 0 8 -5
l-1 -4q-1 -4 -2 -11.5t-2.5 -17t-3.5 -22t-3 -26.5t-2 -30t-1 -32q0 -35 31 -150.5t31 -157.5q0 -43 -27.5 -68.5t-62.5 -25.5q-31 0 -52.5 20.5t-21.5 58.5q0 13 4.5 26.5t10 20.5t8.5 7q2 0 2 -3v-4q0 -59 39 -59q32 0 32 57q0 48 -24 145t-24 102q-6 -14 -23.5 -54.5
t-31 -70.5t-36 -70.5t-43 -66.5t-48.5 -44.5t-56 -18.5q-32 0 -52 46t-20 130q0 66 13 150q0 9 -13 9q-82 -23 -143 -25q-2 -22 -4 -33q41 -72 65 -200t24 -256t-24.5 -211t-72.5 -83q-99 0 -99 198q0 89 25 292.5t27 279.5q0 13 -15 13t-44 7t-29 16q0 5 10 8q35 7 79 7
q9 0 9 8q9 23 37 480q0 10 2 10q8 0 11 -3q33 -50 47 -65q9 -10 9 -23q0 -7 -1 -11q-27 -190 -51 -389q77 9 125.5 25t70 27.5t39.5 11.5q17 0 17 -8q-4 -22 -12 -64.5t-10.5 -57.5t-7 -45t-6 -47t-3 -40.5t-1.5 -48.5q0 -65 19 -65zM481 700q36 37 61 37q35 0 35 -66
q0 -100 -64 -198l-15 10q18 36 18 105q0 76 -35 112z" />
    <glyph glyph-name="fiss" unicode="fiss" horiz-adv-x="899" 
d="M357 369q17 0 17 -8q-4 -22 -12 -64.5t-10.5 -57.5t-7 -45t-6 -47t-3 -40.5t-1.5 -48.5q0 -65 19 -65q33 0 103 163q29 67 46.5 139.5t21.5 116.5q1 15 24 28t37 13q8 0 8 -5l-1 -4q-1 -4 -2 -11.5t-2.5 -17t-3.5 -22t-3 -26.5t-2 -30t-1 -32q0 -12 2 -24t8 -29t8.5 -24
t13 -30.5t11.5 -26.5q112 75 124 119q-8 31 -8 68q0 29 7 54q4 14 29.5 28t48.5 14q2 0 4 -0.5t4 -0.5q8 0 8 -5l-7 -18q-7 -18 -18.5 -46.5t-18.5 -49.5q-1 -10 -1 -31q0 -33 40.5 -148t40.5 -158q0 -54 -32 -82.5t-76 -28.5q-40 0 -69 22t-29 59q0 49 29 49q7 0 12 -2
q-3 -12 -3 -23q0 -24 14.5 -38t34.5 -14q21 0 36 15.5t15 42.5q0 31 -10 74.5t-29 106t-20 64.5q-42 -50 -115 -98q18 -49 18 -80q0 -52 -29 -81.5t-67 -29.5q-31 0 -52.5 20.5t-21.5 57.5q0 40 88 104q-6 23 -16.5 53t-17 50t-6.5 27q-6 -11 -21 -55.5t-25 -68.5
q-37 -93 -76.5 -142t-73.5 -49q-32 0 -52 46t-20 130q0 66 13 150q0 9 -13 9q-82 -23 -143 -25q-2 -22 -4 -33q41 -72 65 -200t24 -256t-24.5 -211t-72.5 -83q-99 0 -99 198q0 89 25 292.5t27 279.5q0 13 -15 13t-44 7t-29 16q0 5 10 8q35 7 79 7q9 0 9 8q9 23 37 480
q0 10 2 10q8 0 11 -3q33 -50 47 -65q9 -10 9 -23q0 -7 -1 -11q-27 -190 -51 -389q77 9 125.5 25t70 27.5t39.5 11.5zM63 -347q0 -121 16 -121q10 0 23.5 60.5t23.5 157.5t10 185q0 149 -31 219q-42 -383 -42 -501zM379 632q44 0 44 -46q0 -30 -19.5 -58t-44.5 -28
q-23 0 -34.5 14.5t-11.5 36.5q0 30 19 55.5t47 25.5zM513 37q0 -12 7 -19.5t17 -7.5q44 0 44 53q0 21 -6 43q-62 -43 -62 -69z" />
    <glyph glyph-name="fisw" unicode="fisw" horiz-adv-x="1176" 
d="M202 -229q0 -128 -24.5 -211t-72.5 -83q-99 0 -99 198q0 89 25 292.5t27 279.5q0 13 -15 13t-44 7t-29 16q0 5 10 8q35 7 79 7q9 0 9 8q9 23 37 480q0 10 2 10q8 0 11 -3q33 -50 47 -65q9 -10 9 -23q0 -7 -1 -11q-27 -190 -51 -389q77 9 125.5 25t70 27.5t39.5 11.5
q17 0 17 -8q-4 -22 -12 -64.5t-10.5 -57.5t-7 -45t-6 -47t-3 -40.5t-1.5 -48.5q0 -65 19 -65q33 0 103 163q29 67 46.5 139.5t21.5 116.5q1 15 24 28t37 13q8 0 8 -5l-1 -4q-1 -4 -2 -11.5t-2.5 -17t-3.5 -22t-3 -26.5t-2 -30t-1 -32q0 -35 22 -84q49 60 95.5 99t75.5 39
q44 0 44 -109q0 -30 -5.5 -92t-5.5 -80q0 -14 5 -14q10 0 37.5 69.5t55.5 149t32 87.5q8 15 21 15q13 -2 28.5 -13t15.5 -21q0 -2 -5.5 -49t-11.5 -110t-6 -105q0 -78 21 -78q23 0 52.5 76.5t34.5 157.5q-7 21 -7 58q0 48 11.5 87.5t30.5 39.5q32 0 32 -42q0 -24 -11 -66
t-11 -45l40 -3q-1 -28 -7.5 -39t-20.5 -11q-12 0 -25 4q-23 -124 -58.5 -190t-71.5 -66q-33 0 -56 50t-23 133q0 50 8 97q-2 -5 -14 -48.5t-24 -78.5t-28 -77t-34 -66.5t-34 -24.5q-47 0 -47 127q0 50 8 131t8 88q0 12 -3 12q-16 0 -55.5 -33t-82.5 -81q42 -88 42 -135
q0 -52 -29 -81.5t-67 -29.5q-31 0 -52.5 20.5t-21.5 57.5q0 32 78 138q-30 88 -30 96q-5 -9 -12 -27.5t-17 -47t-18 -49.5q-37 -93 -76.5 -142t-73.5 -49q-32 0 -52 46t-20 130q0 66 13 150q0 9 -13 9q-82 -23 -143 -25q-2 -22 -4 -33q41 -72 65 -200t24 -256zM63 -347
q0 -121 16 -121q10 0 23.5 60.5t23.5 157.5t10 185q0 149 -31 219q-42 -383 -42 -501zM379 632q44 0 44 -46q0 -30 -19.5 -58t-44.5 -28q-23 0 -34.5 14.5t-11.5 36.5q0 30 19 55.5t47 25.5zM508 35q0 -25 30 -25q44 0 44 53q0 31 -16 84q-58 -75 -58 -112z" />
    <glyph glyph-name="hr" unicode="hr" horiz-adv-x="641" 
d="M379 253q-37 31 -37 94q0 33 12.5 55.5t34.5 22.5q37 0 37 -46q0 -11 -2.5 -33.5t-2.5 -31.5q0 -24 9 -24q5 0 22 10q15 10 37.5 30t39 34.5t19.5 14.5q10 0 21.5 -14.5t11.5 -25.5l-3 -13q-18 -47 -25 -64q-32 -77 -32 -143q0 -39 11 -62.5t29 -23.5q35 0 66 83
q6 15 14 20q5 3 6 3q3 0 3 -4l-1 -5q-7 -58 -39 -114t-83 -56q-71 0 -71 121q0 76 25 168q-24 -12 -59 -12q-8 0 -13 1q-11 -58 -30.5 -118t-52.5 -110.5t-66 -50.5q-93 0 -93 198q0 50 5 120q0 17 -4 17t-29 -46.5t-33 -65.5q-34 -77 -34 -167l1 -67q0 -17 -7 -17
q-2 0 -33 19t-36 24q1 29 16.5 236.5t30.5 401.5l16 194q11 0 39 -29t28 -42q0 -7 -1 -11q-49 -419 -49 -534q0 -4 3 -4q1 0 25 46t54 92.5t47 46.5q4 0 8.5 -2.5t7.5 -4.5l2 -2q39 -2 39 -26q-17 -122 -17 -217q0 -108 33 -108q28 0 58.5 79.5t41.5 162.5z" />
    <glyph glyph-name="hs" unicode="hs" horiz-adv-x="580" 
d="M279 1q4 0 8.5 3.5t9.5 10.5t9.5 14.5t10 19t9.5 21t9.5 23t9 22t9 22.5t7.5 19q28 68 46 141.5t22 114.5q1 15 24 28t37 13q8 0 8 -5l-1 -4q-1 -4 -2 -11.5t-3 -17t-3.5 -22t-2.5 -26.5t-2 -30t-1 -32q0 -35 31 -150.5t31 -157.5t-29 -65.5t-67 -23.5q-37 0 -63.5 22
t-26.5 62q0 21 5.5 43.5t10.5 22.5q3 0 3 -2v-3q0 -39 19 -64.5t41 -25.5q16 0 26.5 14.5t10.5 42.5q0 48 -21 144t-21 101q-5 -9 -11.5 -27.5t-16.5 -47.5t-18 -49q-17 -43 -27 -66.5t-27 -56t-33 -48t-33 -15.5q-21 0 -36.5 12.5t-25.5 38t-16.5 50t-9.5 62t-4.5 59.5
t-2 57.5t-0.5 42.5q0 17 -4 17t-29 -46.5t-33 -65.5q-34 -77 -34 -167l1 -67q0 -17 -7 -17q-2 0 -33 19t-36 24q1 29 16.5 236.5t30.5 401.5l16 194q11 0 39 -29t28 -42q0 -7 -1 -11q-49 -419 -49 -534q0 -4 3 -4q1 0 25 46t54 92.5t47 46.5q4 0 8.5 -2.5t7.5 -4.5l2 -2
q39 -2 39 -26q-6 -17 -12 -76.5t-6 -117.5q0 -141 34 -141z" />
    <glyph glyph-name="hsquote" unicode="h&#x2019;s" horiz-adv-x="610" 
d="M279 1q31 0 76 101.5t74 198.5t30 111q1 15 24 28t37 13q8 0 8 -5l-1 -4q-1 -4 -2 -11.5t-3 -17t-3.5 -22t-2.5 -26.5t-2 -30t-1 -32q0 -35 31 -150.5t31 -157.5t-29 -65.5t-67 -23.5q-37 0 -63.5 22t-26.5 62q0 21 5.5 43.5t10.5 22.5q3 0 3 -2v-3q0 -39 19 -64.5
t41 -25.5q16 0 26.5 14.5t10.5 42.5q0 48 -21 144t-21 101q-5 -10 -24.5 -55.5t-37.5 -82.5t-42 -80t-48 -67.5t-44 -24.5q-21 0 -36.5 12.5t-25.5 38t-16.5 50t-9.5 62t-4.5 59.5t-2 57.5t-0.5 42.5q0 17 -4 17t-29 -46.5t-33 -65.5q-34 -77 -34 -167l1 -67q0 -17 -7 -17
q-2 0 -33 19t-36 24q1 29 16.5 236.5t30.5 401.5l16 194q11 0 39 -29t28 -42q0 -7 -1 -11q-49 -419 -49 -534q0 -4 3 -4q1 0 25 46t54 92.5t47 46.5q4 0 8.5 -2.5t7.5 -4.5l2 -2q39 -2 39 -26q-6 -17 -12 -76.5t-6 -117.5q0 -141 34 -141zM364 699q36 37 61 37q35 0 35 -66
q0 -100 -64 -198l-15 10q18 36 18 105q0 76 -35 112z" />
    <glyph glyph-name="i_x" unicode="ix" horiz-adv-x="486" 
d="M268 127v1q-9 34 -21.5 91.5t-21.5 90t-18 41.5q32 38 68 38q31 0 34 -28q12 -92 22 -147q77 105 155 200q3 3 7 3q9 0 9 -12q0 -5 -1.5 -13t-1.5 -9l-21 -25q-21 -25 -61 -78t-78 -109q29 -137 63 -137q17 0 38 34t24 52q11 8 16 8q10 0 10 -17q0 -37 -34 -90.5
t-73 -53.5q-60 0 -101 115l-4 12q-67 -80 -108.5 -105.5t-77.5 -25.5q-73 0 -73 157q0 106 28 229q4 13 12 13q29 0 61 7q5 0 8 -2t4 -4v-2q-4 -22 -12 -64.5t-10.5 -57.5t-7 -45t-6 -47t-3 -40.5t-1.5 -48.5q0 -46 25 -46h1q59 0 150 115zM139 632q44 0 44 -46
q0 -30 -19.5 -58t-44.5 -28q-23 0 -34.5 14.5t-11.5 36.5q0 30 19 55.5t47 25.5z" />
    <glyph glyph-name="iacute_n" unicode="&#xed;n" horiz-adv-x="542" 
d="M174 642q71 -13 71 -45q0 -35 -74.5 -71.5t-164.5 -40.5l3 18q34 5 94 45t71 94zM92 -37q-73 0 -73 156q0 77 13.5 160t26.5 83q29 0 61 7q5 0 8 -2t4 -4v-2q-4 -22 -12 -64.5t-10.5 -57.5t-7 -45t-6 -47t-3 -40.5t-1.5 -48.5q0 -46 18 -46q21 0 39 19.5t32.5 55.5
t24.5 68.5t22 76.5t18 62q29 84 43 84q10 0 23 5.5t16 5.5q9 0 9 -86q0 -45 -0.5 -94t-0.5 -64q7 16 24.5 58t30 70t32.5 61.5t40 52.5q4 3 8 3q9 0 27.5 -13.5t18.5 -21.5q0 -3 -1 -5q-35 -78 -35 -205q0 -42 9.5 -73.5t24.5 -31.5q21 0 43 61q2 1 4 1q3 0 3 -3
q0 -34 -19.5 -68t-47.5 -34q-30 0 -50.5 26t-29 67.5t-11 70.5t-2.5 57q-21 -23 -38.5 -68.5t-34 -108.5t-21.5 -78q-1 -10 -15 -10q-9 0 -21 6t-19 12.5t-7 8.5l2 20q2 19 5 55.5t6 72.5q10 143 10 167q0 14 -2 14q-5 0 -18.5 -54t-30.5 -119t-52 -119t-77 -54z" />
    <glyph glyph-name="iacute_s" unicode="&#xed;s" horiz-adv-x="422" 
d="M174 642q71 -13 71 -45q0 -35 -74.5 -71.5t-164.5 -40.5l3 18q34 5 94 45t71 94zM329 -3q0 48 -22 155.5t-22 112.5q-6 -11 -21 -55.5t-25 -68.5q-38 -94 -77.5 -143t-72.5 -49q-32 0 -51 45t-19 129q0 119 25 226q4 13 12 13q30 0 61 7q5 0 8 -2t3 -4l1 -2
q-4 -22 -12 -64.5t-10.5 -57.5t-7 -45t-6 -47t-3 -40.5t-1.5 -48.5q0 -65 20 -65q34 0 104 163q29 67 46.5 139.5t21.5 116.5q1 15 24 28t37 13q8 0 8 -5l-1 -4q-1 -4 -2 -11.5t-3 -17t-3.5 -22t-2.5 -26.5t-2 -30t-1 -32q0 -35 31 -150.5t31 -157.5q0 -54 -32 -82.5
t-76 -28.5q-40 0 -69 22t-29 59q0 49 29 49q7 0 12 -2q-3 -12 -3 -23q0 -24 14.5 -38t34.5 -14t35.5 15.5t15.5 42.5z" />
    <glyph glyph-name="il" unicode="il" horiz-adv-x="369" 
d="M431 -103q54 0 76 52q5 12 8 12t3 -7v-3l6 -4q-5 -48 -36.5 -75t-73.5 -27q-128 0 -182 190q-63 -85 -122 -85q-40 0 -64 43.5t-24 129.5q0 119 25 226q4 13 12 13q29 0 61 7q5 0 8 -2t4 -4v-2q-4 -22 -12 -64.5t-10.5 -57.5t-7 -45t-6 -47t-3 -40.5t-1.5 -48.5
q0 -65 35 -65q43 0 96 78q-24 103 -24 242q0 130 20 255.5t53.5 205.5t69.5 80q65 0 65 -152q0 -82 -34.5 -273.5t-98.5 -322.5q40 -209 157 -209zM361 671q0 84 -23 84q-29 0 -55.5 -136.5t-26.5 -296.5q0 -97 9 -164q46 118 71 284.5t25 228.5zM139 632q44 0 44 -46
q0 -30 -19.5 -58t-44.5 -28q-23 0 -34.5 14.5t-11.5 36.5q0 30 19 55.5t47 25.5z" />
    <glyph glyph-name="ill" unicode="ill" horiz-adv-x="598" 
d="M346 -4q42 0 91 85q-12 92 -12 200q0 147 20.5 293.5t54 241t68.5 94.5q70 0 70 -167q0 -192 -43.5 -365t-111.5 -290q31 -201 130 -201q43 0 68 62q5 12 8 12t3 -7v-3l6 -4q0 -39 -29 -85t-67 -46q-114 0 -157 215q-65 -86 -122 -86q-59 0 -91 91q-63 -86 -122 -86
q-40 0 -64 43.5t-24 129.5q0 119 25 226q4 13 12 13q29 0 61 7q5 0 8 -2t4 -4v-2q-4 -22 -12 -64.5t-10.5 -57.5t-7 -45t-6 -47t-3 -40.5t-1.5 -48.5q0 -65 35 -65q42 0 95 78q-22 88 -22 233q0 134 20 262t53 208t69 80q65 0 65 -152q0 -82 -34.5 -274t-99.5 -323
q23 -109 73 -109zM256 322q0 -98 9 -166q46 118 71 285t25 230q0 84 -23 84q-29 0 -55.5 -136.5t-26.5 -296.5zM569 714q0 80 -14 80q-17 0 -37 -76t-34 -198.5t-14 -239.5q0 -70 4 -121q42 104 68 249t27 306zM139 632q44 0 44 -46q0 -30 -19.5 -58t-44.5 -28
q-23 0 -34.5 14.5t-11.5 36.5q0 30 19 55.5t47 25.5z" />
    <glyph glyph-name="ills" unicode="ills" horiz-adv-x="904" 
d="M425 281q0 147 20.5 293.5t54 241t68.5 94.5q70 0 70 -167q0 -193 -44.5 -367t-112.5 -291q18 -113 61 -113q34 0 77 71t77 173.5t47 195.5q0 15 23.5 28t37.5 13q8 0 8 -5l-1 -4q-1 -4 -2 -11.5t-3 -17t-3.5 -22t-2.5 -26.5t-2 -30t-1 -32q0 -35 41 -150.5t41 -157.5
q0 -54 -32 -82.5t-76 -28.5q-40 0 -69 22t-29 59q0 49 29 49q7 0 12 -2q-3 -12 -3 -23q0 -24 14.5 -38t34.5 -14t35.5 15.5t15.5 42.5q0 48 -32 155.5t-32 112.5q-45 -156 -102.5 -244t-108.5 -88q-56 0 -86 104q-68 -92 -127 -92t-91 91q-63 -86 -122 -86q-40 0 -64 43.5
t-24 129.5q0 119 25 226q4 13 12 13q29 0 61 7q5 0 8 -2t4 -4v-2q-4 -22 -12 -64.5t-10.5 -57.5t-7 -45t-6 -47t-3 -40.5t-1.5 -48.5q0 -65 35 -65q42 0 95 78q-22 88 -22 233q0 134 20 262t53 208t69 80q65 0 65 -152q0 -82 -34.5 -274t-99.5 -323q23 -109 73 -109
q44 0 93 88q-14 81 -14 197zM361 671q0 84 -23 84q-29 0 -55.5 -136.5t-26.5 -296.5q0 -98 9 -166q46 118 71 285t25 230zM569 714q0 80 -14 80q-17 0 -37 -76t-34 -198.5t-14 -239.5q0 -76 4 -123q42 104 68 249.5t27 307.5zM139 632q44 0 44 -46q0 -30 -19.5 -58
t-44.5 -28q-23 0 -34.5 14.5t-11.5 36.5q0 30 19 55.5t47 25.5z" />
    <glyph glyph-name="illsquote" unicode="ill&#x2019;s" horiz-adv-x="965" 
d="M558 -4q46 0 105 74t101.5 172.5t49.5 169.5q1 15 24 28t37 13q8 0 8 -5l-1 -4q-1 -4 -2 -11.5t-2.5 -17t-3.5 -22t-3 -26.5t-2 -30t-1 -32q0 -35 31 -150.5t31 -157.5t-29 -65.5t-67 -23.5q-37 0 -63.5 22t-26.5 62q0 21 5.5 43.5t10.5 22.5q3 0 3 -2v-3q0 -39 19 -64.5
t41 -25.5q16 0 26.5 14.5t10.5 42.5q0 48 -21 144t-21 101q-45 -147 -115.5 -237t-136.5 -90q-72 0 -110 108q-71 -101 -133 -101q-59 0 -91 91q-63 -86 -122 -86q-40 0 -64 43.5t-24 129.5q0 119 25 226q4 13 12 13q29 0 61 7q5 0 8 -2t4 -4v-2q-4 -22 -12 -64.5
t-10.5 -57.5t-7 -45t-6 -47t-3 -40.5t-1.5 -48.5q0 -65 35 -65q42 0 95 78q-22 88 -22 233q0 134 20 262t53 208t69 80q65 0 65 -152q0 -82 -34.5 -274t-99.5 -323q23 -109 73 -109q46 0 98 96q-19 82 -19 202q0 140 20 283t53.5 238t69.5 95q70 0 70 -167
q0 -191 -43 -362.5t-110 -288.5q23 -96 73 -96zM361 671q0 84 -23 84q-29 0 -55.5 -136.5t-26.5 -296.5q0 -98 9 -166q46 118 71 285t25 230zM555 794q-28 0 -56.5 -171t-28.5 -349q0 -61 5 -114q41 105 67 249t27 305q0 80 -14 80zM740 719q36 37 61 37q35 0 35 -66
q0 -100 -64 -198l-15 10q18 36 18 105q0 76 -35 112zM139 632q44 0 44 -46q0 -30 -19.5 -58t-44.5 -28q-23 0 -34.5 14.5t-11.5 36.5q0 30 19 55.5t47 25.5z" />
    <glyph glyph-name="ils" unicode="ils" horiz-adv-x="678" 
d="M199 313q0 130 20 255.5t53.5 205.5t69.5 80q65 0 65 -152q0 -84 -35 -278t-101 -325q18 -99 58 -99q49 0 109 135t79 277q0 15 23.5 28t37.5 13q8 0 8 -5l-1 -4q-1 -4 -2 -11.5t-3 -17t-3.5 -22t-2.5 -26.5t-2 -30t-1 -32q0 -35 41 -150.5t41 -157.5q0 -54 -32 -82.5
t-76 -28.5q-40 0 -69 22t-29 59q0 49 29 49q7 0 12 -2q-3 -12 -3 -23q0 -24 14.5 -38t34.5 -14t35.5 15.5t15.5 42.5q0 48 -32 155.5t-32 112.5q-44 -151 -99 -233.5t-105 -82.5q-53 0 -84 88q-62 -87 -123 -87q-40 0 -64 43.5t-24 129.5q0 119 25 226q4 13 12 13q29 0 61 7
q5 0 8 -2t4 -4v-2q-4 -22 -12 -64.5t-10.5 -57.5t-7 -45t-6 -47t-3 -40.5t-1.5 -48.5q0 -65 35 -65q42 0 95 78q-23 90 -23 242zM361 671q0 84 -23 84q-29 0 -55.5 -136.5t-26.5 -296.5q0 -107 7 -170q46 118 72 287t26 232zM139 632q44 0 44 -46q0 -30 -19.5 -58t-44.5 -28
q-23 0 -34.5 14.5t-11.5 36.5q0 30 19 55.5t47 25.5z" />
    <glyph glyph-name="ilsquote" unicode="il&#x2019;s" horiz-adv-x="765" 
d="M373 2q45 0 100 69.5t94.5 167t46.5 176.5q1 15 24 28t37 13q8 0 8 -5l-1 -4q-1 -4 -2 -11.5t-2.5 -17t-3.5 -22t-3 -26.5t-2 -30t-1 -32q0 -35 31 -150.5t31 -157.5t-29 -65.5t-67 -23.5q-37 0 -63.5 22t-26.5 62q0 21 5.5 43.5t10.5 22.5q3 0 3 -2v-3q0 -40 19 -65
t41 -25q16 0 26.5 14.5t10.5 42.5q0 48 -21 144t-21 101q-45 -147 -116.5 -236.5t-138.5 -89.5q-77 0 -115 118q-73 -109 -140 -109q-39 0 -62.5 43.5t-23.5 128.5q0 119 25 226q4 13 12 13q29 0 61 7q5 0 8 -2t4 -4v-2q-4 -22 -12 -64.5t-10.5 -57.5t-7 -45t-6 -47
t-3 -40.5t-1.5 -48.5q0 -64 35 -64q23 0 54 29t57 74q-18 76 -18 194q0 134 20.5 266.5t54 216t68.5 83.5q65 0 65 -152q0 -98 -38 -268.5t-99 -297.5q21 -137 82 -137zM382 674q0 84 -23 84q-26 0 -51.5 -149.5t-25.5 -317.5q0 -36 2 -88q43 117 70.5 257t27.5 214z
M540 722q36 37 61 37q35 0 35 -66q0 -100 -64 -198l-15 10q18 36 18 105q0 76 -35 112zM139 632q44 0 44 -46q0 -30 -19.5 -58t-44.5 -28q-23 0 -34.5 14.5t-11.5 36.5q0 30 19 55.5t47 25.5z" />
    <glyph glyph-name="im" unicode="im" horiz-adv-x="748" 
d="M249 -20l2 20q2 19 5 55.5t6 72.5q10 143 10 167q0 14 -2 14q-5 0 -18.5 -54t-30.5 -119t-52 -119t-77 -54q-73 0 -73 156q0 77 13.5 160t26.5 83q29 0 61 7q5 0 8 -2t4 -4v-2q-4 -22 -12 -64.5t-10.5 -57.5t-7 -45t-6 -47t-3 -40.5t-1.5 -48.5q0 -46 18 -46
q21 0 39 19.5t32.5 55.5t24.5 68.5t22 76.5t18 62q29 84 43 84q10 0 23 5.5t16 5.5q9 0 9 -86v-164q58 239 108 239q31 0 43 -15.5t12 -48.5v-65q0 -98 -8 -139q9 20 34.5 90.5t51 126.5t51.5 80q5 3 8 3q9 0 27.5 -13.5t18.5 -21.5q0 -3 -1 -5q-35 -78 -35 -205
q0 -47 13.5 -83.5t34.5 -36.5q20 0 45 26q2 1 4 1q3 0 3 -3q0 -31 -26 -56t-56 -25q-90 0 -90 193q0 19 1 44.5t1 30.5q-13 -21 -28.5 -72t-32.5 -113t-24 -84q-1 -10 -18 -10q-51 0 -51 15q10 90 10 220q0 90 -9 90q-18 0 -49 -103t-53 -221q-4 -22 -30 -22q-15 0 -29 7.5
t-14 16.5zM139 632q44 0 44 -46q0 -30 -19.5 -58t-44.5 -28q-23 0 -34.5 14.5t-11.5 36.5q0 30 19 55.5t47 25.5z" />
    <glyph glyph-name="iml" unicode="iml" horiz-adv-x="944" 
d="M682 370q-35 -78 -35 -205q0 -76 16 -116t42 -40q33 0 73 61q-24 103 -24 243q0 130 20 255.5t53.5 205.5t69.5 80q65 0 65 -152q0 -80 -35 -272.5t-98 -323.5q40 -209 157 -209q54 0 76 52q5 12 8 12t3 -7v-3l6 -4q-5 -48 -36.5 -75t-73.5 -27q-128 0 -182 189
q-54 -75 -104 -75q-48 0 -78 66t-30 177q0 15 2 51v3q-13 -21 -28.5 -72t-32.5 -113t-24 -84q-1 -10 -18 -10q-51 0 -51 15q10 90 10 220q0 90 -9 90q-18 0 -49 -103t-53 -221q-4 -22 -30 -22q-15 0 -29 7.5t-14 16.5l2 20q2 19 5 55.5t6 72.5q10 143 10 167q0 14 -2 14
q-5 0 -18.5 -54t-30.5 -119t-52 -119t-77 -54q-73 0 -73 156q0 77 13.5 160t26.5 83q29 0 61 7q5 0 8 -2t4 -4v-2q-4 -22 -12 -64.5t-10.5 -57.5t-7 -45t-6 -47t-3 -40.5t-1.5 -48.5q0 -46 18 -46q21 0 39 19.5t32.5 55.5t24.5 68.5t22 76.5t18 62q29 84 43 84q10 0 23 5.5
t16 5.5q9 0 9 -86v-164q58 239 108 239q31 0 43 -15.5t12 -48.5v-65q0 -98 -8 -139q9 20 34.5 90.5t51 126.5t51.5 80q5 3 8 3q9 0 27.5 -13.5t18.5 -21.5q0 -3 -1 -5zM811 322q0 -97 9 -164q46 118 71 284.5t25 228.5q0 84 -23 84q-29 0 -55.5 -136.5t-26.5 -296.5z
M139 632q-28 0 -47 -25.5t-19 -55.5q0 -22 11.5 -36.5t34.5 -14.5q25 0 44.5 28t19.5 58q0 46 -44 46z" />
    <glyph glyph-name="in" unicode="in" horiz-adv-x="556" 
d="M139 632q44 0 44 -46q0 -30 -19.5 -58t-44.5 -28q-23 0 -34.5 14.5t-11.5 36.5q0 30 19 55.5t47 25.5zM92 -37q-73 0 -73 156q0 77 13.5 160t26.5 83q29 0 61 7q5 0 8 -2t4 -4v-2q-4 -22 -12 -64.5t-10.5 -57.5t-7 -45t-6 -47t-3 -40.5t-1.5 -48.5q0 -46 18 -46
q21 0 39 19.5t32.5 55.5t24.5 68.5t22 76.5t18 62q29 84 43 84q10 0 23 5.5t16 5.5q9 0 9 -86q0 -45 -0.5 -94t-0.5 -64q7 16 24.5 58t30 70t32.5 61.5t40 52.5q4 3 8 3q9 0 27.5 -13.5t18.5 -21.5q0 -3 -1 -5q-35 -78 -35 -205q0 -42 9.5 -73.5t24.5 -31.5q21 0 43 61
q2 1 4 1q3 0 3 -3q0 -34 -19.5 -68t-47.5 -34q-30 0 -50.5 26t-29 67.5t-11 70.5t-2.5 57q-21 -23 -38.5 -68.5t-34 -108.5t-21.5 -78q-1 -10 -15 -10q-9 0 -21 6t-19 12.5t-7 8.5l2 20q2 19 5 55.5t6 72.5q10 143 10 167q0 14 -2 14q-5 0 -18.5 -54t-30.5 -119t-52 -119
t-77 -54z" />
    <glyph glyph-name="inl" unicode="inl" horiz-adv-x="778" 
d="M516 350q-35 -78 -35 -205q0 -136 55 -136q37 0 76 62q-24 103 -24 242q0 130 20 255.5t53.5 205.5t69.5 80q65 0 65 -152q0 -80 -35 -272.5t-98 -323.5q40 -209 157 -209q54 0 76 52q5 12 8 12t3 -7v-3l6 -4q-5 -48 -36.5 -75t-73.5 -27q-128 0 -182 189
q-52 -71 -100 -71q-50 0 -83 69t-33 165v21q-21 -23 -38.5 -68.5t-34 -108.5t-21.5 -78q-1 -10 -15 -10q-9 0 -21 6t-19 12.5t-7 8.5l2 20q2 19 5 55.5t6 72.5q10 143 10 167q0 14 -2 14q-5 0 -18.5 -54t-30.5 -119t-52 -119t-77 -54q-73 0 -73 156q0 77 13.5 160t26.5 83
q29 0 61 7q5 0 8 -2t4 -4v-2q-4 -22 -12 -64.5t-10.5 -57.5t-7 -45t-6 -47t-3 -40.5t-1.5 -48.5q0 -46 18 -46q21 0 39 19.5t32.5 55.5t24.5 68.5t22 76.5t18 62q29 84 43 84q10 0 23 5.5t16 5.5q9 0 9 -86q0 -52 -0.5 -102.5t-0.5 -55.5q7 16 24.5 58t30 70t32.5 61.5
t40 52.5q4 3 8 3q9 0 27.5 -13.5t18.5 -21.5q0 -3 -1 -5zM645 322q0 -97 9 -164q46 118 71 284.5t25 228.5q0 84 -23 84q-29 0 -55.5 -136.5t-26.5 -296.5zM139 632q-28 0 -47 -25.5t-19 -55.5q0 -22 11.5 -36.5t34.5 -14.5q25 0 44.5 28t19.5 58q0 46 -44 46z" />
    <glyph glyph-name="inn" unicode="inn" horiz-adv-x="926" 
d="M262 128q10 143 10 167q0 14 -2 14q-5 0 -18.5 -54t-30.5 -119t-52 -119t-77 -54q-73 0 -73 156q0 77 13.5 160t26.5 83q29 0 61 7q5 0 8 -2t4 -4v-2q-4 -22 -12 -64.5t-10.5 -57.5t-7 -45t-6 -47t-3 -40.5t-1.5 -48.5q0 -46 18 -46q21 0 39 19.5t32.5 55.5t24.5 68.5
t22 76.5t18 62q29 84 43 84q10 0 23 5.5t16 5.5q9 0 9 -86q0 -45 -0.5 -94t-0.5 -64q7 16 24.5 58t30 70t32.5 61.5t40 52.5q4 3 8 3q9 0 27.5 -13.5t18.5 -21.5q0 -3 -1 -5q-34 -87 -34 -246q0 -92 18 -92q25 0 49 62t50 167.5t33 125.5l1.5 6t2.5 3l3 1.5t4 1t5 0.5
q8 1 19.5 3.5t19.5 4.5t11 2q9 0 9 -86q0 -45 -0.5 -94t-0.5 -64q7 16 24.5 58t30 70t32.5 61.5t40 52.5q4 3 8 3q9 0 27.5 -13.5t18.5 -21.5q0 -3 -1 -5q-35 -78 -35 -205q0 -42 9.5 -73.5t24.5 -31.5q21 0 43 61q2 1 4 1q3 0 3 -3q0 -34 -19.5 -68t-47.5 -34
q-30 0 -50.5 26t-29 67.5t-11 70.5t-2.5 57q-22 -23 -38.5 -61.5t-35 -103.5t-20.5 -71q-1 -10 -15 -10q-10 0 -21 1.5t-18.5 3.5t-7.5 3q20 118 20 282q0 44 -1 66l-5 -25q-11 -51 -16.5 -76t-17.5 -73.5t-23 -75t-25.5 -57t-32 -44.5t-36.5 -14q-70 0 -77 255
q-21 -23 -38.5 -68.5t-34 -108.5t-21.5 -78q0 -10 -15 -10q-8 0 -17.5 4t-10.5 8q-2 5 -10.5 7t-8.5 8t1 9q2 9 12 139zM139 632q44 0 44 -46q0 -30 -19.5 -58t-44.5 -28q-23 0 -34.5 14.5t-11.5 36.5q0 30 19 55.5t47 25.5z" />
    <glyph glyph-name="inquote" unicode="i&#x2019;n" horiz-adv-x="621" 
d="M312 305q25 73 42 73q10 0 23 5.5t16 5.5q9 0 9 -86q0 -45 -0.5 -94t-0.5 -64q7 16 24.5 58t30 70t32.5 61.5t40 52.5q4 3 8 3q9 0 27.5 -13.5t18.5 -21.5q0 -3 -1 -5q-35 -78 -35 -205q0 -42 9.5 -73.5t24.5 -31.5q21 0 43 61q2 1 4 1q3 0 3 -3q0 -34 -19.5 -68
t-47.5 -34q-30 0 -50.5 26t-29 67.5t-11 70.5t-2.5 57q-21 -23 -38.5 -68.5t-34 -108.5t-21.5 -78q-1 -10 -15 -10q-9 0 -21 6t-19 12.5t-7 8.5l2 20q2 19 5 55.5t6 72.5q10 143 10 167q0 14 -2 14q-8 -35 -16 -60t-20 -54t-20 -54q-32 -95 -76 -144.5t-87 -49.5
q-42 0 -69.5 46.5t-27.5 129.5q0 119 25 226q4 13 12 13q30 0 61 7q5 0 8 -2t3 -4l1 -2q-4 -22 -12 -64.5t-10.5 -57.5t-7 -45t-6 -47t-3 -40.5t-1.5 -48.5q0 -64 30 -64q32 0 75 63.5t72.5 130.5t45.5 117zM242 719q36 37 61 37q35 0 35 -66q0 -100 -64 -198l-15 10
q18 36 18 105q0 76 -35 112zM136 632q44 0 44 -46q0 -30 -19.5 -58t-44.5 -28q-23 0 -34.5 14.5t-11.5 36.5q0 30 19 55.5t47 25.5z" />
    <glyph glyph-name="inr" unicode="inr" horiz-adv-x="878" 
d="M139 632q44 0 44 -46q0 -30 -19.5 -58t-44.5 -28q-23 0 -34.5 14.5t-11.5 36.5q0 30 19 55.5t47 25.5zM296 -47q-9 0 -21 6t-19 12.5t-7 8.5l2 20q2 19 5 55.5t6 72.5q10 143 10 167q0 14 -2 14q-5 0 -18.5 -54t-30.5 -119t-52 -119t-77 -54q-73 0 -73 156q0 77 13.5 160
t26.5 83q29 0 61 7q5 0 8 -2t4 -4v-2q-4 -22 -12 -64.5t-10.5 -57.5t-7 -45t-6 -47t-3 -40.5t-1.5 -48.5q0 -46 18 -46q21 0 39 19.5t32.5 55.5t24.5 68.5t22 76.5t18 62q29 84 43 84q10 0 23 5.5t16 5.5q9 0 9 -86q0 -45 -0.5 -94t-0.5 -64q2 4 24 58t33.5 78t33.5 61.5
t42 56.5q4 3 8 3q9 0 27.5 -13.5t18.5 -21.5q0 -3 -1 -5q-35 -78 -35 -205q0 -44 13 -72t35 -28q28 0 48.5 60.5t31.5 147.5q-36 30 -36 94q0 33 12.5 55.5t34.5 22.5q37 0 37 -46q0 -11 -2.5 -33.5t-2.5 -31.5q0 -24 9 -24q5 0 22 10q15 10 37.5 30t39 34.5t19.5 14.5
q10 0 21.5 -14.5t11.5 -25.5l-3 -13q-18 -47 -25 -64q-32 -77 -32 -143q0 -39 11 -62.5t29 -23.5q35 0 66 83q6 15 14 20q4 3 6 3q3 0 3 -4l-1 -5q-7 -58 -39 -114t-83 -56q-71 0 -71 121q0 76 25 168q-24 -12 -59 -12q-9 0 -14 1q-9 -45 -20 -88t-28 -90t-40.5 -76
t-48.5 -29q-90 0 -97 263q-22 -23 -40.5 -70t-38.5 -118t-23 -79q-3 -10 -13 -10z" />
    <glyph glyph-name="ins" unicode="ins" horiz-adv-x="815" 
d="M483 145q-1 -14 -1 -41q0 -103 32 -103q4 0 8.5 3.5t9.5 10.5t9.5 14.5t10 19t9.5 21t9.5 23t9 22t9 22.5t7.5 19q28 68 46 141.5t22 114.5q1 15 24 28t37 13q8 0 8 -5l-1 -4q-1 -4 -2 -11.5t-2.5 -17t-3.5 -22t-3 -26.5t-2 -30t-1 -32q0 -35 31 -150.5t31 -157.5
t-29 -65.5t-67 -23.5q-37 0 -63.5 22t-26.5 62q0 21 5.5 43.5t10.5 22.5q3 0 3 -2v-3q0 -39 19 -64.5t41 -25.5q16 0 26.5 14.5t10.5 42.5q0 48 -21 144t-21 101q-5 -9 -11.5 -27.5t-16.5 -47.5t-18 -49q-17 -43 -27 -66.5t-27 -56t-33 -48t-33 -15.5q-90 0 -97 263
q-21 -23 -38.5 -68.5t-34 -108.5t-21.5 -78q-1 -10 -15 -10q-9 0 -21 6t-19 12.5t-7 8.5l2 20q2 19 5 55.5t6 72.5q10 143 10 167q0 14 -2 14q-5 0 -18.5 -54t-30.5 -119t-52 -119t-77 -54q-73 0 -73 156q0 77 13.5 160t26.5 83q29 0 61 7q5 0 8 -2t4 -4v-2
q-4 -22 -12 -64.5t-10.5 -57.5t-7 -45t-6 -47t-3 -40.5t-1.5 -48.5q0 -46 18 -46q21 0 39 19.5t32.5 55.5t24.5 68.5t22 76.5t18 62q29 84 43 84q10 0 23 5.5t16 5.5q9 0 9 -86q0 -52 -0.5 -102.5t-0.5 -55.5q7 16 24.5 58t30 70t32.5 61.5t40 52.5q4 3 8 3q9 0 27.5 -13.5
t18.5 -21.5q0 -3 -1 -5q-33 -74 -33 -205zM139 632q44 0 44 -46q0 -30 -19.5 -58t-44.5 -28q-23 0 -34.5 14.5t-11.5 36.5q0 30 19 55.5t47 25.5z" />
    <glyph glyph-name="insquote" unicode="in&#x2019;s" horiz-adv-x="845" 
d="M483 140q0 -6 -0.5 -18.5t-0.5 -17.5q0 -103 32 -103q31 0 76 101.5t74 198.5t30 111q1 15 24 28t37 13q8 0 8 -5l-1 -4q-1 -4 -2 -11.5t-2.5 -17t-3.5 -22t-3 -26.5t-2 -30t-1 -32q0 -35 31 -150.5t31 -157.5t-29 -65.5t-67 -23.5q-37 0 -63.5 22t-26.5 62
q0 21 5.5 43.5t10.5 22.5q3 0 3 -2v-3q0 -39 19 -64.5t41 -25.5q16 0 26.5 14.5t10.5 42.5q0 48 -21 144t-21 101q-5 -10 -24.5 -55.5t-37.5 -82.5t-42 -80t-48 -67.5t-44 -24.5q-90 0 -97 263q-21 -23 -38.5 -68.5t-34 -108.5t-21.5 -78q-1 -10 -15 -10q-9 0 -21 6
t-19 12.5t-7 8.5l2 20q2 19 5 55.5t6 72.5q10 143 10 167q0 14 -2 14q-5 0 -18.5 -54t-30.5 -119t-52 -119t-77 -54q-73 0 -73 156q0 77 13.5 160t26.5 83q29 0 61 7q5 0 8 -2t4 -4v-2q-4 -22 -12 -64.5t-10.5 -57.5t-7 -45t-6 -47t-3 -40.5t-1.5 -48.5q0 -46 18 -46
q21 0 39 19.5t32.5 55.5t24.5 68.5t22 76.5t18 62q29 84 43 84q10 0 23 5.5t16 5.5q9 0 9 -86q0 -45 -0.5 -94t-0.5 -64q7 16 24.5 58t30 70t32.5 61.5t40 52.5q4 3 8 3q9 0 27.5 -13.5t18.5 -21.5q0 -3 -1 -5q-33 -74 -33 -210zM599 699q36 37 61 37q35 0 35 -66
q0 -100 -64 -198l-15 10q18 36 18 105q0 76 -35 112zM139 632q44 0 44 -46q0 -30 -19.5 -58t-44.5 -28q-23 0 -34.5 14.5t-11.5 36.5q0 30 19 55.5t47 25.5z" />
    <glyph glyph-name="ir" unicode="ir" horiz-adv-x="489" 
d="M270 237q-7 0 -15 2q-22 -122 -63 -199t-100 -77q-73 0 -73 157q0 106 28 229q4 13 12 13q29 0 61 7q5 0 8 -2t4 -4v-2q-5 -26 -14 -75t-12 -67.5t-7.5 -50.5t-6 -56.5t-1.5 -53.5q0 -22 9 -34.5t22 -12.5q70 0 104 248q-30 38 -30 94q0 64 40 64q37 0 37 -43
q0 -10 -2 -30t-2 -30q0 -24 9 -24q5 0 22 10q15 10 37.5 30t39 34.5t19.5 14.5q10 0 21.5 -14.5t11.5 -25.5l-3 -13q-3 -7 -13 -32.5t-13.5 -35.5t-11 -32.5t-10.5 -36.5t-6 -33t-3 -37q0 -39 11 -62.5t29 -23.5q35 0 66 83q6 15 14 20q5 3 6 3q3 0 3 -4l-1 -5
q-7 -58 -39 -114t-83 -56q-71 0 -71 121q0 76 25 168q-24 -12 -59 -12zM139 632q44 0 44 -46q0 -30 -19.5 -58t-44.5 -28q-23 0 -34.5 14.5t-11.5 36.5q0 30 19 55.5t47 25.5z" />
    <glyph glyph-name="irl" unicode="irl" horiz-adv-x="670" 
d="M396 379q10 0 21.5 -14.5t11.5 -25.5l-3 -13q-3 -7 -13 -32.5t-13.5 -35.5t-11 -32.5t-10.5 -36.5t-6 -33t-3 -37q0 -112 51 -112q41 0 84 64q-24 103 -24 242q0 130 20 255.5t53.5 205.5t69.5 80q65 0 65 -152q0 -82 -34.5 -274t-98.5 -323q42 -208 157 -208q54 0 76 52
q5 12 8 12t3 -7v-3l6 -4q-5 -48 -36.5 -75t-73.5 -27q-129 0 -183 192q-64 -77 -129 -77q-35 0 -57 30t-22 91q0 76 25 168q-24 -12 -59 -12q-7 0 -15 2q-22 -122 -63 -199t-100 -77q-73 0 -73 157q0 106 28 229q4 13 12 13q29 0 61 7q5 0 8 -2t4 -4v-2q-5 -26 -14 -75
t-12 -67.5t-7.5 -50.5t-6 -56.5t-1.5 -53.5q0 -22 9 -34.5t22 -12.5q54 0 83 128q13 58 21 120q-30 38 -30 94q0 64 40 64q37 0 37 -43q0 -10 -2 -30t-2 -30q0 -24 9 -24q5 0 22 10q15 10 37.5 30t39 34.5t19.5 14.5zM642 671q0 84 -23 84q-29 0 -55.5 -136.5t-26.5 -296.5
q0 -97 9 -164q46 118 71 284.5t25 228.5zM139 632q44 0 44 -46q0 -30 -19.5 -58t-44.5 -28q-23 0 -34.5 14.5t-11.5 36.5q0 30 19 55.5t47 25.5z" />
    <glyph glyph-name="irls" unicode="irls" horiz-adv-x="958" 
d="M329 249q-24 -12 -59 -12q-7 0 -15 2q-22 -122 -63 -199t-100 -77q-73 0 -73 157q0 106 28 229q4 13 12 13q29 0 61 7q5 0 8 -2t4 -4v-2q-5 -26 -14 -75t-12 -67.5t-7.5 -50.5t-6 -56.5t-1.5 -53.5q0 -22 9 -34.5t22 -12.5q54 0 83 128q13 58 21 120q-30 38 -30 94
q0 64 40 64q37 0 37 -43q0 -10 -2 -30t-2 -30q0 -24 9 -24q5 0 22 10q15 10 37.5 30t39 34.5t19.5 14.5q10 0 21.5 -14.5t11.5 -25.5l-3 -13q-3 -7 -13 -32.5t-13.5 -35.5t-11 -32.5t-10.5 -36.5t-6 -33t-3 -37q0 -112 51 -112q39 0 83 64q-23 86 -23 216q0 127 21 259.5
t55 220t67 87.5q65 0 65 -152q0 -84 -35 -277.5t-100 -323.5q26 -85 79 -85q32 0 63.5 54.5t52.5 128t34 132t15 81.5q1 15 24 28t37 13q8 0 8 -5l-1 -4q-1 -4 -2 -11.5t-3 -17t-3.5 -22t-2.5 -26.5t-2 -30t-1 -32q0 -35 41 -150.5t41 -157.5q0 -54 -32 -82.5t-76 -28.5
q-40 0 -69 22t-29 59q0 49 29 49q7 0 12 -2q-3 -12 -3 -23q0 -24 14.5 -38t34.5 -14t35.5 15.5t15.5 42.5q0 48 -32 155.5t-32 112.5q-10 -57 -37 -129.5t-67.5 -131.5t-75.5 -59q-69 0 -107 94q-29 -36 -64.5 -57.5t-66.5 -21.5q-35 0 -57 30t-22 91q0 76 25 168zM642 671
q0 84 -23 84q-28 0 -57.5 -152.5t-29.5 -307.5q0 -88 11 -147q47 118 73 288.5t26 234.5zM139 632q44 0 44 -46q0 -30 -19.5 -58t-44.5 -28q-23 0 -34.5 14.5t-11.5 36.5q0 30 19 55.5t47 25.5z" />
    <glyph glyph-name="irlsquote" unicode="irl&#x2019;s" horiz-adv-x="1014" 
d="M396 379q10 0 21.5 -14.5t11.5 -25.5l-3 -13q-3 -7 -13 -32.5t-13.5 -35.5t-11 -32.5t-10.5 -36.5t-6 -33t-3 -37q0 -112 51 -112q39 0 83 64q-23 86 -23 216q0 127 21 259.5t55 220t67 87.5q65 0 65 -152q0 -84 -35 -277.5t-100 -323.5q26 -85 79 -85q46 0 101 68.5
t94 160.5t46 164q1 15 24 28t37 13q8 0 8 -5l-1 -4q-1 -4 -2 -11.5t-3 -17t-3.5 -22t-2.5 -26.5t-2 -30t-1 -32q0 -35 31 -150.5t31 -157.5t-29 -65.5t-67 -23.5q-37 0 -63.5 22t-26.5 62q0 21 5.5 43.5t10.5 22.5q3 0 3 -2v-3q0 -40 19 -65t41 -25q16 0 26.5 14.5
t10.5 42.5q0 48 -20 154.5t-20 111.5q-46 -151 -118.5 -244.5t-139.5 -93.5q-69 0 -107 94q-29 -36 -64.5 -57.5t-66.5 -21.5q-35 0 -57 30t-22 91q0 76 25 168q-24 -12 -59 -12q-7 0 -15 2q-22 -122 -63 -199t-100 -77q-73 0 -73 157q0 106 28 229q4 13 12 13q29 0 61 7
q5 0 8 -2t4 -4v-2q-5 -26 -14 -75t-12 -67.5t-7.5 -50.5t-6 -56.5t-1.5 -53.5q0 -22 9 -34.5t22 -12.5q54 0 83 128q13 58 21 120q-30 38 -30 94q0 64 40 64q37 0 37 -43q0 -10 -2 -30t-2 -30q0 -24 9 -24q5 0 22 10q15 10 37.5 30t39 34.5t19.5 14.5zM642 671q0 84 -23 84
q-28 0 -57.5 -152.5t-29.5 -307.5q0 -88 11 -147q47 118 73 288.5t26 234.5zM804 719q36 37 61 37q35 0 35 -66q0 -100 -64 -198l-15 10q18 36 18 105q0 76 -35 112zM139 632q44 0 44 -46q0 -30 -19.5 -58t-44.5 -28q-23 0 -34.5 14.5t-11.5 36.5q0 30 19 55.5t47 25.5z" />
    <glyph glyph-name="irr" unicode="irr" horiz-adv-x="763" 
d="M551 278q-10 0 -15 1q-3 -11 -9.5 -42t-11 -52t-13.5 -54t-17 -55.5t-20 -48.5t-24.5 -42t-29 -26.5t-34.5 -10.5q-72 0 -72 130q0 86 24 171q-24 -12 -59 -12q-7 0 -15 2q-22 -122 -63 -199t-100 -77q-73 0 -73 157q0 106 28 229q4 13 12 13q29 0 61 7q5 0 8 -2t4 -4v-2
q-5 -26 -14 -75t-12 -67.5t-7.5 -50.5t-6 -56.5t-1.5 -53.5q0 -22 9 -34.5t22 -12.5q54 0 83 128q13 58 21 120q-30 38 -30 94q0 64 40 64q37 0 37 -43q0 -10 -2 -30t-2 -30q0 -24 9 -24q5 0 22 10q15 10 37.5 30t39 34.5t19.5 14.5q10 0 21.5 -14.5t11.5 -25.5l-3 -13
q-18 -47 -25 -64q-31 -75 -31 -145q0 -43 11.5 -69.5t29.5 -26.5q29 0 56.5 81.5t43.5 188.5q-40 30 -40 97q0 33 12.5 55.5t34.5 22.5q37 0 37 -46q0 -11 -2.5 -33.5t-2.5 -31.5q0 -24 9 -24q5 0 22 10q15 10 37.5 30t39 34.5t19.5 14.5q10 0 21.5 -14.5t11.5 -25.5l-3 -13
q-18 -47 -25 -64q-35 -83 -35 -170q0 -44 10 -72t26 -28q35 0 66 83q6 15 14 20q5 3 6 3q3 0 3 -4l-1 -5q-7 -58 -39 -114t-83 -56q-67 0 -67 129q0 92 28 201q-24 -12 -59 -12zM139 632q44 0 44 -46q0 -30 -19.5 -58t-44.5 -28q-23 0 -34.5 14.5t-11.5 36.5q0 30 19 55.5
t47 25.5z" />
    <glyph glyph-name="irs" unicode="irs" horiz-adv-x="703" 
d="M427 339l-3 -13q-56 -130 -56 -203q0 -39 11.5 -63t29.5 -24q33 0 69.5 95.5t55 176.5t21.5 106q1 15 24 28t37 13q8 0 8 -5l-1 -4q-1 -4 -2 -11.5t-3 -17t-3.5 -22t-2.5 -26.5t-2 -30t-1 -32q0 -35 34.5 -138.5t34.5 -145.5q0 -49 -32 -77t-75 -28q-38 0 -64.5 21.5
t-26.5 60.5q0 13 4 28t9 23.5t8 8.5t3 -2t-0.5 -6.5t-0.5 -6.5q0 -33 17.5 -54t39.5 -21q21 0 35 20.5t14 61.5q0 48 -25 129t-25 86q-13 -24 -46 -124q-59 -180 -138 -180q-71 0 -71 120q0 83 25 166q-24 -12 -59 -12q-7 0 -15 2q-22 -122 -63 -199t-100 -77q-73 0 -73 157
q0 106 28 229q4 13 12 13q29 0 61 7q5 0 8 -2t4 -4v-2q-5 -26 -14 -75t-12 -67.5t-7.5 -50.5t-6 -56.5t-1.5 -53.5q0 -22 9 -34.5t22 -12.5q54 0 83 128q13 58 21 120q-30 38 -30 94q0 64 40 64q37 0 37 -43q0 -10 -2 -30t-2 -30q0 -24 9 -24q5 0 22 10q14 9 36 28.5
t38.5 34.5t20.5 16q10 -1 21 -15.5t11 -24.5zM139 632q44 0 44 -46q0 -30 -19.5 -58t-44.5 -28q-23 0 -34.5 14.5t-11.5 36.5q0 30 19 55.5t47 25.5z" />
    <glyph glyph-name="irsquote" unicode="ir&#x2019;s" horiz-adv-x="736" 
d="M304 83q0 -72 18.5 -106.5t48.5 -34.5q42 0 90.5 56t74.5 135q33 100 46 124q0 -5 25 -86t25 -129q0 -41 -14 -61.5t-35 -20.5q-22 0 -39.5 21t-17.5 54q0 2 0.5 6.5t0.5 6.5t-3 2t-8 -8.5t-9 -23.5t-4 -28q0 -39 26.5 -60.5t64.5 -21.5q43 0 75 28t32 77
q0 42 -34.5 145.5t-34.5 138.5q0 16 1 32t2 30t3 26.5t3.5 22t2.5 17t2 11.5l1 4q0 5 -8 5q-14 0 -37 -13t-24 -28q-1 -8 -9.5 -49t-26 -107t-35.5 -114q-22 -57 -47 -87.5t-47 -30.5q-20 0 -32.5 27.5t-12.5 79.5q0 73 56 203q3 6 3 13q0 10 -10.5 24t-20.5 16
q-3 0 -19.5 -14.5t-39 -34.5t-37.5 -30q-17 -10 -22 -10q-9 0 -9 24q0 10 2 30t2 30q0 43 -37 43q-40 0 -40 -64q0 -56 30 -94q-8 -62 -21 -120q-29 -128 -83 -128q-13 0 -22 12.5t-9 34.5q0 29 1.5 53.5t6 56.5t7.5 50.5t12 67.5t14 75q0 8 -12 8q-31 -7 -61 -7q-4 0 -7 -3
t-4 -7l-1 -3q-28 -123 -28 -229q0 -157 73 -157q59 0 100 77t63 199q8 -2 15 -2q35 0 59 12q-25 -83 -25 -166zM489 699q37 37 61 37q35 0 35 -66q0 -98 -64 -198l-15 10q18 36 18 105q0 76 -35 112zM139 632q-28 0 -47 -25.5t-19 -55.5q0 -22 11.5 -36.5t34.5 -14.5
q25 0 44.5 28t19.5 58q0 46 -44 46z" />
    <glyph glyph-name="is" unicode="is" horiz-adv-x="422" 
d="M136 632q44 0 44 -46q0 -30 -19.5 -58t-44.5 -28q-23 0 -34.5 14.5t-11.5 36.5q0 30 19 55.5t47 25.5zM329 -3q0 48 -22 155.5t-22 112.5q-6 -11 -21 -55.5t-25 -68.5q-38 -94 -77.5 -143t-72.5 -49q-32 0 -51 45t-19 129q0 119 25 226q4 13 12 13q30 0 61 7q5 0 8 -2
t3 -4l1 -2q-4 -22 -12 -64.5t-10.5 -57.5t-7 -45t-6 -47t-3 -40.5t-1.5 -48.5q0 -65 20 -65q34 0 104 163q29 67 46.5 139.5t21.5 116.5q1 15 24 28t37 13q8 0 8 -5l-1 -4q-1 -4 -2 -11.5t-3 -17t-3.5 -22t-2.5 -26.5t-2 -30t-1 -32q0 -35 31 -150.5t31 -157.5
q0 -54 -32 -82.5t-76 -28.5q-40 0 -69 22t-29 59q0 49 29 49q7 0 12 -2q-3 -12 -3 -23q0 -24 14.5 -38t34.5 -14t35.5 15.5t15.5 42.5z" />
    </font>
</defs>
</svg>
